<?xml version="1.0" encoding="utf-8"?>
<!-- Generator: Adobe Illustrator 21.0.0, SVG Export Plug-In . SVG Version: 6.00 Build 0)  -->
<svg version="1.1" id="Capa_1" xmlns="http://www.w3.org/2000/svg" xmlns:xlink="http://www.w3.org/1999/xlink" x="0px" y="0px"
	 viewBox="0 0 512 512" style="enable-background:new 0 0 512 512;" xml:space="preserve">
<style type="text/css">
	.st0{fill:#FF0033;}
</style>
<g>
	<g>
		<path d="M324.1,217.9c-1.6,1.4-1.7,3.8-0.3,5.3c15,17,23.2,38.8,23.2,61.5c0,13.1-2.7,25.7-7.9,37.6
			c-5.1,11.5-12.3,21.6-21.4,30.2c-18.9,17.8-43.6,26.7-69.6,25c-45.6-2.8-82.9-39.3-86.7-84.8c-1.7-20.5,3.1-40.5,14-57.7
			c10.4-16.5,26.1-29.5,44.1-36.7c6.1-2.5,10.1-8.3,10.1-14.8v-7.8c0-2.4,1.9-4.3,4.3-4.3h40.3c2.4,0,4.3,1.9,4.3,4.3v7.8
			c0,6.5,3.9,12.3,10,14.7c8.5,3.4,16.5,8,23.6,13.8c1.6,1.3,4,1,5.3-0.6c1.3-1.6,1-4-0.6-5.3c-7.8-6.2-16.4-11.2-25.6-14.9
			c-3.2-1.3-5.3-4.3-5.3-7.7v-7.8c0-6.5-5.3-11.8-11.8-11.8h-16.4v-4.3c0-6.8,5.5-12.4,12.4-12.4h15.6c4.5,0,8.7,1.8,11.9,4.9
			c4.6,4.6,10.7,7.2,17.3,7.2h15.6c2.1,0,3.8-1.7,3.8-3.8c0-2.1-1.7-3.8-3.8-3.8H315c-4.5,0-8.7-1.8-11.9-4.9
			c-4.6-4.6-10.7-7.2-17.3-7.2h-15.6c-11,0-19.9,8.9-19.9,19.9v4.3h-16.4c-6.5,0-11.8,5.3-11.8,11.8v7.8c0,3.4-2.1,6.5-5.4,7.8
			c-19.5,7.8-36.4,21.9-47.7,39.7c-11.8,18.6-17,40.2-15.1,62.3c4.1,49.2,44.5,88.6,93.8,91.7c2.2,0.1,4.3,0.2,6.5,0.2
			c25.7,0,49.9-9.6,68.8-27.3c9.9-9.3,17.7-20.3,23.2-32.7c5.7-12.8,8.5-26.5,8.5-40.6c0-24.5-8.9-48.1-25.1-66.5
			C328,216.7,325.6,216.5,324.1,217.9L324.1,217.9z"/>
		<path d="M330.6,168c-2.1,0-3.8,1.7-3.8,3.8v8.1c0,2.1,1.7,3.8,3.8,3.8c2.1,0,3.8-1.7,3.8-3.8v-8.1
			C334.4,169.7,332.7,168,330.6,168z"/>
		<path d="M330.6,143.3c2.1,0,3.8-1.7,3.8-3.8v-8.1c0-2.1-1.7-3.8-3.8-3.8c-2.1,0-3.8,1.7-3.8,3.8v8.1
			C326.8,141.6,328.5,143.3,330.6,143.3z"/>
		<path d="M354.8,151.9h-8.1c-2.1,0-3.8,1.7-3.8,3.8c0,2.1,1.7,3.8,3.8,3.8h8.1c2.1,0,3.8-1.7,3.8-3.8
			C358.6,153.6,356.9,151.9,354.8,151.9z"/>
		<path d="M311.8,169.1l-1,1c-1.5,1.5-1.5,3.9,0,5.3c0.7,0.7,1.7,1.1,2.7,1.1s1.9-0.4,2.7-1.1l1-1c1.5-1.5,1.5-3.9,0-5.3
			C315.7,167.7,313.3,167.7,311.8,169.1L311.8,169.1z"/>
		<path d="M346.7,143.3c1,0,1.9-0.4,2.7-1.1l1-1c1.5-1.5,1.5-3.9,0-5.3c-1.5-1.5-3.9-1.5-5.3,0l-1,1c-1.5,1.5-1.5,3.9,0,5.3
			C344.8,143,345.8,143.3,346.7,143.3z"/>
		<path d="M311.8,142.2c0.7,0.7,1.7,1.1,2.7,1.1s1.9-0.4,2.7-1.1c1.5-1.5,1.5-3.9,0-5.3l-1-1c-1.5-1.5-3.9-1.5-5.3,0
			c-1.5,1.5-1.5,3.9,0,5.3L311.8,142.2z"/>
		<path d="M347.7,176.6c1,0,1.9-0.4,2.7-1.1c1.5-1.5,1.5-3.9,0-5.3l-1-1c-1.5-1.5-3.9-1.5-5.3,0c-1.5,1.5-1.5,3.9,0,5.3l1,1
			C345.8,176.2,346.7,176.6,347.7,176.6L347.7,176.6z"/>
	</g>
	<path class="st0" d="M256,448.5c105.9,0,192-86.1,192-192c0-51.3-20-99.6-56.2-135.8C355.5,84.5,307.3,64.5,256,64.5
		c-105.9,0-192,86.1-192,192c0,51.3,20,99.6,56.2,135.8C156.4,428.5,204.7,448.5,256,448.5z M256,416.5
		c-37.4,0-72.8-12.7-101.3-36.1l225.2-225.2c23.4,28.5,36.1,63.9,36.1,101.3C416,344.7,344.2,416.5,256,416.5z M256,96.5
		c37.4,0,72.8,12.7,101.3,36.1L132.1,357.8C108.7,329.3,96,293.9,96,256.5C96,168.3,167.8,96.5,256,96.5z"/>
</g>
</svg>
