<?xml version="1.0" encoding="UTF-8"?>
<svg xmlns="http://www.w3.org/2000/svg" id="Icons" viewBox="0 0 60 60" width="512" height="512"><path d="M30,0A30,30,0,1,0,60,30,30.034,30.034,0,0,0,30,0Zm0,58A28,28,0,1,1,58,30,28.032,28.032,0,0,1,30,58Z"/><path d="M48.305,15a1,1,0,0,0-.772.291l-32.24,32.24a1,1,0,0,0,.1,1.5,23.97,23.97,0,0,0,7.958,4.017,8.965,8.965,0,0,0,13.3-.007A23.975,23.975,0,0,0,49.033,15.391,1,1,0,0,0,48.305,15ZM23,42.654,25.654,40H37v4H23ZM37,38H27.654L37,28.655ZM21,44.654V47a9.006,9.006,0,0,0,.648,3.334,21.887,21.887,0,0,1-4.114-2.214ZM30,54a7,7,0,0,1-7-7V46H37v1A7.008,7.008,0,0,1,30,54Zm8.35-3.669A8.977,8.977,0,0,0,39,47V26.655l9.121-9.121A21.773,21.773,0,0,1,52,30,22.022,22.022,0,0,1,38.35,50.331Z"/><path d="M45,11.694a1,1,0,0,0-.389-.727A24.059,24.059,0,0,0,39,7.763V7.27a3,3,0,0,0-3.375-2.982l-3.134.393A1.987,1.987,0,0,0,31,4H29a1.987,1.987,0,0,0-1.491.681l-3.135-.393A3,3,0,0,0,21,7.27v.5A24.07,24.07,0,0,0,6,30a23.781,23.781,0,0,0,4.967,14.609,1,1,0,0,0,1.5.1l32.24-32.24A1,1,0,0,0,45,11.694ZM35.874,6.272A1,1,0,0,1,37,7.27v2.96a1.01,1.01,0,0,1-.874,1L33,11.618V6.632ZM28.414,17h3.172l2.88,2.88L23,31.345V23.66a3.024,3.024,0,0,1,.877-2.123ZM29,6h2v9H29ZM23,7.27a1,1,0,0,1,1.125-1L27,6.632v4.986l-3.121-.389a1.012,1.012,0,0,1-.879-1Zm-11.121,35.2A21.773,21.773,0,0,1,8,30,22.075,22.075,0,0,1,21,9.937v.293a3.016,3.016,0,0,0,2.626,2.982L27,13.633v1.953l-4.537,4.537A5.035,5.035,0,0,0,21,23.66v9.685Zm24-24L33,15.586V13.633l3.379-.421A3.016,3.016,0,0,0,39,10.23V9.924a22.029,22.029,0,0,1,3.466,1.955Z"/></svg>
