<?xml version="1.0" encoding="utf-8"?>
<!-- Generator: Adobe Illustrator 21.0.0, SVG Export Plug-In . SVG Version: 6.00 Build 0)  -->
<svg version="1.1" id="Capa_1" xmlns="http://www.w3.org/2000/svg" xmlns:xlink="http://www.w3.org/1999/xlink" x="0px" y="0px"
	 viewBox="0 0 512 512" style="enable-background:new 0 0 512 512;" xml:space="preserve">
<style type="text/css">
	.st0{fill:#FF0033;}
</style>
<g>
	<path class="st0" d="M52.4,313c-5.2-18.5-7.8-37.6-7.8-57c0-49.8,17.5-97.7,49.5-135.7c12.5,12.2,29.6,19.8,48.5,19.8
		c38.3,0,69.4-31.1,69.4-69.4c0-7.2-1.1-14.2-3.2-20.7c15.4-3.5,31.3-5.3,47.2-5.3c51.3,0,99.5,18,137.7,51h-16.2
		c-6.9,0-12.4,5.6-12.4,12.4v19.8c0,6.9,5.6,12.4,12.4,12.4H457c7.4,0,13.4-6,13.4-13.4V47.3c0-6.9-5.6-12.4-12.4-12.4h-19.8
		c-6.9,0-12.4,5.6-12.4,12.4v17C379.1,22.7,319.4,0,256,0c-26.3,0-52.2,4-77,11.7c-10.6-6.6-23.1-10.4-36.4-10.4
		c-38.3,0-69.4,31.1-69.4,69.4c0,13.9,4.1,26.9,11.3,37.8C49.1,149.6,29.7,201.8,29.7,256c0,19.9,2.6,39.6,7.7,58.6l-14.1,4.3
		C17.7,298.5,15,277.3,15,256c0-51.1,15.7-99.9,45.4-140.9c2.4-3.3,1.7-8-1.7-10.4c-3.3-2.4-8-1.7-10.4,1.7
		C16.7,149.9,0,201.7,0,256c0,23.6,3.2,46.9,9.5,69.4c1.7,6.6,9.2,10.7,15.6,8.6l19-5.8C50.5,326.2,54.2,319.4,52.4,313L52.4,313z
		 M427.9,87c2.1,2.2,5.4,2.8,8.2,1.7c2.8-1.1,4.7-3.9,4.7-6.9v-32h14.8v75.5H380v-14.8h32.5c3,0,5.7-1.8,6.9-4.6s0.6-6-1.5-8.1
		c-42.8-44-100.3-68.2-161.9-68.2c-18,0-36,2.1-53.4,6.4c-2.7-4.6-5.9-9-9.6-12.8c20.4-5.5,41.5-8.3,62.9-8.3
		C321.3,15,382.4,40.6,427.9,87L427.9,87z M142.6,16.3c30,0,54.4,24.4,54.4,54.4s-24.4,54.4-54.4,54.4s-54.4-24.4-54.4-54.4
		S112.6,16.3,142.6,16.3z"/>
	<path class="st0" d="M426.4,426.4C380.9,472,320.4,497,256,497c-33.8,0-66.4-6.8-96.9-20.2c-3.8-1.7-8.2,0.1-9.9,3.8
		c-1.7,3.8,0.1,8.2,3.8,9.9C185.5,504.8,220.2,512,256,512c68.4,0,132.7-26.6,181-75c2.9-2.9,2.9-7.7,0-10.6
		C434.1,423.5,429.4,423.5,426.4,426.4L426.4,426.4z"/>
	<path class="st0" d="M501.9,184.6c-0.9-3.2-3.1-5.9-6.1-7.5c-3-1.6-6.4-1.9-9.6-0.9l-18.9,5.9c-6.4,2-10.1,8.8-8.2,15.3
		c5.8,20,8.5,40.7,8.2,61.8c-0.8,56.9-23.7,109.9-64.5,149.2c-40.8,39.3-94.7,60.3-151.7,59c-49.4-1.1-95.9-19.1-132.8-50.9h16.2
		c6.9,0,12.4-5.6,12.4-12.4v-19.8c0-6.9-5.6-12.4-12.4-12.4H55c-7.4,0-13.4,6-13.4,13.4v79.6c0,6.9,5.6,12.4,12.4,12.4h19.8
		c6.9,0,12.4-5.6,12.4-12.4v-17c11.2,10,23.3,19,36.1,26.8c3.5,2.2,8.1,1.1,10.3-2.5c2.2-3.5,1.1-8.1-2.5-10.3
		c-16.7-10.3-32.2-22.6-46-36.7c-2.1-2.2-5.4-2.8-8.2-1.7c-2.8,1.1-4.7,3.9-4.7,6.9v31.9H56.5v-75.5H132v14.8H99.4
		c-3,0-5.7,1.8-6.9,4.6c-1.2,2.8-0.6,6,1.5,8.1c41.5,42.6,97.1,66.8,156.7,68.1c1.8,0,3.5,0.1,5.3,0.1c59.1,0,114.7-22.3,157.1-63.2
		c43.7-42.1,68.2-98.8,69.1-159.7c0.3-21.6-2.4-43.1-8.1-63.7l14.1-4.4c5.8,21,8.8,42.8,8.8,64.8c0,53-16.8,103.2-48.6,145.2
		c-2.5,3.3-1.8,8,1.4,10.5s8,1.8,10.5-1.4C494.2,365.6,512,312.3,512,256C512,231.7,508.6,207.7,501.9,184.6L501.9,184.6z"/>
	<path class="st0" d="M142,361.1H372c14,0,25.3-11.4,25.3-25.3V183.9c0-14-11.4-25.3-25.3-25.3h-8.3c-7.4-19.4-26.2-32.5-47.2-32.5
		c-1.5,0-3.1,0.1-4.6,0.2c-3.5-24.4-24.6-43.3-50-43.3c-27.9,0-50.5,22.7-50.5,50.5c0,8.8,2.4,17.5,6.7,25.1H142
		c-14,0-25.3,11.4-25.3,25.3v40h-1.3c-9.6,0-17.5,7.8-17.5,17.5v37c0,9.6,7.8,17.5,17.5,17.5h1.3v40
		C116.7,349.8,128,361.1,142,361.1L142,361.1z M347.2,158.6h-41.4c3-5.3,5.1-11.1,6-17.3c1.5-0.2,3.1-0.3,4.6-0.3
		C329.3,141.1,340.9,148,347.2,158.6L347.2,158.6z M226.4,133.6c0-19.6,16-35.6,35.6-35.6s35.6,16,35.6,35.6
		c0,9.5-3.7,18.4-10.3,25.1h-50.5C230,151.9,226.4,143.1,226.4,133.6z M131.6,206.4h6.8c4.1,0,7.5-3.3,7.5-7.5s-3.3-7.5-7.5-7.5
		h-6.8v-7.5c0-5.7,4.6-10.3,10.3-10.3H372c5.7,0,10.3,4.6,10.3,10.3v151.9c0,5.7-4.6,10.3-10.3,10.3H142c-5.7,0-10.3-4.6-10.3-10.3
		v-7.5h6.8c4.1,0,7.5-3.3,7.5-7.5s-3.3-7.5-7.5-7.5h-6.8v-17.6h50.1c9.6,0,17.5-7.8,17.5-17.5v-37c0-9.6-7.8-17.5-17.5-17.5h-50.1
		V206.4z M112.9,278.4v-37c0-1.4,1.1-2.5,2.5-2.5h66.3c1.4,0,2.5,1.1,2.5,2.5v37c0,1.4-1.1,2.5-2.5,2.5h-66.3
		C114,280.9,112.9,279.8,112.9,278.4L112.9,278.4z"/>
	<path class="st0" d="M122.4,103.4c4.3,2.8,7.6,4.1,11.4,4.7v1.3c0,4.1,3.3,7.5,7.5,7.5s7.5-3.3,7.5-7.5v-2.1
		c8.7-2.9,14.2-10.6,15.5-18.3C166,78.5,160.3,69,150,65.3c-5.2-1.8-10.9-4-14-6.5c-0.5-0.4-0.8-1.6-0.5-3.1c0.1-0.8,0.8-3.3,3.3-4
		c5.4-1.6,8.9,1.1,9.3,1.4l-0.1-0.1l2.1,0.9c7.4,3.1,13.6-6.1,8.1-11.9c-1.8-1.7-5.1-3.7-9.3-4.9v-1.1c0-4.1-3.3-7.5-7.5-7.5
		s-7.5,3.3-7.5,7.5v1.6c-6.7,2.3-11.7,8.1-13,15.3c-1.3,6.9,1,13.7,6,17.6c4.8,3.8,11.6,6.5,18.3,8.8c4.4,1.6,4.8,4.7,4.4,7.1
		c-0.6,3.4-3.4,7-8.2,7c-5.4,0-6.9-0.2-10.9-2.8c-3.7-2.4-8.8-1.1-10.8,2.9C117.8,97.1,119.1,101.3,122.4,103.4L122.4,103.4z"/>
	<path class="st0" d="M154.5,253.4h-11.9c-4.1,0-7.5,3.3-7.5,7.5s3.3,7.5,7.5,7.5h11.9c4.1,0,7.5-3.3,7.5-7.5
		C162,256.7,158.6,253.4,154.5,253.4L154.5,253.4z"/>
	<path class="st0" d="M229.6,206.4h25.6c4.1,0,7.5-3.3,7.5-7.5s-3.3-7.5-7.5-7.5h-25.6c-4.1,0-7.5,3.3-7.5,7.5
		C222.1,203,225.4,206.4,229.6,206.4L229.6,206.4z"/>
	<path class="st0" d="M288,206.4h25.6c4.1,0,7.5-3.3,7.5-7.5s-3.3-7.5-7.5-7.5H288c-4.1,0-7.5,3.3-7.5,7.5
		C280.6,203,283.9,206.4,288,206.4z"/>
	<path class="st0" d="M204.2,198.9c0-4.1-3.3-7.5-7.5-7.5h-25.6c-4.1,0-7.5,3.3-7.5,7.5s3.3,7.5,7.5,7.5h25.6
		C200.8,206.4,204.2,203,204.2,198.9z"/>
	<path class="st0" d="M345.3,206.4h6.8v6.8c0,4.1,3.3,7.5,7.5,7.5s7.5-3.3,7.5-7.5v-9.3c0-6.9-5.6-12.4-12.4-12.4h-9.3
		c-4.1,0-7.5,3.3-7.5,7.5C337.8,203,341.2,206.4,345.3,206.4z"/>
	<path class="st0" d="M359.6,239.3c-4.1,0-7.5,3.3-7.5,7.5v26.3c0,4.1,3.3,7.5,7.5,7.5s7.5-3.3,7.5-7.5v-26.3
		C367.1,242.7,363.7,239.3,359.6,239.3L359.6,239.3z"/>
	<path class="st0" d="M345.3,328.4h9.3c6.9,0,12.4-5.6,12.4-12.4v-9.3c0-4.1-3.3-7.5-7.5-7.5s-7.5,3.3-7.5,7.5v6.8h-6.8
		c-4.1,0-7.5,3.3-7.5,7.5C337.8,325,341.2,328.4,345.3,328.4L345.3,328.4z"/>
	<path class="st0" d="M195.7,313.4h-25.6c-4.1,0-7.5,3.3-7.5,7.5s3.3,7.5,7.5,7.5h25.6c4.1,0,7.5-3.3,7.5-7.5
		C203.2,316.8,199.8,313.4,195.7,313.4z"/>
	<path class="st0" d="M228.6,328.4h25.6c4.1,0,7.5-3.3,7.5-7.5s-3.3-7.5-7.5-7.5h-25.6c-4.1,0-7.5,3.3-7.5,7.5
		C221.1,325,224.4,328.4,228.6,328.4z"/>
	<path class="st0" d="M287,328.4h25.6c4.1,0,7.5-3.3,7.5-7.5s-3.3-7.5-7.5-7.5H287c-4.1,0-7.5,3.3-7.5,7.5S282.9,328.4,287,328.4z"
		/>
</g>
</svg>
