<?xml version="1.0" encoding="utf-8"?>
<!-- Generator: Adobe Illustrator 21.0.0, SVG Export Plug-In . SVG Version: 6.00 Build 0)  -->
<svg version="1.1" id="Layer_1" xmlns="http://www.w3.org/2000/svg" xmlns:xlink="http://www.w3.org/1999/xlink" x="0px" y="0px"
	 viewBox="0 0 512 512" style="enable-background:new 0 0 512 512;" xml:space="preserve">
<g>
	<path d="M220,8H36C20.5,8,8,20.5,8,36v184c0,15.5,12.5,28,28,28h184c15.5,0,28-12.5,28-28V36C248,20.5,235.5,8,220,8z M232,220
		c0,6.6-5.4,12-12,12H36c-6.6,0-12-5.4-12-12V36c0-6.6,5.4-12,12-12h184c6.6,0,12,5.4,12,12V220z"/>
	<path d="M476,8H292c-15.5,0-28,12.5-28,28v184c0,15.5,12.5,28,28,28h184c15.5,0,28-12.5,28-28V36C504,20.5,491.5,8,476,8z M488,220
		c0,6.6-5.4,12-12,12H292c-6.6,0-12-5.4-12-12V36c0-6.6,5.4-12,12-12h184c6.6,0,12,5.4,12,12V220z"/>
	<path d="M220,264H36c-15.5,0-28,12.5-28,28v184c0,15.5,12.5,28,28,28h184c15.5,0,28-12.5,28-28V292C248,276.5,235.5,264,220,264z
		 M232,476c0,6.6-5.4,12-12,12H36c-6.6,0-12-5.4-12-12V292c0-6.6,5.4-12,12-12h184c6.6,0,12,5.4,12,12V476z"/>
	<path d="M476,264H292c-15.5,0-28,12.5-28,28v184c0,15.5,12.5,28,28,28h184c15.5,0,28-12.5,28-28V292C504,276.5,491.5,264,476,264z
		 M488,476c0,6.6-5.4,12-12,12H292c-6.6,0-12-5.4-12-12V292c0-6.6,5.4-12,12-12h184c6.6,0,12,5.4,12,12V476z"/>
	<g>
		<g>
			<g>
				<path d="M442.5,147c-0.1-0.2-0.2-0.4-0.4-0.6c-1.3-1.8-3.1-2.9-5.2-3.3c-2.1-0.3-4.3,0.1-6,1.4l-23.1,16.5h-24.1
					c-1.1,0-2.1-0.9-2.1-2.1s0.9-2.1,2.1-2.1h13.4c4,0,7.2-3.2,7.2-7.2c0,0,0-0.2,0-0.2c-0.1-4-3.5-7.1-7.4-7H370
					c-2.4,0-4.7,0.9-6.5,2.4l-10.1,8.4c-0.5,0.4-0.7,1-0.7,1.6v24.8c0,1.1,0.9,2.1,2.1,2.1H406c3.4,0,6.6-1.2,9.2-3.3l25.1-20.7
					C443.7,155.3,444.7,150.6,442.5,147z M437.8,154.4l-25.2,20.8c-1.8,1.5-4.2,2.4-6.6,2.4h-49.2v-21.8l9.4-7.8
					c1.1-0.9,2.5-1.4,3.9-1.4l26.9,0c1.7,0,3.1,1.3,3.2,3.1c0,1.7-1.4,3.1-3.1,3.1h-13.4c-3.4,0-6.2,2.8-6.2,6.2s2.8,6.2,6.2,6.2
					h24.8c0.4,0,0.8-0.1,1.2-0.4l23.6-16.9c0.9-0.6,1.9-0.8,2.9-0.7c1,0.2,1.9,0.7,2.6,1.6c0.1,0.1,0.1,0.2,0.2,0.3
					C440,150.9,439.5,153.2,437.8,154.4z"/>
			</g>
		</g>
		<g>
			<g>
				<path d="M354.7,150.7H332v4.1h20.6v31H332v4.1h22.7c1.1,0,2.1-0.9,2.1-2.1v-35.1C356.7,151.7,355.8,150.7,354.7,150.7z"/>
			</g>
		</g>
		<g>
			<g>
				<path d="M342.3,169.3c-3.4,0-6.2,2.8-6.2,6.2c0,3.4,2.8,6.2,6.2,6.2s6.2-2.8,6.2-6.2S345.8,169.3,342.3,169.3z M342.3,177.6
					c-1.1,0-2.1-0.9-2.1-2.1s0.9-2.1,2.1-2.1s2.1,0.9,2.1,2.1S343.5,177.6,342.3,177.6z"/>
			</g>
		</g>
		<g>
			<g>
				<path d="M453.9,130.1H334.1c-1.1,0-2.1,0.9-2.1,2.1c0,8,6.5,14.5,14.5,14.5h95.1c8,0,14.5-6.5,14.5-14.5
					C456,131,455.1,130.1,453.9,130.1z M441.5,142.5h-95.1c-5,0-9.2-3.6-10.1-8.3h115.3C450.7,138.9,446.5,142.5,441.5,142.5z"/>
			</g>
		</g>
		<g>
			<g>
				<path d="M394,76.3c-29.6,0-53.7,24.1-53.7,53.7v2.1c0,1.1,0.9,2.1,2.1,2.1h103.3c1.1,0,2.1-0.9,2.1-2.1v-2.1
					C447.7,100.4,423.6,76.3,394,76.3z M344.4,130.1c0-27.3,22.3-49.6,49.6-49.6c27.3,0,49.6,22.3,49.6,49.6H344.4z"/>
			</g>
		</g>
		<g>
			<g>
				<path d="M360,99.9c-1.4,1.6-2.8,3.4-4,5.2l3.4,2.3c1.1-1.6,2.3-3.2,3.6-4.7L360,99.9z"/>
			</g>
		</g>
		<g>
			<g>
				<path d="M394,84.6c-11.6,0-22.7,4.4-31.1,12.3l2.8,3c7.7-7.2,17.7-11.2,28.3-11.2L394,84.6z"/>
			</g>
		</g>
		<g>
			<g>
				<rect x="387.8" y="66" width="12.4" height="4.1"/>
			</g>
		</g>
		<g>
			<g>
				<rect x="391.9" y="68.1" width="4.1" height="10.3"/>
			</g>
		</g>
	</g>
	<g>
		<g>
			<g>
				<path d="M169.8,110.4h-9.1l2.7-31.5c0-0.1,0-0.1,0-0.2c0,0,0,0,0,0c0,0,0,0,0,0c0-0.9-0.5-1.6-1.3-1.9c0,0,0,0,0,0
					c0,0-0.1,0-0.1-0.1c0,0,0,0-0.1,0c0,0-0.1,0-0.1,0c0,0-0.1,0-0.1,0c0,0-0.1,0-0.1,0c0,0-0.1,0-0.1,0c0,0,0,0,0,0
					c0,0-0.1,0-0.1,0c0,0,0,0-0.1,0h0c0,0,0,0,0,0H118c-1.2,0-2.1,0.9-2.1,2.1c0,1.2,0.9,2.1,2.1,2.1h41l-4.2,48.4c0,0,0,0,0,0
					l-1.1,12.2H80.2l1.2-12.7h14c1.2,0,2.1-0.9,2.1-2.1c0-1.2-0.9-2.1-2.1-2.1H81.8l2.6-26.8h22.3c1.2,0,2.1-0.9,2.1-2.1
					s-0.9-2.1-2.1-2.1H84.9l1.2-12.6h23.5c1.2,0,2.1-1,2.1-2.1c0-1.2-1-2.1-2.1-2.1H84.2c0,0,0,0,0,0c-1,0-1.9,0.7-2.1,1.7
					c0,0,0,0,0,0c0,0.1,0,0.1,0,0.2c0,0,0,0,0,0.1c0,0,0,0,0,0l-1.4,14.9H54.9c-1.2,0-2.1,0.9-2.1,2.1s0.9,2.1,2.1,2.1h25.3
					l-2.6,26.8H70c-1.2,0-2.1,0.9-2.1,2.1s0.9,2.1,2.1,2.1h7.1l-1.4,14.6c0,0,0,0,0,0L73.6,166c0,0,0,0,0,0l0,0c0,0,0,0.1,0,0.1
					c0,0,0,0.1,0,0.1c0,0,0,0,0,0c0,0.1,0,0.1,0,0.2c0,0,0,0,0,0.1c0,0.1,0,0.1,0,0.2c0,0,0,0,0,0c0,0,0,0.1,0,0.1c0,0,0,0.1,0,0.1
					c0,0,0,0,0,0c0.1,0.3,0.3,0.6,0.5,0.8c0,0,0,0,0,0c0,0,0,0,0.1,0.1c0.1,0.1,0.3,0.2,0.5,0.3c0,0,0.1,0,0.1,0.1c0,0,0,0,0,0
					c0.1,0,0.1,0,0.2,0.1c0,0,0,0,0,0c0.1,0,0.1,0,0.2,0c0,0,0,0,0,0c0.1,0,0.1,0,0.2,0c0,0,0,0,0,0c0.1,0,0.1,0,0.2,0c0,0,0,0,0,0
					h9.4c1,7.9,7.8,14,16,14c8.2,0,14.9-6.1,16-14h34c1,7.9,7.8,14,16,14c8.2,0,14.9-6.1,16-14h9.4c0,0,0,0,0,0c0.1,0,0.1,0,0.2,0
					c0,0,0,0,0,0c0.1,0,0.1,0,0.2,0c0,0,0,0,0.1,0c0,0,0.1,0,0.1,0c0,0,0.1,0,0.1,0c0,0,0.1,0,0.1,0c0,0,0.1,0,0.1,0
					c0,0,0.1,0,0.1,0c0,0,0.1,0,0.1,0c0,0,0.1,0,0.1-0.1c0,0,0.1,0,0.1-0.1c0,0,0.1,0,0.1-0.1c0,0,0,0,0.1-0.1c0,0,0.1-0.1,0.1-0.1
					c0,0,0,0,0.1-0.1c0,0,0.1-0.1,0.1-0.1c0,0,0,0,0-0.1c0,0,0.1-0.1,0.1-0.1c0,0,0,0,0,0c0-0.1,0.1-0.1,0.1-0.2c0,0,0,0,0,0
					c0-0.1,0.1-0.1,0.1-0.2c0,0,0,0,0-0.1c0,0,0-0.1,0-0.1c0,0,0-0.1,0-0.1c0,0,0-0.1,0-0.1c0,0,0-0.1,0-0.1c0,0,0-0.1,0-0.1
					c0.1-0.7,1.7-14,2.5-22.6c0,0,0,0,0,0c0.2-2.5,0.3-4.6,0.3-5.8C197.3,122.8,185,110.4,169.8,110.4z M160.4,114.7h8.7l-1.1,12.7
					h-8.7L160.4,114.7z M101.1,178.1c-6.6,0-11.9-5.3-11.9-11.9s5.3-11.9,11.9-11.9s11.9,5.3,11.9,11.9S107.6,178.1,101.1,178.1z
					 M167,178.1c-6.6,0-11.9-5.3-11.9-11.9s5.3-11.9,11.9-11.9c6.6,0,11.9,5.3,11.9,11.9S173.5,178.1,167,178.1z M190.5,164.1H183
					c-1-7.9-7.8-14-16-14c-8.2,0-14.9,6.1-16,14h-34c-1-7.9-7.8-14-16-14s-14.9,6.1-16,14H78l1.8-18.3h75.9v0c0,0,0,0,0,0
					c0.1,0,0.1,0,0.2,0c0,0,0,0,0,0c0.1,0,0.1,0,0.2,0c0,0,0,0,0.1,0c0,0,0.1,0,0.1,0c0,0,0.1,0,0.1,0c0,0,0.1,0,0.1,0
					c0,0,0.1,0,0.1,0c0,0,0.1,0,0.1,0c0,0,0.1,0,0.1,0c0,0,0.1,0,0.1-0.1c0,0,0.1,0,0.1-0.1c0,0,0.1,0,0.1-0.1c0,0,0,0,0.1-0.1
					c0,0,0.1,0,0.1-0.1c0,0,0,0,0.1-0.1c0,0,0-0.1,0.1-0.1c0,0,0,0,0.1-0.1c0,0,0-0.1,0.1-0.1c0,0,0,0,0-0.1c0,0,0-0.1,0.1-0.1
					c0,0,0,0,0-0.1c0,0,0-0.1,0-0.1c0,0,0-0.1,0-0.1c0,0,0-0.1,0-0.1c0,0,0-0.1,0-0.1c0,0,0-0.1,0-0.1c0,0,0-0.1,0-0.1
					c0,0,0-0.1,0-0.1c0,0,0-0.1,0-0.1c0,0,0,0,0,0l1.1-12.2h10.9c6.5,0,9.4,3.4,12.5,6.9c2.6,2.9,5.4,6.2,10.3,7
					C192,152.1,191,160.4,190.5,164.1z M192.9,141.3c-3.1-0.6-5.1-2.9-7.4-5.5c-2.9-3.4-6.5-7.5-13.4-8.2l1.1-12.6
					c11.2,1.7,19.9,11.4,19.9,23C193.1,138.8,193,139.9,192.9,141.3z"/>
			</g>
		</g>
		<g>
			<g>
				<path d="M91.6,167.9c-4.3,0-7.8,3.5-7.8,7.8s3.5,7.8,7.8,7.8c4.3,0,7.8-3.5,7.8-7.8C99.3,171.4,95.9,167.9,91.6,167.9z
					 M91.6,179.2c-1.9,0-3.5-1.6-3.5-3.5c0-1.9,1.6-3.5,3.5-3.5c1.9,0,3.5,1.6,3.5,3.5C95.1,177.6,93.5,179.2,91.6,179.2z"/>
			</g>
		</g>
		<g>
			<g>
				<path d="M157.5,167.9c-4.3,0-7.8,3.5-7.8,7.8s3.5,7.8,7.8,7.8s7.8-3.5,7.8-7.8C165.2,171.4,161.8,167.9,157.5,167.9z
					 M157.5,179.2c-1.9,0-3.5-1.6-3.5-3.5c0-1.9,1.6-3.5,3.5-3.5c1.9,0,3.5,1.6,3.5,3.5C161,177.6,159.4,179.2,157.5,179.2z"/>
			</g>
		</g>
		<g>
			<g>
				<path d="M63.4,120H53c-1.2,0-2.1,0.9-2.1,2.1s0.9,2.1,2.1,2.1h10.3c1.2,0,2.1-0.9,2.1-2.1S64.5,120,63.4,120z"/>
			</g>
		</g>
	</g>
	<g>
		<path d="M436.4,375.9c-0.1-1.1-1-1.9-2.1-1.9h-29.7l-1.4-27c-0.1-1.1-1-2-2.1-2h-14.5v-10.4c0-10.3-8.3-18.6-18.6-18.6
			c-2.1,0-4.2,0.4-6.2,1.1c-9.7-3.4-20.3,1.6-23.8,11.3c-0.7,2-1.1,4.1-1.1,6.2V345h-14.5c-1.1,0-2,0.9-2.1,2l-4.1,82.8
			c-0.1,1.1,0.8,2.1,2,2.2c0,0,0.1,0,0.1,0h120.1c1.1,0,2.1-0.9,2.1-2.1c0-0.1,0-0.1,0-0.2L436.4,375.9z M430.2,421.2l4.4,6.6h-8.8
			L430.2,421.2z M435.8,422.1l-3.6-5.4l-3.9-38.6h4.1L435.8,422.1z M424.2,378.1l3.9,38.8l-4.5,6.8l-3.5-45.6H424.2z M400.5,374
			h-3.9l-1.5-24.9h4.1L400.5,374z M391,349.1l1.5,24.9h-4.4l-1.2-24.9H391z M368.1,320.1c8,0,14.5,6.5,14.5,14.5V345h-8.3v-10.4
			c0-5.6-2.5-10.9-6.9-14.5C367.6,320.1,367.9,320.1,368.1,320.1z M361.9,321.5c5.1,2.4,8.3,7.5,8.3,13.1V345h-16.6v-10.4
			C353.6,329,356.8,323.9,361.9,321.5z M341.2,334.6c0-8,6.5-14.5,14.5-14.5c0.2,0,0.5,0,0.7,0c-4.4,3.5-6.9,8.9-6.9,14.5V345h-8.3
			V334.6z M366.2,427.8h-45.6l3.9-78.7H337v13.4l-5.3,3.5c-0.6,0.4-0.9,1-0.9,1.7v16.6c0,1.1,0.9,2.1,2.1,2.1h12.4
			c1.1,0,2.1-0.9,2.1-2.1v-16.6c0-0.7-0.3-1.3-0.9-1.7l-5.3-3.5v-13.4h29v6.2c0,1.1,0.9,2.1,2.1,2.1c1.1,0,2.1-0.9,2.1-2.1v-6.2h8.4
			l1.2,24.9h-11.7c-1.1,0-2,0.8-2.1,1.9L366.2,427.8z M339.1,366.1l4.1,2.8v13.4H335v-13.4L339.1,366.1z M374.1,378.1h41.7l3.8,49.7
			h-49.4L374.1,378.1z"/>
		<path d="M405.4,386.4c-1.1,0-2.1,0.9-2.1,2.1V405c0,3.4-2.8,6.2-6.2,6.2h-4.1c-3.4,0-6.2-2.8-6.2-6.2v-16.6c0-1.1-0.9-2.1-2.1-2.1
			s-2.1,0.9-2.1,2.1V405c0,5.7,4.6,10.3,10.4,10.4h4.1c5.7,0,10.3-4.6,10.4-10.4v-16.6C407.4,387.3,406.5,386.4,405.4,386.4z"/>
	</g>
	<g>
		<path d="M158.7,401.8l-20.9,10.4c-0.7-3.1-3.1-5.7-6.3-6.7l-9.7-2.9c-7-2.1-16.2-3.8-25.4,1.5c-0.6,0.3-1.1,0.7-1.6,1
			c-1.7,1.1-2.8,1.8-5.9,1.8c-1-2.4-3.3-4.1-6.1-4.1h-9.9c-3.6,0-6.6,2.9-6.6,6.6v23c0,3.6,2.9,6.6,6.6,6.6h9.9
			c3.5,0,6.3-2.7,6.6-6.1c4.1,0.1,6.8,0.4,12.4,2c3.1,0.9,16.2,4.7,17.2,5c3.3,1,6.1,1.8,9,1.8c3.3,0,6.7-1,11.2-4c0,0,0,0,0.1,0
			l28.8-20.5c4.1-2.9,5.3-8.2,2.8-12.2C168.3,400.9,163.2,399.6,158.7,401.8L158.7,401.8z M84.5,432.4c0,0.9-0.7,1.6-1.7,1.6h-9.9
			c-0.9,0-1.7-0.7-1.7-1.6v-23c0-0.9,0.7-1.6,1.7-1.6h9.9c0.9,0,1.7,0.7,1.7,1.6L84.5,432.4L84.5,432.4z M165.1,413.1l-28.8,20.5
			c-6.5,4.3-9.3,3.5-16,1.6c-1-0.3-14.1-4.1-17.2-5c-6-1.8-8.9-2.1-13.8-2.2v-16.1c4.2-0.1,6.1-1.4,8-2.6c0.4-0.3,0.9-0.6,1.4-0.8
			c6-3.4,12.4-3.8,21.5-1l9.7,2.9c2.2,0.7,3.5,3,2.9,5.3c0,0,0,0,0,0c-0.7,2.2-3,3.5-5.3,2.9l-13.9-4c-1.3-0.4-2.7,0.4-3,1.7
			c-0.4,1.3,0.4,2.7,1.7,3l13.9,4c4.5,1.3,9.2-1,11-5.1l23.6-11.7c1.9-0.9,4.5-0.8,5.7,1.2C167.7,409.3,167.1,411.7,165.1,413.1
			L165.1,413.1z"/>
		<path d="M116.1,372l10.2,9.8c0.5,0.5,1.1,0.7,1.7,0.7s1.2-0.2,1.7-0.7l10.2-9.8c0,0,0,0,0.1-0.1c3.7-3.8,3.7-10.1,0-14
			c-3.1-3.2-8.3-3.3-12-0.4c-3.6-2.9-8.9-2.8-12,0.4C112.3,361.8,112.3,368.1,116.1,372C116.1,372,116.1,372,116.1,372L116.1,372z
			 M119.6,361.4c1.6-1.6,4.1-1.1,5.6,0.3l0.1,0.1c0.7,0.7,1.5,1.4,2.7,1.4c1.2,0,2-0.7,2.7-1.4l0.1-0.1c1.5-1.4,4.1-1.9,5.6-0.3
			c1.9,1.9,1.9,5.2,0,7.1l-8.4,8.1l-8.4-8.1C117.7,366.5,117.7,363.3,119.6,361.4L119.6,361.4z"/>
		<path d="M72.8,371.5h13.3c1.4,0,2.5-1.1,2.5-2.5s-1.1-2.5-2.5-2.5H72.8c-1.4,0-2.5,1.1-2.5,2.5S71.5,371.5,72.8,371.5z"/>
		<path d="M73.5,354.9l11.5,5.6c0.3,0.2,0.7,0.3,1.1,0.3c0.9,0,1.8-0.5,2.2-1.4c0.6-1.2,0.1-2.7-1.1-3.3l-11.5-5.6
			c-1.2-0.6-2.7-0.1-3.3,1.1C71.8,352.8,72.3,354.3,73.5,354.9z"/>
		<path d="M85.1,377.5l-11.5,5.6c-1.2,0.6-1.7,2.1-1.1,3.3c0.4,0.9,1.3,1.4,2.2,1.4c0.4,0,0.7-0.1,1.1-0.3l11.5-5.6
			c1.2-0.6,1.7-2.1,1.1-3.3C87.8,377.4,86.3,376.9,85.1,377.5L85.1,377.5z"/>
		<path d="M183.2,366.5h-13.3c-1.4,0-2.5,1.1-2.5,2.5s1.1,2.5,2.5,2.5h13.3c1.4,0,2.5-1.1,2.5-2.5S184.6,366.5,183.2,366.5z"/>
		<path d="M169.9,360.7c0.4,0,0.7-0.1,1.1-0.3l11.5-5.6c1.2-0.6,1.7-2.1,1.1-3.3c-0.6-1.2-2.1-1.7-3.3-1.1l-11.5,5.6
			c-1.2,0.6-1.7,2.1-1.1,3.3C168.1,360.2,169,360.7,169.9,360.7L169.9,360.7z"/>
		<path d="M182.5,383.1l-11.5-5.6c-1.2-0.6-2.7-0.1-3.3,1.1c-0.6,1.2-0.1,2.7,1.1,3.3l11.5,5.6c0.3,0.2,0.7,0.3,1.1,0.3
			c0.9,0,1.8-0.5,2.2-1.4C184.3,385.2,183.8,383.7,182.5,383.1L182.5,383.1z"/>
		<path d="M96.9,349.5v36c0,4.7,3.8,8.4,8.4,8.4h45.3c4.7,0,8.4-3.8,8.4-8.4v-36c3.7-0.7,6.5-3.9,6.5-7.9v-3.5c0-4.4-3.6-8-8-8h-5.1
			c0.6-2.2,0.4-4.5-0.5-6.8c-1.7-4.1-5.5-7.2-9.5-7.6c-3.6-0.4-7,1.3-9.3,4.8l-5.3,7.7l-5.3-7.7c-2.4-3.5-5.7-5.2-9.3-4.8
			c-4,0.4-7.8,3.5-9.5,7.6c-0.9,2.3-1.1,4.7-0.5,6.8h-5.1c-4.4,0-8,3.6-8,8v3.5C90.4,345.5,93.2,348.8,96.9,349.5L96.9,349.5z
			 M137.3,323.3c1.3-2,2.9-2.9,4.7-2.7c2.2,0.2,4.5,2.1,5.5,4.6c0.4,1.1,0.9,3-0.2,5h-14.6L137.3,323.3z M108.5,325.2
			c1-2.5,3.2-4.3,5.5-4.6c1.8-0.2,3.4,0.7,4.7,2.7l4.7,6.9h-14.7C107.6,328.2,108.1,326.2,108.5,325.2z M95.3,338.1
			c0-1.7,1.4-3.1,3.1-3.1h59.3c1.7,0,3.1,1.4,3.1,3.1v3.5c0,1.7-1.4,3.1-3.1,3.1H128c-1.4,0-2.5,1.1-2.5,2.5c0,1.4,1.1,2.5,2.5,2.5
			h26.2v35.9c0,1.9-1.6,3.5-3.5,3.5h-45.3c-1.9,0-3.5-1.6-3.5-3.5v-35.9h3.7c1.4,0,2.5-1.1,2.5-2.5s-1.1-2.5-2.5-2.5h-7.2
			c-1.7,0-3.1-1.4-3.1-3.1L95.3,338.1L95.3,338.1z"/>
		<path d="M116.6,349.6c1.4,0,2.5-1.1,2.5-2.5c0-1.4-1.1-2.5-2.5-2.5h0c-1.4,0-2.5,1.1-2.5,2.5C114.1,348.5,115.2,349.6,116.6,349.6
			z"/>
	</g>
</g>
</svg>
