<?xml version="1.0" encoding="utf-8"?>
<!-- Generator: Adobe Illustrator 23.0.1, SVG Export Plug-In . SVG Version: 6.00 Build 0)  -->
<svg version="1.1" id="Layer_1" xmlns="http://www.w3.org/2000/svg" xmlns:xlink="http://www.w3.org/1999/xlink" x="0px" y="0px"
	 viewBox="0 0 500 500" style="enable-background:new 0 0 500 500;" xml:space="preserve">
<style type="text/css">
	.st0{fill:#7663EA;}
</style>
<path class="st0" d="M111.35,425.19c-9.72-1.8-17.52-8.87-20.49-18.54c-0.98-3.21-1.32-7.94-0.77-11.06
	c0.94-5.36,9.22-32.69,17.2-56.74c1.27-3.84,2.92-6.64,5.59-9.53c4.14-4.48,6.34-5.61,27.73-14.39c7.06-2.9,15.7-6.46,19.18-7.91
	c10.17-4.24,22.45-8.92,35.45-13.5l4.32-1.52l0.94,3.25c4.13,14.31,28.72,86.52,29.9,87.8c0.18,0.2,0.31-0.25,0.31-1.07
	c0-0.78,0.65-15.57,1.46-32.87l1.46-31.46l-6.08-12.06c-2.45-4.07-7.51-10.93-6.51-11.75c0.61-0.51,1.72,0.47,3.34,1.31
	c6.88,3.45,14.71,6.62,24.35,6.99c10.58,0.41,19.12-2.9,28.07-6.95c1.83-0.85,3.8-2.34,4.54-1.5c1,1.13-7.19,11.37-7.32,11.61
	l-6.23,12.32l1.51,32.81c0.83,18.04,1.62,32.69,1.76,32.55c0.88-0.94,26.3-75.67,30.01-88.26l0.81-2.72l11.95,4.37
	c14.07,5.14,15.53,5.71,28.27,10.92c40.43,16.52,40.88,16.73,45.32,20.97c2.26,2.16,4.86,5.8,5.76,8.09
	c0.31,0.79,1.69,4.92,3.07,9.2c9.09,28.21,14.31,45.68,15.02,50.26c1.33,8.59-2.53,18.32-9.5,23.96c-2.42,1.96-6.82,4.23-9.98,5.16
	c-2.03,0.59-9.56,0.63-140.05,0.69C139.99,425.65,113.37,425.57,111.35,425.19L111.35,425.19z M245.86,279.25
	c-16.5-3.59-32.43-14.46-44.03-30.05c-6.2-8.33-12.44-20.63-15.76-31.05c-0.79-2.46-0.86-2.57-1.73-2.33
	c-1.67,0.46-4.47,0.19-5.96-0.56c-5.65-2.88-9.55-12.06-11.39-26.82c-1.13-9.01-0.3-13.55,2.98-16.44c2.08-1.83,4.32-2.48,8.56-2.48
	h3.36l-0.25-5.8c-0.88-20.48-0.8-25.64,0.54-32.54c5.62-29.01,29.58-51.16,59.08-54.61c21.18-2.48,40.08,3.05,55.74,16.29
	c10.25,8.67,18.52,22.57,21.6,36.33c1.6,7.15,1.84,11.54,1.36,24.78c-0.24,6.48-0.43,12.63-0.43,13.66l0.01,1.87h3.35
	c5.52,0,8.37,1.35,10.3,4.89c1.89,3.47,2,8.31,0.43,18.3c-2.44,15.48-8.41,24.44-15.58,23.37c-0.84-0.13-1.67-0.22-1.85-0.22
	c-0.18,0-0.91,1.74-1.64,3.86c-7.33,21.48-19.89,38.73-36.04,49.49c-4.15,2.77-11.19,6.3-15.7,7.88
	C255.48,279.66,250.59,280.28,245.86,279.25L245.86,279.25z"/>
</svg>
