<?xml version="1.0" encoding="utf-8"?>
<!-- Generator: Adobe Illustrator 23.0.1, SVG Export Plug-In . SVG Version: 6.00 Build 0)  -->
<svg version="1.1" id="Layer_1" xmlns="http://www.w3.org/2000/svg" xmlns:xlink="http://www.w3.org/1999/xlink" x="0px" y="0px"
	 viewBox="0 0 700 700" style="enable-background:new 0 0 700 700;" xml:space="preserve">
<g>
	<path d="M473.3,119.6c-1.2,2-1.6,4.3-1.1,6.6c0.5,2.3,1.9,4.2,3.9,5.5c2,1.2,4.3,1.6,6.6,1.1c2.3-0.5,4.2-1.9,5.4-3.9
		c3.6-5.4,9.2-9.3,15.6-10.8c6.4-1.5,13.1-0.5,18.8,2.7c5.7,3.1,9.8,8.3,11.5,14.6c1.5,5.7,0.5,11.8-2.6,16.8
		c-2.6,4.1-1.3,9.5,2.8,12.1c4.1,2.6,9.5,1.3,12.1-2.8c5.7-9,7.4-20,4.7-30.4c-2.8-10.9-10-20.1-19.9-25.5c-9.6-5.4-20.9-7-31.7-4.3
		C488.7,103.8,479.4,110.4,473.3,119.6L473.3,119.6z"/>
	<path d="M537,97c4.1,2.5,9.5,1.3,12.1-2.8l10.2-16.3h0c2.6-4.1,1.3-9.5-2.8-12.1c-4.1-2.6-9.5-1.3-12.1,2.8l-10.2,16.3
		c-1.2,2-1.6,4.3-1.1,6.6C533.6,93.8,535,95.8,537,97L537,97z"/>
	<path d="M518.2,90.6c2.3,0.5,4.6,0,6.5-1.4c1.9-1.4,3.1-3.4,3.4-5.8l2.8-18.7c0.3-2.3-0.2-4.6-1.6-6.5s-3.5-3.1-5.8-3.4
		c-2.3-0.3-4.6,0.2-6.5,1.6c-1.9,1.4-3.1,3.5-3.4,5.8c0,0-2.8,18.7-2.8,18.7c-0.4,2.3,0.2,4.6,1.6,6.4
		C513.8,89.2,515.9,90.3,518.2,90.6L518.2,90.6z"/>
	<path d="M487.5,85.7c1.3,4.6,6.1,7.3,10.8,6.1c2.2-0.6,4.1-2.1,5.3-4.1c1.1-2,1.4-4.4,0.8-6.6l-5-18.4c-0.6-2.2-2.1-4.2-4.1-5.3
		c-2-1.2-4.4-1.5-6.7-0.9c-2.2,0.6-4.2,2.1-5.3,4.1c-1.1,2-1.4,4.4-0.8,6.7C482.5,67.3,487.5,85.6,487.5,85.7L487.5,85.7z"/>
	<path d="M468,98.4c3,3.7,8.5,4.4,12.3,1.4c3.8-3,4.4-8.5,1.4-12.3l-12.1-15.2c-1.4-1.8-3.6-3-5.9-3.3c-2.3-0.3-4.6,0.4-6.4,1.8
		c-1.8,1.4-3,3.6-3.2,5.9c-0.3,2.3,0.4,4.6,1.9,6.4L468,98.4z"/>
	<path d="M437.6,107.3l17.3,9.7c4.2,2.4,9.5,0.9,11.9-3.4c2.4-4.2,0.9-9.6-3.4-11.9l-17.3-9.7c-4.2-2.4-9.5-0.9-11.9,3.4
		C431.9,99.6,433.4,105,437.6,107.3L437.6,107.3z"/>
	<path d="M567.3,159.9c-2-1.1-4.4-1.4-6.6-0.8c-2.2,0.6-4.1,2.1-5.3,4.1c-2.4,4.2-0.9,9.6,3.4,11.9l17.3,9.7
		c4.2,2.3,9.5,0.8,11.9-3.4c2.4-4.2,0.9-9.5-3.4-11.9L567.3,159.9z"/>
	<path d="M590.6,158c4.6,0,8.4-3.6,8.7-8.2c0.3-4.6-3-8.6-7.6-9.3l-19.9-2.7c-4.8-0.6-9.2,2.7-9.8,7.5c-0.7,4.8,2.7,9.2,7.5,9.8
		C569.6,155.3,590.2,158.1,590.6,158L590.6,158z"/>
	<path d="M560.9,126.5c1.2,4.7,5.9,7.5,10.6,6.5l19.4-4.7v0c4.7-1.1,7.6-5.9,6.4-10.5c-1.1-4.7-5.8-7.6-10.5-6.5l-19.4,4.7h0
		C562.6,117.1,559.8,121.8,560.9,126.5L560.9,126.5z"/>
	<path d="M552,109.5c2.8,3.9,8.2,4.8,12.2,2.1l16-11.3c3.9-2.8,4.8-8.2,2-12.2s-8.2-4.9-12.2-2.1l-16,11.3c-1.9,1.3-3.2,3.4-3.6,5.7
		C550.1,105.2,550.7,107.6,552,109.5L552,109.5z"/>
	<path d="M621.3,516.3h-43.8V488c10.3-4.7,17.5-17.5,17.5-33c0-19.6-11.5-35-26.3-35s-26.3,15.4-26.3,35c0,15.5,7.2,28.3,17.5,33
		v28.2h-52.5V199l52.5,75.8v128.7c5.8-1.4,11.7-1.4,17.5,0V272c0-1.8-0.5-3.5-1.6-5l-70.9-102.3c-1.1-1.6-2.7-2.8-4.6-3.4
		c-89-27.7-173.1-10.8-216.1,2v18.4c38.3-11.9,120.1-30.2,205.6-5.3v23.7c-85.7-27.1-168.4-9.7-205.6,1.3v18.4
		c33-10.1,119.2-30.4,205.6-1.2v24.1c-85-27.4-167.4-10.7-205.6,0.3v18.4c34.3-10.3,120.1-29.7,205.6-0.2v24
		c-84.5-27.8-166.5-11.7-205.6-0.6V303c35.5-10.4,120.9-29.1,205.6,0.7v24c-83.9-28.1-165.7-12.7-205.6-1.5v18.3
		c36.5-10.6,121.5-28.5,205.6,1.7v26.4c-85.7-27.1-168.4-9.7-205.6,1.3v18.4c33-10.1,119.2-30.5,205.6-1.2v24.1
		c-85-27.4-167.4-10.7-205.6,0.3v18.3c34.3-10.3,120.1-29.7,205.6-0.2v82.6h-74.4v-43.8c0-4.6-1.9-9.1-5.1-12.4s-7.7-5.1-12.4-5.1
		h-43.8c-4.6,0-9.1,1.9-12.4,5.1s-5.1,7.7-5.1,12.4v43.8h-70V47.7l39.4,19v73c5.5-1.3,11.4-2.5,17.5-3.6v-61l35,16.9v39.1
		c5.7-0.6,11.5-1,17.5-1.4V86.5c0-3.4-1.9-6.4-4.9-7.9L264.6,27.1c-2.3-1.1-5-1.2-7.3-0.1L114.6,89.6c-3.2,1.4-5.2,4.5-5.2,8v418.6
		H78.7c-4.8,0-8.8,3.9-8.8,8.8s3.9,8.8,8.8,8.8h542.5c4.8,0,8.8-3.9,8.8-8.8S626.1,516.2,621.3,516.3L621.3,516.3z M568.8,437.5
		c3.6,0,8.8,6.8,8.8,17.5s-5.2,17.5-8.8,17.5s-8.8-6.8-8.8-17.5S565.2,437.5,568.8,437.5z M354.4,472.5h43.8v43.8h-43.8V472.5z
		 M196.9,72.6l17.5-7.7v451.3h-17.5V72.6z M179.4,516.3h-17.5V88l17.5-7.7V516.3z M231.9,57.2l17.5-7.7v466.7h-17.5V57.2z
		 M126.9,103.3l17.5-7.7v420.6h-17.5V103.3z"/>
	<path d="M306.3,494.4c4.8,0,8.8-3.9,8.8-8.8s-3.9-8.8-8.8-8.8h-8.8c-4.8,0-8.8,3.9-8.8,8.8s3.9,8.8,8.8,8.8H306.3z"/>
	<path d="M455,494.4c4.8,0,8.8-3.9,8.8-8.8s-3.9-8.8-8.8-8.8h-8.8c-4.8,0-8.8,3.9-8.8,8.8s3.9,8.8,8.8,8.8H455z"/>
</g>
</svg>
