<?xml version="1.0" encoding="utf-8"?>
<!-- Generator: Adobe Illustrator 23.0.1, SVG Export Plug-In . SVG Version: 6.00 Build 0)  -->
<svg version="1.1" id="Layer_1" xmlns="http://www.w3.org/2000/svg" xmlns:xlink="http://www.w3.org/1999/xlink" x="0px" y="0px"
	 viewBox="0 0 500 500" style="enable-background:new 0 0 500 500;" xml:space="preserve">
<style type="text/css">
	.st0{fill:#7663EA;}
</style>
<g>
	<g>
		<path class="st0" d="M396.99,89.05h-42.61c-2.7,0-4.88,2.19-4.88,4.88s2.19,4.88,4.88,4.88h42.61c2.7,0,4.88-2.19,4.88-4.88
			S399.69,89.05,396.99,89.05z"/>
		<path class="st0" d="M330.18,98.82h5.19c2.7,0,4.88-2.19,4.88-4.88s-2.19-4.88-4.88-4.88h-5.19c-2.7,0-4.88,2.19-4.88,4.88
			S327.48,98.82,330.18,98.82z"/>
		<path class="st0" d="M330.18,121.76h66.81c2.7,0,4.88-2.19,4.88-4.88s-2.19-4.88-4.88-4.88h-66.81c-2.7,0-4.88,2.19-4.88,4.88
			S327.48,121.76,330.18,121.76z"/>
		<path class="st0" d="M347.85,353.97c0-19.51-6.51-38.65-18.38-54.11l0.91-16.67c0.62-11.35-8.39-20.95-19.85-20.95h-53.46
			c-2.46-1.74-3.95-4.56-3.95-7.61V241c8.29-5.36,14.11-11.47,18.38-18.75h9.45c10.93,0,19.83-8.89,19.83-19.83v-36.47
			c0-6.15-3.56-11.59-8.88-14.16v-25.6c0-11.65-9.48-21.13-21.13-21.13h-0.55c-0.33,0-0.6-0.27-0.6-0.6
			c0-11.65-9.48-21.13-21.13-21.13h-51.72c-25.67,0-46.56,20.89-46.56,46.56v21.91c-5.32,2.57-8.88,8.01-8.88,14.16v18.55
			c0,8.68,7.06,15.74,15.74,15.74h6.3c1.63,13.8,8.11,26.41,18.25,35.17c2.38,2.06,4.84,3.89,7.37,5.53v13.69
			c0,3.04-1.5,5.86-3.97,7.61h-53.44c-11.37,0-20.47,9.51-19.85,20.95l0.91,16.67c-11.86,15.46-18.38,34.6-18.38,54.11v18.39
			c-2.43,2.72-3.91,6.31-3.91,10.23c0,8.48,6.9,15.38,15.38,15.38h230.63c8.48,0,15.38-6.9,15.38-15.38c0-3.93-1.48-7.51-3.91-10.23
			L347.85,353.97z M338.08,353.97v13.34c-0.56-0.06-1.13-0.1-1.71-0.1h-10.55l2.76-50.78C334.75,327.91,338.08,340.85,338.08,353.97
			L338.08,353.97z M290.51,163.56c0.32,0.73,0.5,1.54,0.5,2.39v18.55c0,3.29-2.68,5.97-5.97,5.97h-5.81v-18.41l3.01-1.05
			C285.97,169.71,288.9,166.98,290.51,163.56z M257.91,220.15h-12.26c-1.98,0-3.58-1.61-3.58-3.58s1.61-3.58,3.58-3.58h12.26
			c1.98,0,3.58,1.61,3.58,3.58S259.88,220.15,257.91,220.15z M280.95,212.48h-4.94c1.38-3.92,2.32-8.03,2.83-12.25h6.2
			c2.11,0,4.13-0.42,5.97-1.18v3.37C291.02,207.97,286.5,212.48,280.95,212.48z M159.97,129.88c0-20.29,16.51-36.79,36.79-36.79
			h51.72c6.27,0,11.37,5.1,11.37,11.37c0,5.72,4.65,10.37,10.37,10.37h0.55c6.27,0,11.37,5.1,11.37,11.37v31.23
			c0,1.97-1.25,3.72-3.1,4.37l-10.26,3.57c-0.41,0.14-0.84-0.15-0.84-0.6l0.02-19.41c0.06-14.16-13.2-26.52-31.78-20.55
			c-9.35,3-20.91,2.99-30.22,0c-18.39-5.91-31.84,6.22-31.78,20.53l0.02,19.42c0,0.45-0.44,0.74-0.84,0.6l-10.27-3.57
			c-1.86-0.65-3.1-2.4-3.1-4.37L159.97,129.88L159.97,129.88z M151.09,184.5v-18.55c0-0.84,0.18-1.65,0.5-2.39
			c1.62,3.42,4.55,6.15,8.27,7.45l3.01,1.05v18.41h-5.81C153.77,190.47,151.09,187.79,151.09,184.5z M172.73,194.59
			c-0.16-6.42-0.06-13.24-0.09-19.47c0.3,0.03,0.6,0.04,0.9,0.04c5.81,0,10.41-4.72,10.4-10.41l-0.02-19.44
			c-0.03-7.93,7.08-15.05,19.03-11.21c11.32,3.64,24.91,3.63,36.2,0c11.38-3.66,19.06,2.78,19.03,11.22l-0.02,19.42
			c-0.01,6.05,5.17,10.9,11.31,10.37v19.87c-0.14,4.22-0.84,8.34-2.02,12.26c-2.43-2.48-5.81-4.03-9.54-4.03h-12.26
			c-7.36,0-13.35,5.99-13.35,13.35c0,7.36,5.99,13.35,13.35,13.35h6.2c-9.02,7.04-19.28,10.71-30.55,10.9
			C196.65,240.61,173.43,222.4,172.73,194.59L172.73,194.59z M198.75,254.63v-8.55c7.06,2.92,14.59,4.44,22.54,4.49h0.03l0.08,0
			c7.74-0.12,15.07-1.62,21.95-4.45v8.5c0,2.67,0.56,5.25,1.59,7.61h-47.78C198.19,259.88,198.75,257.3,198.75,254.63L198.75,254.63
			z M113.53,316.43l0.77,14.21c0.15,2.69,2.45,4.77,5.14,4.61c2.69-0.15,4.76-2.45,4.61-5.14l-2.58-47.45
			c-0.31-5.77,4.27-10.65,10.09-10.65h178.95c5.78,0,10.41,4.84,10.09,10.65l-4.59,84.55h-76.58c0.93-5.58,3.45-10.83,7.32-15.12
			l0.14-0.16c14.78-16.54,10.36-42.4-8.75-53.26c-4.9-2.79-11.13,0.69-11.13,6.46v22.16c0,1.02-0.83,1.84-1.84,1.84h-8.27
			c-1.02,0-1.84-0.83-1.84-1.84v-22.16c0-5.76-6.22-9.25-11.13-6.46c-19.16,10.89-23.5,36.76-8.73,53.27l0.13,0.14
			c3.87,4.3,6.38,9.55,7.32,15.12h-76.58l-0.78-14.44c-0.15-2.69-2.45-4.76-5.14-4.61c-2.69,0.15-4.76,2.45-4.61,5.14l0.75,13.91
			h-10.55c-0.58,0-1.15,0.04-1.71,0.1v-13.34C104.03,340.85,107.35,327.91,113.53,316.43L113.53,316.43z M212.52,367.21
			c-1-8-4.43-15.56-9.92-21.66l-0.12-0.13c-9.44-10.56-8.17-26.88,2.83-35.88v17.76c0,6.4,5.21,11.61,11.61,11.61h8.27
			c6.4,0,11.61-5.21,11.61-11.61v-17.76c10.93,8.94,12.33,25.25,2.82,35.89l-0.11,0.12c-5.49,6.1-8.92,13.66-9.92,21.66H212.52z
			 M336.37,388.22H105.74c-3.1,0-5.62-2.52-5.62-5.62s2.52-5.62,5.62-5.62h230.63c3.1,0,5.62,2.52,5.62,5.62
			C341.99,385.7,339.47,388.22,336.37,388.22z"/>
		<path class="st0" d="M418.86,98.42c2.7,0,4.88-2.19,4.88-4.88v-9.45c0-10.52-8.56-19.09-19.09-19.09h-82.14
			c-10.52,0-19.09,8.56-19.09,19.09v41.08c0,10.52,8.56,19.09,19.09,19.09c1.88,0,3.41,1.53,3.41,3.41v25.4
			c0,3.67,2.38,6.79,5.91,7.77c3.56,0.98,7.19-0.5,9.07-3.62l18.77-31.31c0.61-1.02,1.73-1.66,2.93-1.66h42.05
			c10.52,0,19.09-8.56,19.09-19.09v-8.8c0-2.7-2.19-4.88-4.88-4.88c-2.7,0-4.88,2.19-4.88,4.88v8.8c0,5.14-4.18,9.32-9.32,9.32
			h-42.05c-4.6,0-8.93,2.45-11.3,6.4l-15.61,26.03v-19.25c0-7.27-5.91-13.18-13.18-13.18c-5.14,0-9.32-4.18-9.32-9.32V84.09
			c0-5.14,4.18-9.32,9.32-9.32h82.14c5.14,0,9.32,4.18,9.32,9.32v9.45C413.97,96.24,416.16,98.42,418.86,98.42L418.86,98.42z"/>
	</g>
</g>
</svg>
