<?xml version="1.0" encoding="utf-8"?>
<!-- Generator: Adobe Illustrator 21.0.0, SVG Export Plug-In . SVG Version: 6.00 Build 0)  -->
<svg version="1.1" id="Capa_1" xmlns="http://www.w3.org/2000/svg" xmlns:xlink="http://www.w3.org/1999/xlink" x="0px" y="0px"
	 viewBox="0 0 512 512" style="enable-background:new 0 0 512 512;" xml:space="preserve">
<style type="text/css">
	.st0{fill:#FF0033;}
</style>
<g>
	<g>
		<g>
			<g>
				<path d="M347,241.4c-0.2-0.3-0.3-0.5-0.5-0.8l-88.6-124.1c-1.9-2.7-5-4.3-8.3-4.3c-3.3,0-6.4,1.6-8.3,4.3l-88.6,124.1
					c-0.2,0.3-0.4,0.5-0.5,0.8c-18.2,31.4-17.9,69.5,0.8,102c20,34.8,57,56.4,96.6,56.4s76.6-21.6,96.6-56.4
					C364.9,310.9,365.2,272.8,347,241.4z M328.6,333.3c-16.4,28.5-46.7,46.2-79,46.2c-32.3,0-62.6-17.7-79-46.2
					c-15.2-26.3-15.5-55.9-1-81.2l80.1-112.2L329.7,252C344.2,277.4,343.8,306.9,328.6,333.3z"/>
			</g>
		</g>
		<g>
			<g>
				<path d="M302.7,279.3c-5.6,0-10.1,4.5-10.1,10.1c0,24.1-19.6,43.6-43.6,43.6c-5.6,0-10.1,4.5-10.1,10.1s4.5,10.1,10.1,10.1
					c35.2,0,63.9-28.7,63.9-63.9C312.8,283.9,308.3,279.3,302.7,279.3z"/>
			</g>
		</g>
	</g>
	<path class="st0" d="M249.6,448c105.9,0,192-86.1,192-192c0-51.3-20-99.6-56.2-135.8C349.1,84,300.9,64,249.6,64
		c-105.9,0-192,86.1-192,192c0,51.3,20,99.6,56.2,135.8C150,428,198.3,448,249.6,448z M249.6,416c-37.4,0-72.8-12.7-101.3-36.1
		l225.2-225.2c23.4,28.5,36.1,63.9,36.1,101.3C409.6,344.2,337.8,416,249.6,416z M249.6,96c37.4,0,72.8,12.7,101.3,36.1L125.7,357.3
		c-23.4-28.5-36.1-63.9-36.1-101.3C89.6,167.8,161.4,96,249.6,96z"/>
</g>
</svg>
