<?xml version="1.0" encoding="utf-8"?>
<!-- Generator: Adobe Illustrator 23.0.1, SVG Export Plug-In . SVG Version: 6.00 Build 0)  -->
<svg version="1.1" id="Layer_1" xmlns="http://www.w3.org/2000/svg" xmlns:xlink="http://www.w3.org/1999/xlink" x="0px" y="0px"
	 viewBox="0 0 500 500" style="enable-background:new 0 0 500 500;" xml:space="preserve">
<style type="text/css">
	.st0{fill:#7663EA;}
</style>
<g>
	<path class="st0" d="M237.81,240.97L255,254.01L390.8,88.57l-16.6-13.05L237.81,240.97z"/>
	<path class="st0" d="M400.29,61.29c-4.74-3.56-11.27-2.97-14.82,1.78l-7.71,8.89l16.6,13.05l7.71-8.89
		C405.62,71.37,405.03,64.84,400.29,61.29L400.29,61.29z"/>
	<path class="st0" d="M220.61,278.92l30.84-21.94l-17.19-12.46L220.61,278.92z"/>
	<path class="st0" d="M381.31,418.27c0,9.49-7.71,17.19-17.19,17.19h-245.5c-9.49,0-17.19-7.71-17.19-17.19l0-316.66
		c0-9.49,7.71-17.19,17.19-17.19h154.77v-5.93H118.61c-13.05,0-23.13,10.67-23.13,23.13v316.66c0,13.05,10.67,23.13,23.13,23.13
		l244.91,0c13.05,0,23.13-10.67,23.13-23.13V239.19h-5.93l0,179.09L381.31,418.27z"/>
	<path class="st0" d="M144.09,326.52l194.5-1.48l0.05,5.93l-194.5,1.48L144.09,326.52z"/>
	<path class="st0" d="M144.09,359.72l194.5-1.48l0.05,5.93l-194.5,1.48L144.09,359.72z"/>
</g>
</svg>
