<?xml version="1.0" encoding="utf-8"?>
<!-- Generator: Adobe Illustrator 21.0.0, SVG Export Plug-In . SVG Version: 6.00 Build 0)  -->
<svg version="1.1" id="Layer_1" xmlns="http://www.w3.org/2000/svg" xmlns:xlink="http://www.w3.org/1999/xlink" x="0px" y="0px"
	 viewBox="0 0 512 512" style="enable-background:new 0 0 512 512;" xml:space="preserve">
<style type="text/css">
	.st0{fill:#FF0033;}
</style>
<g id="gifts-box-bow-gift_box-donation">
	<path class="st0" d="M488,336h-73l21.7-9.3c12.2-5.3,17.8-19.4,12.5-31.6c-1.2-2.8-2.9-5.3-5-7.4l-11.8-11.8
		c-5.6-5.6-13.7-8.1-21.5-6.6c-1.5,0.3-3,0.8-4.4,1.4c-0.6-1.4-1.3-2.8-2.2-4.2c-4.4-6.6-11.9-10.6-19.8-10.6h-16.8
		c-8,0-15.4,4-19.8,10.6c-0.8,1.3-1.6,2.7-2.2,4.2c-1.4-0.6-2.9-1.1-4.4-1.4c-1.7-0.3-3.5-0.4-5.2-0.4V240h24c4.4,0,8-3.6,8-8v-48
		c0-4.4-3.6-8-8-8h-82.6l38.4-7.3c21.7-4.2,36-25.1,31.8-46.8c-0.8-4.4-2.4-8.6-4.6-12.4l-10.9-18.9c-6.5-11.3-18-18.7-31-19.8
		c-12.9-1.3-25.6,3.9-34,13.8l-53.6,62.2l27.1-77.5c7.3-20.9-3.7-43.7-24.6-51c-4.2-1.5-8.7-2.2-13.2-2.2h-21.8
		c-22.1,0-40,17.9-40,40c0,4.5,0.8,9,2.2,13.2l27.1,77.5l-53.6-62.2c-8.4-9.9-21.1-15-34-13.8c-12.9,1.2-24.5,8.6-31,19.8L41,109.4
		c-11,19.2-4.4,43.6,14.8,54.7c3.9,2.2,8.1,3.8,12.4,4.6l38.4,7.3H24c-4.4,0-8,3.6-8,8v48c0,4.4,3.6,8,8,8h24v248c0,4.4,3.6,8,8,8
		h416c4.4,0,8-3.6,8-8v-88h8c4.4,0,8-3.6,8-8v-48C496,339.6,492.4,336,488,336z M361,275.5c1.4-2.2,3.9-3.5,6.6-3.5h16.8
		c4.4,0,8,3.7,7.9,8.1c0,1-0.2,2-0.6,2.9L376,322.5L360.2,283C359.2,280.5,359.5,277.7,361,275.5z M352,192v32H224v-32H352z
		 M158.5,63.9c-4.4-12.5,2.1-26.1,14.6-30.5c2.6-0.9,5.3-1.4,8.1-1.4h21.8c13.2,0,24,10.6,24,23.8c0,2.8-0.5,5.5-1.4,8.1L192,159.8
		L158.5,63.9z M160,480H64V240h96V480z M160,224H32v-32h128V224z M71.3,153c-13.1-2.5-21.6-15.1-19.1-28.2c0.5-2.6,1.4-5.1,2.7-7.4
		l11-18.9c3.8-6.7,10.7-11.2,18.5-11.9c0.8-0.1,1.6-0.1,2.3-0.1c7,0,13.6,3,18.2,8.3l66.2,77L71.3,153z M208,480h-32V240h32V480z
		 M208,224h-32v-32h32V224z M279.2,94.9c4.5-5.3,11.2-8.4,18.2-8.3c0.7,0,1.5,0,2.3,0.1c7.7,0.7,14.6,5.2,18.5,11.9l11,18.9
		c6.6,11.6,2.6,26.3-9,32.9c-2.3,1.3-4.8,2.2-7.4,2.7L213,171.9L279.2,94.9z M272,480h-48V240h96v35.6c-0.1,0.1-0.2,0.2-0.3,0.2
		l-11.8,11.8c-9.4,9.4-9.3,24.7,0.1,34c2.1,2.1,4.7,3.8,7.4,5L337,336h-73c-4.4,0-8,3.6-8,8v48c0,4.4,3.6,8,8,8h8V480z M352,480h-64
		v-80h64V480z M352,384h-80v-32h80V384z M321.7,312c-2.4-1-4.2-3.2-4.7-5.8c-0.5-2.6,0.3-5.3,2.2-7.1l11.8-11.8
		c1.5-1.5,3.5-2.4,5.6-2.4c0.5,0,1,0.1,1.5,0.2c2.6,0.5,4.8,2.3,5.8,4.7l16.8,39.1L321.7,312z M384,480h-16v-80h16V480z M384,384
		h-16v-32h16V384z M408,289.7c1-2.4,3.2-4.2,5.8-4.7c0.5-0.1,1-0.1,1.5-0.2c2.1,0,4.1,0.9,5.6,2.4l11.8,11.8
		c1.9,1.8,2.7,4.5,2.2,7.1c-0.5,2.6-2.3,4.8-4.7,5.8l-39.1,16.8L408,289.7z M464,480h-64v-80h64V480z M480,384h-80v-32h80V384z"/>
</g>
</svg>
