<?xml version="1.0" encoding="utf-8"?>
<!-- Generator: Adobe Illustrator 21.0.0, SVG Export Plug-In . SVG Version: 6.00 Build 0)  -->
<svg version="1.1" id="Layer_1" xmlns="http://www.w3.org/2000/svg" xmlns:xlink="http://www.w3.org/1999/xlink" x="0px" y="0px"
	 viewBox="0 0 512 512" style="enable-background:new 0 0 512 512;" xml:space="preserve">
<path d="M458.4,390.7c7.5-8.8,12.1-20.3,12.1-32.8v-5.4c0-27.9-22.7-50.5-50.5-50.5s-50.5,22.7-50.5,50.5v5.4
	c0,12.5,4.6,23.9,12.1,32.8c-18.5,4.8-34.1,16.7-43.6,32.7c-9.5-16-25.1-28-43.6-32.7c7.5-8.8,12.1-20.3,12.1-32.8v-5.4
	c0-27.9-22.7-50.5-50.5-50.5s-50.5,22.7-50.5,50.5v5.4c0,12.5,4.6,23.9,12.1,32.8c-18.5,4.8-34.1,16.7-43.6,32.7
	c-9.5-16-25.1-28-43.6-32.7c7.5-8.8,12.1-20.3,12.1-32.8v-5.4c0-27.9-22.7-50.5-50.5-50.5s-50.5,22.7-50.5,50.5v5.4
	c0,12.5,4.6,23.9,12.1,32.8C22.8,398.6,0,426.6,0,459.8V502c0,5.5,4.5,10,10,10h492c5.5,0,10-4.5,10-10v-42.2
	C512,426.6,489.2,398.6,458.4,390.7z M389.5,352.5c0-16.8,13.7-30.5,30.5-30.5s30.5,13.7,30.5,30.5v5.4c0,16.8-13.7,30.5-30.5,30.5
	s-30.5-13.7-30.5-30.5V352.5z M225.5,352.5c0-16.8,13.7-30.5,30.5-30.5s30.5,13.7,30.5,30.5v5.4c0,16.8-13.7,30.5-30.5,30.5
	s-30.5-13.7-30.5-30.5V352.5z M61.5,352.5c0-16.8,13.7-30.5,30.5-30.5s30.5,13.7,30.5,30.5v5.4c0,16.8-13.7,30.5-30.5,30.5
	s-30.5-13.7-30.5-30.5V352.5z M20,459.8c0-28.3,23-51.4,51.4-51.4h41.3c28.3,0,51.4,23,51.4,51.4V492H20V459.8z M184,459.8
	c0-28.3,23-51.4,51.4-51.4h41.3c28.3,0,51.4,23,51.4,51.4V492H184V459.8z M492,492H348v-32.2c0-28.3,23-51.4,51.4-51.4h41.3
	c28.3,0,51.4,23,51.4,51.4V492z"/>
<path d="M77.3,200.6l-0.1,55.5c0,3.9,2.2,7.4,5.7,9.1c1.4,0.6,2.8,1,4.3,1c2.3,0,4.5-0.8,6.3-2.3l56.5-46.2h62.5l35.8,44.7
	c2,2.4,4.9,3.9,8.1,3.8c3.1-0.1,6-1.6,7.9-4.2l31.9-44.3h66.2l56.2,46.2c3,2.5,7.1,3,10.6,1.3c3.5-1.7,5.7-5.2,5.7-9v-55.7
	c31-19.9,50.1-54.5,50.1-91.6C485,48.8,436.2,0,376.2,0H135.8C75.8,0,27,48.8,27,108.8C27,146,46.1,180.7,77.3,200.6z M135.8,20
	h240.4c49,0,88.8,39.8,88.8,88.8c0,31.9-17.3,61.5-45,77.3c-3.1,1.8-5.1,5.1-5.1,8.7V235l-42.7-35.1c-1.8-1.5-4-2.3-6.3-2.3H291
	c-3.2,0-6.2,1.6-8.1,4.2l-27.2,37.8l-30.5-38.2c-1.9-2.4-4.8-3.8-7.8-3.8h-70.9c-2.3,0-4.5,0.8-6.3,2.3L97.3,235l0.1-40
	c0-3.6-1.9-7-5.1-8.7C64.3,170.5,47,140.8,47,108.8C47,59.8,86.8,20,135.8,20z"/>
<path d="M376.2,60h0.3h0c5.5,0,10-4.4,10-10c0-5.5-4.4-10-10-10h-0.4c-5.5,0-10,4.5-10,10S370.7,60,376.2,60z"/>
<path d="M408.3,72c10.6,9.3,16.8,22.7,16.8,36.8c0,13.3-5.3,25.8-14.9,35.1c-4,3.8-4.1,10.2-0.2,14.1c2,2,4.6,3,7.2,3
	c2.5,0,5-0.9,6.9-2.8c13.5-13.1,21-30.7,21-49.4c0-19.8-8.6-38.7-23.6-51.8c-4.2-3.6-10.5-3.2-14.1,1S404.1,68.4,408.3,72z"/>
<g>
	<g>
		<path d="M272.1,121.3c-5.6,0-10.5,2.7-13.6,6.9l-26.5-13.5c0.4-1.5,0.7-3.1,0.7-4.8c0-2.2-0.4-4.4-1.2-6.3l27.8-16.7
			c3.1,3.6,7.7,5.9,12.8,5.9c9.3,0,16.9-7.6,16.9-16.9S281.4,59,272.1,59s-16.9,7.6-16.9,16.9c0,2.2,0.4,4.2,1.1,6.1l-27.8,16.7
			c-3.1-3.5-7.6-5.8-12.7-5.8c-9.3,0-16.9,7.6-16.9,16.9s7.6,16.9,16.9,16.9c5.6,0,10.7-2.8,13.7-7.1l26.4,13.5
			c-0.5,1.6-0.8,3.3-0.8,5c0,9.3,7.6,16.9,16.9,16.9s16.9-7.6,16.9-16.9S281.4,121.3,272.1,121.3z M272.1,64.6
			c6.2,0,11.3,5,11.3,11.3s-5,11.3-11.3,11.3s-11.3-5-11.3-11.3S265.9,64.6,272.1,64.6z M215.9,121.1c-6.2,0-11.3-5-11.3-11.3
			s5-11.3,11.3-11.3s11.3,5,11.3,11.3S222.1,121.1,215.9,121.1z M272.1,149.4c-6.2,0-11.3-5-11.3-11.3s5-11.3,11.3-11.3
			s11.3,5,11.3,11.3S278.3,149.4,272.1,149.4z"/>
	</g>
</g>
</svg>
