<?xml version="1.0" encoding="utf-8"?>
<!-- Generator: Adobe Illustrator 21.0.0, SVG Export Plug-In . SVG Version: 6.00 Build 0)  -->
<svg version="1.1" id="Capa_1" xmlns="http://www.w3.org/2000/svg" xmlns:xlink="http://www.w3.org/1999/xlink" x="0px" y="0px"
	 viewBox="0 0 330 330" style="enable-background:new 0 0 330 330;" xml:space="preserve">
<style type="text/css">
	.st0{fill:#FF0033;}
</style>
<g>
	<path class="st0" d="M245.6,84.4c-5.9-5.9-15.4-5.9-21.2,0c-5.9,5.9-5.9,15.4,0,21.2l44.4,44.4H85c-8.3,0-15,6.7-15,15
		s6.7,15,15,15h183.8l-44.4,44.4c-5.9,5.9-5.9,15.4,0,21.2c2.9,2.9,6.8,4.4,10.6,4.4c3.8,0,7.7-1.5,10.6-4.4l70-70
		c5.9-5.9,5.9-15.4,0-21.2L245.6,84.4z"/>
	<path class="st0" d="M155,330c8.3,0,15-6.7,15-15s-6.7-15-15-15H40V30h115c8.3,0,15-6.7,15-15s-6.7-15-15-15H25
		c-8.3,0-15,6.7-15,15v300c0,8.3,6.7,15,15,15H155z"/>
</g>
</svg>
