<?xml version="1.0" encoding="utf-8"?>
<!-- Generator: Adobe Illustrator 21.0.0, SVG Export Plug-In . SVG Version: 6.00 Build 0)  -->
<svg version="1.1" id="Capa_1" xmlns="http://www.w3.org/2000/svg" xmlns:xlink="http://www.w3.org/1999/xlink" x="0px" y="0px"
	 viewBox="0 0 512 512" style="enable-background:new 0 0 512 512;" xml:space="preserve">
<style type="text/css">
	.st0{fill:#FF0033;}
</style>
<g>
	<g>
		<g>
			<g>
				<path d="M169.8,205c-2.8,0-5.1,2.3-5.1,5.1s2.3,5.1,5.1,5.1c2.8,0,5.1-2.3,5.1-5.1S172.6,205,169.8,205z"/>
			</g>
		</g>
		<g>
			<g>
				<path d="M215.5,299.9h-15.2v-15.2c0-2.8-2.3-5.1-5.1-5.1s-5.1,2.3-5.1,5.1v15.2h-15.2c-2.8,0-5.1,2.3-5.1,5.1
					c0,2.8,2.3,5.1,5.1,5.1h15.2v15.2c0,2.8,2.3,5.1,5.1,5.1s5.1-2.3,5.1-5.1v-15.2h15.2c2.8,0,5.1-2.3,5.1-5.1
					C220.6,302.2,218.3,299.9,215.5,299.9z"/>
			</g>
		</g>
		<g>
			<g>
				<path d="M352.6,304.5c-11.2-19.4-36-26.1-55.5-14.9l-20.6,11.9v-44.1c0-5.5-1.8-10.9-5.1-15.2L246,208.4V194
					c5.9-2.1,10.2-7.7,10.2-14.4v-23.4c0-8.4-6.8-15.2-15.2-15.2h-91.4c-8.4,0-15.2,6.8-15.2,15.2v23.4c0,6.6,4.2,12.3,10.2,14.4
					v14.4L119,242.2c-3.3,4.4-5.1,9.8-5.1,15.2v98.3c0,14,11.4,25.4,25.4,25.4H221c11.4,19.1,35.9,25.5,55.2,14.4l61.6-35.5
					C357,348.9,363.9,324.1,352.6,304.5z M144.4,156.2c0-2.8,2.3-5.1,5.1-5.1h91.4c2.8,0,5.1,2.3,5.1,5.1v23.4
					c0,2.8-2.3,5.1-5.1,5.1h-91.4c-2.8,0-5.1-2.3-5.1-5.1L144.4,156.2L144.4,156.2z M127.2,248.3l26.4-35.2c0.7-0.9,1-1.9,1-3v-15.2
					h81.2V205h-45.7c-2.8,0-5.1,2.3-5.1,5.1c0,2.8,2.3,5.1,5.1,5.1h48.2l24.9,33.2c1.6,2.2,2.6,4.8,2.9,7.5h-142
					C124.5,253.1,125.6,250.5,127.2,248.3z M139.4,371c-8.4,0-15.2-6.8-15.2-15.2v-5.1h92.3c-1.6,6.6-1.6,13.6,0.2,20.4L139.4,371
					L139.4,371z M220.4,340.6h-96.2v-74.6h142.2v41.5l-30.8,17.8C229.1,328.9,223.9,334.2,220.4,340.6z M271.1,386.7
					c-14.6,8.4-33.2,3.4-41.6-11.1c-8.5-14.7-3.3-33.3,11.1-41.6l27.6-15.9l30.5,52.8L271.1,386.7z M332.6,351.2l-25.2,14.6L277,313
					l25.2-14.6c14.6-8.4,33.2-3.4,41.6,11.2C352.2,324.2,347.1,342.9,332.6,351.2z"/>
			</g>
		</g>
	</g>
	<path class="st0" d="M236,463c105.9,0,192-86.1,192-192c0-51.3-20-99.6-56.2-135.8C335.5,99,287.3,79,236,79
		C130.1,79,44,165.1,44,271c0,51.3,20,99.6,56.2,135.8C136.4,443,184.7,463,236,463z M236,431c-37.4,0-72.8-12.7-101.3-36.1
		l225.2-225.2C383.3,198.2,396,233.6,396,271C396,359.2,324.2,431,236,431z M236,111c37.4,0,72.8,12.7,101.3,36.1L112.1,372.3
		C88.7,343.8,76,308.4,76,271C76,182.8,147.8,111,236,111z"/>
</g>
</svg>
