<?xml version="1.0" encoding="utf-8"?>
<!-- Generator: Adobe Illustrator 21.0.0, SVG Export Plug-In . SVG Version: 6.00 Build 0)  -->
<svg version="1.1" id="Layer_1" xmlns="http://www.w3.org/2000/svg" xmlns:xlink="http://www.w3.org/1999/xlink" x="0px" y="0px"
	 viewBox="0 0 480 480" style="enable-background:new 0 0 480 480;" xml:space="preserve">
<g>
	<path d="M128,480h224c22.1,0,40-17.9,40-40V40c0-22.1-17.9-40-40-40H128c-22.1,0-40,17.9-40,40v400C88,462.1,105.9,480,128,480z
		 M128,16h224c13.3,0,24,10.7,24,24v8H104v-8C104,26.7,114.7,16,128,16z M104,64h272v352H104V64z M376,432v8c0,13.3-10.7,24-24,24
		H128c-13.3,0-24-10.7-24-24v-8H376z"/>
	<path d="M320,240h-16v-32c0-22.1-17.9-40-40-40h-48c-22.1,0-40,17.9-40,40v32h-16c-8.8,0-16,7.2-16,16v128c0,8.8,7.2,16,16,16h160
		c8.8,0,16-7.2,16-16V256C336,247.2,328.8,240,320,240z M320,384H160V256h104c4.4,0,8-3.6,8-8v-32c0-8.8-7.2-16-16-16h-32
		c-8.8,0-16,7.2-16,16v24h-16v-32c0-13.3,10.7-24,24-24h48c13.3,0,24,10.7,24,24v40c0,4.4,3.6,8,8,8h24V384z M224,240v-24h32v24H224
		z"/>
	<path d="M240,272c-12.6,0-24,7.3-29.2,18.8c-5.2,11.4-3.2,24.9,5.2,34.3v35c0,4.4,3.6,8,8,8h32c4.4,0,8-3.6,8-8v-35
		c8.3-9.4,10.3-22.8,5.2-34.3C264,279.3,252.6,272,240,272z M250.6,315.8c-1.7,1.5-2.6,3.7-2.6,5.9V352h-16v-30.2
		c0-2.3-1-4.4-2.6-5.9c-3.4-3-5.3-7.3-5.4-11.8c0-8.8,7.2-16,16-16s16,7.2,16,16C256,308.5,254,312.8,250.6,315.8z"/>
	<path d="M152,128h32v16h-32V128z"/>
	<path d="M200,128h32v16h-32V128z"/>
	<path d="M248,128h32v16h-32V128z"/>
	<path d="M296,128h32v16h-32V128z"/>
	<path d="M160,120h16v-8h8V96h-8v-8h-16v8h-8v16h8V120z"/>
</g>
</svg>
