<?xml version="1.0" encoding="utf-8"?>
<!-- Generator: Adobe Illustrator 23.0.1, SVG Export Plug-In . SVG Version: 6.00 Build 0)  -->
<svg version="1.1" id="Layer_1" xmlns="http://www.w3.org/2000/svg" xmlns:xlink="http://www.w3.org/1999/xlink" x="0px" y="0px"
	 viewBox="0 0 500 500" style="enable-background:new 0 0 500 500;" xml:space="preserve">
<g>
	<g>
		<path d="M488.6,98.98c0-0.05-0.01-0.11-0.01-0.16c-0.01-0.21-0.02-0.42-0.04-0.63c-0.01-0.08-0.02-0.15-0.04-0.23
			c-0.03-0.19-0.06-0.38-0.11-0.56c-0.02-0.07-0.04-0.14-0.06-0.22c-0.05-0.2-0.12-0.4-0.19-0.59c-0.01-0.04-0.02-0.07-0.04-0.11
			l-19.26-49.31c-1.94-4.97-6.64-8.18-11.98-8.18h-35.07c-3.82,0-6.92,3.1-6.92,6.92s3.1,6.92,6.92,6.92h34.4l15.33,39.24H326.61
			l-9.08-39.24h53.52c3.82,0,6.92-3.1,6.92-6.92s-3.1-6.92-6.92-6.92h-62.23h-69.75H91.03c-5.34,0-10.04,3.21-11.98,8.18
			L59.78,96.49c-0.01,0.04-0.02,0.07-0.04,0.11c-0.07,0.19-0.13,0.39-0.19,0.59c-0.02,0.07-0.04,0.14-0.06,0.22
			c-0.04,0.18-0.08,0.37-0.11,0.56c-0.01,0.08-0.03,0.15-0.04,0.23c-0.02,0.21-0.04,0.41-0.04,0.63c0,0.05-0.01,0.11-0.01,0.16
			c0,0.01,0,0.02,0,0.03V200.7c0,3.82,3.1,6.92,6.92,6.92s6.92-3.1,6.92-6.92v-94.77h146.72v105.21c0,4.11,2.42,7.86,6.18,9.55
			c1.37,0.62,2.84,0.92,4.29,0.92c2.51,0,5-0.9,6.95-2.63l36.66-32.48l36.66,32.48c3.08,2.73,7.49,3.4,11.24,1.71
			c3.75-1.69,6.17-5.44,6.17-9.55V105.93h146.72V416.4c0,4.97-4.04,9.01-9.01,9.01H338.83c0-0.08-0.01-0.16-0.01-0.24
			c-0.01-0.62-0.03-1.24-0.08-1.86c11.92,3.16,24.65-2.97,29.43-14.68c2.51-6.16,2.47-12.93-0.11-19.06
			c-0.24-0.58-0.51-1.14-0.79-1.69c-0.05-0.1-0.1-0.2-0.15-0.3c-0.28-0.53-0.57-1.04-0.88-1.54c-0.06-0.1-0.12-0.19-0.18-0.29
			c-0.33-0.51-0.67-1.02-1.04-1.5c-0.01-0.01-0.01-0.02-0.02-0.03c-0.36-0.48-0.74-0.94-1.14-1.39c-0.07-0.08-0.14-0.17-0.22-0.25
			c-0.39-0.44-0.8-0.86-1.22-1.26c-0.08-0.08-0.17-0.16-0.25-0.23c-0.44-0.41-0.89-0.82-1.36-1.2c-0.02-0.01-0.03-0.02-0.05-0.04
			c-0.46-0.37-0.94-0.72-1.43-1.06c-0.09-0.06-0.18-0.12-0.27-0.18c-0.49-0.33-0.99-0.64-1.51-0.94c-0.04-0.02-0.08-0.05-0.12-0.08
			c2.93-2.53,5.23-5.74,6.74-9.42c2.51-6.16,2.47-12.93-0.11-19.06c-2.26-5.37-6.23-9.68-11.31-12.36
			c-0.73-0.38-1.48-0.73-2.24-1.05l-107.73-43.93l50.15-15.52c11.93-3.69,18.65-16.42,14.98-28.36c-1.37-4.46-4.09-8.22-7.6-10.97
			c-5.22-4.09-12.2-5.94-19.12-4.48c-0.03,0.01-0.07,0.01-0.1,0.02c-0.38,0.09-38.83,8.73-78.98,16.56
			c-1.78,0.35-3.52,0.68-5.23,1.01c-1.37,0.26-2.72,0.52-4.04,0.77c-0.38,0.07-0.76,0.14-1.14,0.22c-2.34,0.44-4.6,0.87-6.81,1.28
			c-0.89,0.16-1.76,0.33-2.63,0.49c-50.42,9.29-64.59,9.46-68.52,8.92l-0.04-0.01c-0.06-0.01-0.12-0.02-0.17-0.03
			c-0.04-0.01-0.08-0.01-0.11-0.02c-0.03,0-0.05-0.01-0.08-0.01c-0.25-0.04-0.44-0.09-0.58-0.14l-1.13-0.46l1.41-3.47
			c1.39-3.41,1.37-7.15-0.06-10.55c-0.36-0.85-0.79-1.65-1.3-2.4c-1.51-2.24-3.65-3.98-6.2-5.02l-37.18-15.16
			c-3.41-1.39-7.15-1.37-10.55,0.06c-3.39,1.43-6.03,4.09-7.42,7.5L4.87,343.51c-2.87,7.04,0.52,15.09,7.56,17.96l37.18,15.16
			c1.7,0.69,3.45,1.02,5.18,1.02c5.44,0,10.6-3.24,12.78-8.58l0.34-0.84l8.57,3.49l0.02,0.01c8.2,3.34,15.75,8.11,22.29,14.03
			c1.19,1.08,2.34,2.19,3.46,3.34c1.12,1.15,2.2,2.34,3.25,3.56c0.52,0.61,1.04,1.23,1.54,1.86c9.53,11.88,22.02,21.2,36.12,26.95
			l9.64,3.93H82.16c-4.97,0-9.01-4.04-9.01-9.01v-17.51c0-3.82-3.1-6.92-6.92-6.92c-3.82,0-6.92,3.1-6.92,6.92v17.51
			c0,12.6,10.25,22.85,22.85,22.85h104.59l89.17,36.36c3.07,1.25,6.24,1.85,9.37,1.84c9.83,0,19.16-5.86,23.09-15.5
			c1.61-3.96,2.13-8.09,1.7-12.07c4.64,0.67,9.45,0.05,13.81-1.83c4.43-1.91,8.1-4.96,10.71-8.81h131.15
			c12.6,0,22.85-10.25,22.85-22.85V99.01C488.6,99,488.6,98.99,488.6,98.98z M244.58,52.84h58.74l9.08,39.24h-76.9L244.58,52.84z
			 M221.29,92.09H76.37L91.7,52.84h138.68L221.29,92.09z M314.19,203.66L314.19,203.66l-33.29-29.49c-1.98-1.75-4.46-2.63-6.94-2.63
			c-2.48,0-4.97,0.88-6.95,2.63l-33.29,29.49v-97.72h80.47V203.66z M54.77,363.78l-37.06-15.11L63.13,237.3l37.06,15.11
			L54.77,363.78z M331.31,405.56l-7.94-3.24l-0.01,0l-0.01,0l0,0l-82.73-33.73c-3.54-1.44-7.58,0.26-9.02,3.8
			c-1.44,3.54,0.26,7.58,3.8,9.02l82.74,33.74c0.35,0.14,0.68,0.3,1,0.47c0.09,0.05,0.18,0.11,0.26,0.16
			c0.23,0.13,0.46,0.26,0.67,0.4c0.1,0.07,0.2,0.15,0.3,0.22c0.19,0.14,0.38,0.27,0.56,0.42c0.11,0.09,0.21,0.19,0.31,0.28
			c0.16,0.14,0.33,0.28,0.48,0.43c0.11,0.1,0.2,0.22,0.3,0.33c0.14,0.15,0.28,0.3,0.41,0.45c0.1,0.12,0.19,0.25,0.28,0.37
			c0.12,0.16,0.24,0.31,0.35,0.47c0.09,0.13,0.17,0.28,0.26,0.41c0.1,0.16,0.2,0.32,0.29,0.48c0.08,0.15,0.15,0.3,0.22,0.45
			c0.08,0.16,0.17,0.32,0.24,0.49c0.07,0.16,0.12,0.32,0.19,0.49c0.06,0.16,0.13,0.32,0.19,0.49c0.05,0.17,0.1,0.34,0.14,0.51
			c0.05,0.17,0.1,0.33,0.14,0.5c0.04,0.17,0.06,0.35,0.09,0.52c0.03,0.17,0.07,0.34,0.09,0.52s0.03,0.35,0.05,0.53
			c0.01,0.18,0.04,0.35,0.04,0.53c0.01,0.17,0,0.35,0,0.52c0,0.18,0,0.36-0.01,0.54c-0.01,0.17-0.04,0.34-0.05,0.51
			c-0.02,0.18-0.04,0.37-0.07,0.55c-0.03,0.17-0.07,0.34-0.11,0.5c-0.04,0.19-0.07,0.37-0.12,0.56c-0.04,0.16-0.1,0.33-0.15,0.49
			c-0.06,0.19-0.11,0.37-0.18,0.55c-0.06,0.13-0.12,0.25-0.17,0.38c-0.01,0.03-0.02,0.06-0.03,0.09c-1.08,2.5-3.08,4.48-5.68,5.61
			c-2.87,1.24-6.15,1.28-9.01,0.11l-14.66-5.98c-0.07-0.03-0.14-0.05-0.21-0.07c-0.07-0.03-0.13-0.07-0.2-0.1l-67.29-27.44
			c-3.54-1.44-7.58,0.26-9.02,3.8c-1.44,3.54,0.26,7.58,3.8,9.02l67.29,27.44c0.07,0.03,0.14,0.05,0.22,0.08
			c0.07,0.03,0.13,0.06,0.19,0.09c5.65,2.3,8.37,8.77,6.07,14.42c-2.3,5.65-8.77,8.37-14.42,6.07l-90.41-36.87c0,0-0.01,0-0.01,0
			l-42.34-17.27c-7.45-3.04-14.37-7.26-20.48-12.45c-3.67-3.11-7.04-6.58-10.06-10.34c-2.98-3.71-6.24-7.17-9.76-10.36
			c-7.73-7-16.67-12.64-26.36-16.59l0,0l-8.58-3.5l17.1-41.93l16.16-39.62l1.19,0.49c1.12,0.46,2.72,1.11,7.03,1.27
			c5.38,0.24,14.28-0.32,30.22-2.57c10.85-1.53,24.15-3.75,39.68-6.6c0.38-0.07,0.76-0.14,1.15-0.21c0.73-0.13,1.46-0.27,2.2-0.41
			c0.57-0.11,1.15-0.21,1.73-0.32c0.66-0.12,1.32-0.25,1.99-0.37c0.71-0.13,1.43-0.27,2.15-0.41c0.58-0.11,1.15-0.22,1.74-0.33
			c0.88-0.17,1.77-0.34,2.67-0.51c0.46-0.09,0.92-0.18,1.39-0.27c1.37-0.27,2.77-0.53,4.19-0.81c40.01-7.78,78.63-16.44,80.37-16.83
			c0.17-0.04,0.35-0.06,0.52-0.08c4.45-0.66,8.8,1.91,10.08,6.06c0.45,1.46,0.5,2.95,0.22,4.34c-0.62,3.08-2.86,5.74-6.06,6.73
			l-68.62,21.24c-2.79,0.87-4.74,3.39-4.87,6.31c-0.13,2.92,1.59,5.61,4.3,6.71l125.64,51.23c2.74,1.12,4.87,3.23,6.02,5.95
			c1.15,2.72,1.16,5.73,0.05,8.47c-1.12,2.74-3.23,4.87-5.95,6.02c-1.36,0.57-2.79,0.86-4.23,0.87c0,0-0.04,0-0.06,0
			c-0.34,0-0.67-0.01-1.01-0.04c-0.1-0.01-0.2-0.03-0.3-0.04c-0.26-0.03-0.51-0.06-0.77-0.11c-0.16-0.03-0.32-0.08-0.48-0.12
			c-0.19-0.05-0.38-0.08-0.57-0.14c-0.2-0.06-0.39-0.13-0.58-0.2c-0.15-0.05-0.31-0.1-0.46-0.16l-82.74-33.74
			c-3.54-1.44-7.58,0.26-9.02,3.8c-1.44,3.54,0.26,7.58,3.8,9.02l100.32,40.9c0.68,0.28,1.33,0.62,1.93,1.02
			c1.81,1.19,3.23,2.89,4.09,4.94c1,2.38,1.14,4.98,0.41,7.43c-0.1,0.35-0.23,0.7-0.37,1.04c-0.14,0.35-0.3,0.69-0.48,1.02
			c-0.41,0.77-0.91,1.46-1.46,2.09c-0.34,0.39-0.71,0.76-1.1,1.09c-0.06,0.05-0.12,0.11-0.18,0.16c-2.53,2.07-5.9,2.95-9.2,2.29
			c-0.67-0.14-1.33-0.33-1.99-0.59L331.31,405.56z"/>
	</g>
</g>
</svg>
