<?xml version="1.0" encoding="utf-8"?>
<!-- Generator: Adobe Illustrator 23.0.1, SVG Export Plug-In . SVG Version: 6.00 Build 0)  -->
<svg version="1.1" id="Layer_1" xmlns="http://www.w3.org/2000/svg" xmlns:xlink="http://www.w3.org/1999/xlink" x="0px" y="0px"
	 viewBox="0 0 700 700" style="enable-background:new 0 0 700 700;" xml:space="preserve">
<g>
	<path d="M350,30.8c-137.4,0-249.2,111.8-249.2,249.2S212.6,529.2,350,529.2S599.2,417.4,599.2,280S487.4,30.8,350,30.8L350,30.8z
		 M350,501.2c-122,0-221.2-99.2-221.2-221.2S228,58.8,350,58.8S571.2,158,571.2,280S472,501.2,350,501.2z M364,274V105.5
		c0-7.7-6.3-14-14-14s-14,6.3-14,14V280c0,3.8,1.6,7.5,4.3,10.1l96.1,92.4c2.7,2.6,6.2,3.9,9.7,3.9c3.7,0,7.3-1.4,10.1-4.3
		c5.4-5.6,5.2-14.4-0.4-19.8L364,274z"/>
</g>
</svg>
