<?xml version="1.0" encoding="utf-8"?>
<!-- Generator: Adobe Illustrator 23.0.1, SVG Export Plug-In . SVG Version: 6.00 Build 0)  -->
<svg version="1.1" id="Layer_1" xmlns="http://www.w3.org/2000/svg" xmlns:xlink="http://www.w3.org/1999/xlink" x="0px" y="0px"
	 viewBox="0 0 700 700" style="enable-background:new 0 0 700 700;" xml:space="preserve">
<g>
	<path d="M350,0c154.6,0,280,125.4,280,280S504.6,560,350,560S70,434.6,70,280S195.4,0,350,0z M350,56c-123.7,0-224,100.3-224,224
		s100.3,224,224,224s224-100.3,224-224S473.7,56,350,56z M476.3,186.3l2.4,2.2c10.2,10.2,10.9,26.2,2.2,37.2l-2.2,2.4L340.1,366.7
		c-10.2,10.2-26.2,10.9-37.2,2.2l-2.4-2.2l-79.2-79.2c-10.9-10.9-10.9-28.7,0-39.6c10.2-10.2,26.2-10.9,37.2-2.2l2.4,2.2l59.4,59.4
		l118.8-118.8C449.3,178.3,465.3,177.6,476.3,186.3L476.3,186.3z"/>
</g>
</svg>
