<?xml version="1.0" encoding="utf-8"?>
<!-- Generator: Adobe Illustrator 23.0.1, SVG Export Plug-In . SVG Version: 6.00 Build 0)  -->
<svg version="1.1" id="Layer_1" xmlns="http://www.w3.org/2000/svg" xmlns:xlink="http://www.w3.org/1999/xlink" x="0px" y="0px"
	 viewBox="0 0 700 700" style="enable-background:new 0 0 700 700;" xml:space="preserve">
<g>
	<path d="M589.1,313.6c-16.2-20.2-61.6-9.5-75.6-2.2c-9.5,5-18.5,9.5-26.9,14c-29.1,15.7-52.1,28.6-86.8,33.6
		c-7.8-9.5-26.9-29.1-74.5-73.9c-1.7-1.7-4.5-2.8-7.3-2.8l-203.8,0c-5.6,0-10.6,4.5-10.6,10.6v154c0,5.6,4.5,10.6,10.6,10.6h105.3
		c5.6,0,10.6-4.5,10.6-10.6v-5.6h26.3l84,40.3c3.4,2.8,10.6,6.7,22.4,6.7c11.2,0,26.3-3.9,45.9-16.2
		C448,446.3,585.2,364.6,586.3,364c1.1-0.6,1.7-1.1,2.2-2.2C596.4,353.9,605.4,333.2,589.1,313.6L589.1,313.6z M164.6,436.8h-40.3
		V303.5h40.3V436.8z M208.9,436.8h-23l0-133.3h23L208.9,436.8z M574,347.2c-16.2,9.5-139.4,82.9-177.5,107.5
		c-16.2,10.6-27.4,12.9-34.2,12.9c-6.2,0-9-2.2-9-2.2c-1.1-1.1-1.7-1.7-2.8-2.2l-87.9-42c-1.1-0.6-2.8-1.1-4.5-1.1h-28.6l0-116.5
		h84.6c31.4,29.1,64.4,62.2,70.6,70c0.6,2.2,1.7,5,2.8,7.8c5.6,12.9,6.2,17.9,1.1,21.8c-10.6,7.8-23.5,1.7-26.3,0l-43.7-40.3
		c-4.5-3.9-10.6-3.4-14.6,0.6c-3.9,4.5-3.4,10.6,0.6,14.6l44.8,41.4c0.6,0.6,1.1,0.6,1.7,1.1c0.6,0.6,12.3,7.3,26.3,7.3
		c7.3,0,15.7-1.7,24.1-7.8c16.8-12.3,12.9-29.7,8.4-40.9c35.3-6.2,59.4-19.6,87.4-34.7c8.4-4.5,16.8-9,26.3-14
		c12.9-6.7,44.2-10.6,50.4-3.4C580.2,336,576.2,343.8,574,347.2L574,347.2z"/>
	<path d="M449.7,179.8c7.3-6.7,11.8-16.8,11.8-26.9c0-20.2-16.2-36.4-36.4-36.4s-36.4,16.2-36.4,36.4c0,10.6,4.5,20.7,12.3,27.4
		c-21.3,9.5-34.7,30.8-34.7,54.3c0,3.9,3.4,7.3,7.3,7.3h105.3c3.9,0,7.3-3.4,7.3-7.3C485.5,210.6,471,189.3,449.7,179.8L449.7,179.8
		z M380.8,226.8c3.4-21.3,21.3-37.5,43.7-38.1h0.6h0.6c21.8,0,40.9,16.8,44.2,38.1H380.8z M425,130.5c12.3,0,21.8,10.1,21.8,21.8
		s-9.5,21.3-21.3,21.8h-1.1h-0.6c-12.3-0.6-21.8-10.1-21.8-21.8C403.2,140.6,412.7,130.5,425,130.5L425,130.5z"/>
	<path d="M426.2,73.4c-61.6,0-112,49.8-112,112c0,61.6,49.8,111.4,112,111.4s112-49.8,112-111.4C538.2,123.8,487.8,73.4,426.2,73.4
		L426.2,73.4z M426.2,281.7c-53.2,0-96.3-43.1-96.3-96.3S373,89,426.2,89s96.3,43.1,96.3,96.3C522.5,238,479.4,281.7,426.2,281.7
		L426.2,281.7z"/>
</g>
</svg>
