<?xml version="1.0" encoding="utf-8"?>
<!-- Generator: Adobe Illustrator 23.0.1, SVG Export Plug-In . SVG Version: 6.00 Build 0)  -->
<svg version="1.1" id="Layer_1" xmlns="http://www.w3.org/2000/svg" xmlns:xlink="http://www.w3.org/1999/xlink" x="0px" y="0px"
	 viewBox="0 0 700 700" style="enable-background:new 0 0 700 700;" xml:space="preserve">
<g>
	<path d="M523.1,106.9H176.9c-16.8,0-30.5,13.7-30.5,30.5v193.4c0,16.8,13.7,30.5,30.5,30.5h157.8l137.5,91.6l-20.4-91.6h71.3
		c16.8,0,30.5-13.7,30.5-30.5V137.4C553.6,120.6,539.9,106.9,523.1,106.9L523.1,106.9z M543.5,330.9c0,11.2-9.1,20.4-20.4,20.4h-84
		l2.8,12.4l14.9,66.9l-118.9-79.3H176.9c-11.2,0-20.4-9.1-20.4-20.4V137.4c0-11.2,9.1-20.4,20.4-20.4h346.2
		c11.2,0,20.4,9.1,20.4,20.4L543.5,330.9z"/>
	<path d="M350,203.6c-16.9,0-30.5,13.7-30.5,30.5s13.7,30.5,30.5,30.5s30.5-13.7,30.5-30.5C380.5,217.3,366.9,203.6,350,203.6
		L350,203.6z M350,254.5c-11.2,0-20.4-9.1-20.4-20.4c0-11.2,9.1-20.4,20.4-20.4s20.4,9.1,20.4,20.4
		C370.4,245.4,361.2,254.5,350,254.5z"/>
	<path d="M238,203.6c-16.9,0-30.5,13.7-30.5,30.5s13.7,30.5,30.5,30.5s30.5-13.7,30.5-30.5C268.5,217.3,254.9,203.6,238,203.6
		L238,203.6z M238,254.5c-11.2,0-20.4-9.1-20.4-20.4c0-11.2,9.1-20.4,20.4-20.4s20.4,9.1,20.4,20.4
		C258.4,245.4,249.2,254.5,238,254.5z"/>
	<path d="M462,203.6c-16.9,0-30.5,13.7-30.5,30.5s13.7,30.5,30.5,30.5s30.5-13.7,30.5-30.5C492.5,217.3,478.9,203.6,462,203.6
		L462,203.6z M462,254.5c-11.2,0-20.4-9.1-20.4-20.4c0-11.2,9.1-20.4,20.4-20.4s20.4,9.1,20.4,20.4
		C482.4,245.4,473.2,254.5,462,254.5z"/>
</g>
</svg>
