<?xml version="1.0" encoding="utf-8"?>
<!-- Generator: Adobe Illustrator 23.0.1, SVG Export Plug-In . SVG Version: 6.00 Build 0)  -->
<svg version="1.1" id="Layer_1" xmlns="http://www.w3.org/2000/svg" xmlns:xlink="http://www.w3.org/1999/xlink" x="0px" y="0px"
	 viewBox="0 0 700 700" style="enable-background:new 0 0 700 700;" xml:space="preserve">
<g>
	<path d="M291.9,437.5H157.5V35H490v37.3c0,4.8,3.9,8.8,8.8,8.8s8.8-3.9,8.8-8.8v-46c0-2.3-0.9-4.5-2.6-6.2s-3.9-2.6-6.2-2.6h-350
		c-4.8,0-8.8,3.9-8.8,8.8v420c0,2.3,0.9,4.5,2.6,6.2s3.9,2.6,6.2,2.6h143.1c4.8,0,8.8-3.9,8.8-8.8S296.7,437.5,291.9,437.5z"/>
	<path d="M490,277.7v11.6v0c0,4.8,3.9,8.8,8.8,8.8s8.8-3.9,8.8-8.8v-11.5c0-4.8-3.9-8.8-8.8-8.8S490,272.9,490,277.7L490,277.7z"/>
	<path d="M437.5,297.5c-26,0-51.3,8.3-72.2,23.7c-2,1.3-3.4,3.4-3.9,5.8s0.1,4.8,1.5,6.8c1.4,1.9,3.6,3.2,6,3.5
		c2.4,0.3,4.8-0.4,6.7-2c17.9-13.2,39.6-20.3,61.9-20.3c27.8,0,54.6,11.1,74.2,30.8c19.7,19.7,30.8,46.4,30.8,74.2
		s-11.1,54.6-30.8,74.2c-19.7,19.7-46.4,30.8-74.2,30.8s-54.6-11.1-74.2-30.8s-30.8-46.4-30.8-74.2c0-22.3,7.1-43.9,20.3-61.9
		c1.5-1.9,2.3-4.3,2-6.7c-0.3-2.4-1.6-4.6-3.5-6c-1.9-1.4-4.4-2-6.8-1.5s-4.5,1.8-5.8,3.9c-21.8,29.9-28.9,68-19.4,103.7
		s34.7,65.3,68.5,80.3c33.8,15.1,72.5,14.1,105.5-2.7c33-16.8,56.6-47.6,64.2-83.7c7.7-36.2-1.4-73.9-24.7-102.6
		S474.5,297.4,437.5,297.5L437.5,297.5z"/>
	<path d="M394.2,464.2c-3,3.5-2.8,8.6,0.5,11.9c3.2,3.2,8.4,3.4,11.9,0.5c8.2-8.2,19.4-12.9,31-12.9s22.8,4.6,31,12.9
		c1.6,1.6,3.8,2.6,6.1,2.6c3.6,0.2,7-1.9,8.5-5.2c1.5-3.3,0.7-7.2-1.8-9.8c-11.5-11.5-27.1-17.9-43.3-17.9s-31.8,6.5-43.3,17.9
		L394.2,464.2z"/>
	<path d="M497.8,372.3c-2.2-4.3-7.4-6-11.7-3.9l-35,17.5c-4.3,2.2-6,7.4-3.9,11.7c1.5,2.9,4.5,4.8,7.8,4.8c1.4,0,2.7-0.3,3.9-1
		l35-17.5C498.2,381.9,499.9,376.6,497.8,372.3L497.8,372.3z"/>
	<path d="M490,411.3c0,4.8-3.9,8.8-8.8,8.8s-8.8-3.9-8.8-8.8s3.9-8.8,8.8-8.8S490,406.4,490,411.3"/>
	<path d="M423.9,386l-35-17.5c-2.1-1.3-4.6-1.6-6.9-0.9c-2.3,0.7-4.3,2.3-5.4,4.5c-1.1,2.2-1.2,4.7-0.4,7s2.6,4.1,4.8,5l35,17.5
		c1.2,0.6,2.6,1,3.9,1c3.3,0,6.3-1.9,7.8-4.8C430,393.4,428.2,388.1,423.9,386L423.9,386z"/>
	<path d="M402.5,411.3c0,4.8-3.9,8.8-8.8,8.8s-8.8-3.9-8.8-8.8s3.9-8.8,8.8-8.8S402.5,406.4,402.5,411.3"/>
	<path d="M420,105c0-2.3-0.9-4.5-2.6-6.2s-3.9-2.6-6.2-2.6H245V78.7h166.3c4.8,0,8.8-3.9,8.8-8.8s-3.9-8.8-8.8-8.8h-175
		c-4.8,0-8.8,3.9-8.8,8.8v35c0,2.3,0.9,4.5,2.6,6.2s3.9,2.6,6.2,2.6h175c2.3,0,4.5-0.9,6.2-2.6S420,107.3,420,105z"/>
	<path d="M376.3,157.5c4.8,0,8.8-3.9,8.8-8.8s-3.9-8.8-8.8-8.8H262.5c-4.8,0-8.8,3.9-8.8,8.8s3.9,8.8,8.8,8.8H376.3z"/>
	<path d="M201.3,192.5c0,2.3,0.9,4.5,2.6,6.2s3.9,2.6,6.2,2.6h166.3c4.8,0,8.8-3.9,8.8-8.8s-3.9-8.8-8.8-8.8H210
		C205.2,183.7,201.3,187.7,201.3,192.5z"/>
	<path d="M402.5,236.2c0-2.3-0.9-4.5-2.6-6.2s-3.9-2.6-6.2-2.6H210c-4.8,0-8.8,3.9-8.8,8.8s3.9,8.8,8.8,8.8h183.8
		c2.3,0,4.5-0.9,6.2-2.6S402.5,238.6,402.5,236.2z"/>
	<path d="M210,271.3c-4.8,0-8.8,3.9-8.8,8.8s3.9,8.8,8.8,8.8h157.5c4.8,0,8.8-3.9,8.8-8.8s-3.9-8.8-8.8-8.8H210z"/>
	<path d="M306.3,315H210c-4.8,0-8.8,3.9-8.8,8.8s3.9,8.8,8.8,8.8h96.3c4.8,0,8.8-3.9,8.8-8.8S311.1,315,306.3,315z"/>
	<path d="M288.8,376.3c4.8,0,8.8-3.9,8.8-8.8s-3.9-8.8-8.8-8.8H210c-4.8,0-8.8,3.9-8.8,8.8s3.9,8.8,8.8,8.8H288.8z"/>
	<path d="M402.5,175c0,20.9,8.3,40.9,23.1,55.7c14.8,14.8,34.8,23.1,55.7,23.1s40.9-8.3,55.7-23.1c14.8-14.8,23.1-34.8,23.1-55.7
		s-8.3-40.9-23.1-55.7c-14.8-14.8-34.8-23.1-55.7-23.1s-40.9,8.3-55.7,23.1C410.8,134.1,402.5,154.1,402.5,175L402.5,175z
		 M542.5,175c0,16.2-6.5,31.8-17.9,43.3c-11.5,11.5-27.1,17.9-43.3,17.9s-31.8-6.5-43.3-17.9C426.5,206.8,420,191.2,420,175
		s6.5-31.8,17.9-43.3c11.5-11.5,27.1-17.9,43.3-17.9s31.8,6.5,43.3,17.9C536,143.2,542.5,158.8,542.5,175z"/>
	<path d="M462.7,144c-3.4-3.4-9-3.4-12.4,0c-3.4,3.4-3.4,9,0,12.4l18.6,18.6l-18.6,18.6h0c-1.7,1.6-2.6,3.9-2.6,6.2s0.9,4.6,2.6,6.2
		c1.7,1.6,3.9,2.6,6.2,2.5c2.3,0,4.6-0.9,6.2-2.5l18.6-18.6l18.6,18.6v0c1.7,1.6,3.9,2.6,6.2,2.5c2.3,0,4.6-0.9,6.2-2.5
		c1.7-1.6,2.6-3.9,2.6-6.2s-0.9-4.6-2.6-6.2L493.6,175l18.6-18.6h0c3.4-3.4,3.4-9,0-12.4c-3.4-3.4-9-3.4-12.4,0l-18.6,18.6
		L462.7,144z"/>
</g>
</svg>
