<?xml version="1.0" encoding="utf-8"?>
<!-- Generator: Adobe Illustrator 23.0.1, SVG Export Plug-In . SVG Version: 6.00 Build 0)  -->
<svg version="1.1" id="Layer_1" xmlns="http://www.w3.org/2000/svg" xmlns:xlink="http://www.w3.org/1999/xlink" x="0px" y="0px"
	 viewBox="0 0 700 700" style="enable-background:new 0 0 700 700;" xml:space="preserve">
<g>
	<path d="M469.7,228.6c17.1-11.1,29-28.2,33.3-48.1v0c4.3-20,0.5-40.4-10.6-57.6c-3.4-5.1-7.4-9.9-12-14.3
		c-4.2-3.8-8.6-7.1-13.1-9.8c-9.2-5.5-19.8-9-30.7-10.2c-17-1.9-33.6,1.8-47.9,10.6l-2.1,1.3c-9.3,6-17,13.8-22.9,23.2l-1.1,1.8
		c-6,10-9.6,21.5-10.4,33c-0.9,11.3,0.8,23,4.9,33.6c1.8,4.8,4.2,9.5,7.1,13.9c6.5,10,14.9,18.2,25.1,24.2
		c12.2,7.2,25.6,10.8,39.1,10.8C442.6,241,457,236.9,469.7,228.6L469.7,228.6z M373.4,199.9c-2.4-3.8-4.5-7.7-6-11.8
		c-3.5-9.1-5-19-4.2-28.7c0.7-9.9,3.8-19.6,8.8-28.1l1-1.6c5.1-8,11.6-14.7,19.4-19.6l2.1-1.3c10.1-6.3,21.6-9.5,33.4-9.5
		c2.5,0,5,0.1,7.5,0.4c9.3,1,18.3,4,26.2,8.7c3.8,2.3,7.6,5.1,11.2,8.4c3.9,3.7,7.4,7.9,10.3,12.2c9.5,14.7,12.7,32.1,9.1,49.1
		c-3.7,17-13.8,31.6-28.4,41.1c-20.9,13.6-47.3,14.1-68.8,1.4C386.1,215.5,378.9,208.5,373.4,199.9L373.4,199.9z"/>
	<path d="M406.8,123.6c0.7,0,1.5-0.1,2.2-0.4c1.4-0.6,2.8-1.1,4.3-1.6c3-0.9,4.6-4,3.7-7c-0.9-3-4-4.6-7-3.7c-1.8,0.6-3.6,1.2-5.4,2
		c-2.8,1.2-4.2,4.5-3,7.3C402.5,122.3,404.6,123.6,406.8,123.6L406.8,123.6z"/>
	<path d="M432,215.3c0-3.1-2.5-5.6-5.6-5.6c-24.8,0-45-20.2-45-45.1c0-12.5,5.3-24.6,14.5-33.1c2.3-2.1,2.4-5.6,0.3-7.9
		c-2.1-2.3-5.6-2.4-7.9-0.3c-11.5,10.6-18.1,25.7-18.1,41.3c0,31,25.2,56.3,56.2,56.3C429.5,220.9,432,218.4,432,215.3L432,215.3z"
		/>
	<path d="M573.1,332.7l-35.4-54.6l1.6-1.4c2.4-2.1,3.8-5.2,3.7-8.4c0-3.2-1.4-6.3-3.9-8.3c-0.3-0.3-0.6-0.5-1-0.7l-36-19.4
		c-1.6-0.9-3.4-0.8-4.9-0.1l-3.4-5.2c-0.1-0.1-0.2-0.1-0.2-0.2c33.3-31.1,40.2-82.9,14.9-121.8c-4.1-6.4-9.1-12.4-14.9-17.9
		c-14.8-14-34.3-22.9-54.9-25.3c-21.2-2.4-42.1,2.3-60.2,13.3c-0.8,0.5-1.7,1-2.5,1.5c-0.2,0.1-0.3,0.2-0.5,0.3
		c-11.5,7.5-21,17.2-28.3,28.7c-0.6,0.9-1.1,1.7-1.4,2.3c-7.5,12.5-12,26.9-13.1,41.4c-1.1,14.5,0.9,28.6,6.2,41.9
		c2.4,6.3,5.4,12.2,8.9,17.6c6.2,9.6,13.9,17.8,22.9,24.6h-91.3c-1.1,0-2.3,0.3-3.2,1l-78.1,54.1h-10.5c-1.3,0-2.5,0.4-3.5,1.2
		l-54.9,43.5c-0.2,0.1-0.3,0.3-0.5,0.4c-2.7,2.7-3.5,6.6-2.2,10.2c1.3,3.6,4.5,6,8.1,6.2l58.8,6.9V428c0,11.2,7.9,20.9,18.8,23.1
		l182.1,39.9c0.4,0.1,0.8,0.1,1.2,0.1c0.7,0,1.4-0.2,2-0.4c0.2-0.1,0.4-0.2,0.6-0.3c0.3-0.2,0.6-0.3,0.9-0.5
		c0.1-0.1,0.1-0.2,0.2-0.3c0.1-0.1,0.2-0.1,0.3-0.2l81-86.6c7.9-8.3,12.2-19.3,12.2-30.9v-52.6l29.8,46c0.8,1.2,2.1,2.1,3.5,2.4
		c0.4,0.1,0.8,0.1,1.2,0.1c1.1,0,2.1-0.3,3-0.9l41-26.6C574.1,338.8,574.8,335.3,573.1,332.7L573.1,332.7z M531.5,268.6l-0.2-0.3
		l0.3,0.2L531.5,268.6z M496.6,259.2l-9.7,6.3l-11.5-17.7c1.6-0.9,3.3-1.9,4.9-2.9c1.9-1.2,3.4-2.3,4.8-3.4L496.6,259.2z
		 M483.7,310.3c0,0-0.1,0-0.1,0.1l-33.8,29.4l-45.5-38.1l52.9-45.9c2.7-0.9,5.4-1.9,8.1-3c0.1,0.1,0.1,0.2,0.1,0.3l12.9,20
		c-1.6,2.3-2.7,4.8-3.3,7.6c-1.2,5.5-0.1,11.2,3,15.9l7.8,12L483.7,310.3z M357.2,210.4c-3.1-4.7-5.7-9.9-7.8-15.4
		c-4.6-11.8-6.4-24.2-5.4-37c1-12.8,5-25.5,11.7-36.7c0.3-0.5,0.6-1.1,1.1-1.8c6.6-10.4,15.1-19,25.4-25.7c0.2-0.1,0.4-0.3,0.5-0.4
		c0.5-0.3,1.1-0.6,1.7-1c16.1-9.8,34.5-13.9,53.2-11.8c18.2,2,35.4,10,48.5,22.3c5.2,4.9,9.6,10.2,13.2,15.8c0,0,0,0,0,0
		c23.8,36.7,15.3,86.3-19.6,113c-1.5,1.2-3.2,2.4-5.5,3.9c-6.8,4.4-14,7.7-21.5,9.9c-19.6,6-40.6,4.6-59.3-3.9
		C378.6,234.9,366.1,224.2,357.2,210.4L357.2,210.4z M281.1,252.3h108.9c12.1,5.3,25.1,8,38.1,8c2.3,0,4.6-0.1,7-0.3l-41.7,36.2
		H217.8L281.1,252.3z M189.6,307.4h194l-40.8,49.1L332,369.4L139.6,347L189.6,307.4z M204.7,428v-61.3l129.1,14.2c0,0,0,0,0,0
		c0.2,0,0.4,0,0.6,0c0.1,0,0.1,0,0.2,0c0.8,0,1.5-0.2,2.1-0.5c0,0,0.1,0,0.1-0.1c0.7-0.3,1.4-0.8,1.9-1.4l51.3-61.6v161.4
		l-175.3-38.5C208.9,439,204.7,433.9,204.7,428L204.7,428z M472.5,395.2l-71.3,76.3V313.6l45.2,37.8c0.5,0.4,1.1,0.8,1.7,1
		c0.3,0.1,0.5,0.1,0.8,0.1c0.4,0.1,0.7,0.2,1.1,0.2c0,0,0,0,0,0c0.5,0,1-0.1,1.5-0.3c0.1,0,0.3,0,0.4-0.1c0.6-0.2,1.2-0.6,1.7-1
		l28.1-24.4V372C481.7,380.7,478.5,388.9,472.5,395.2L472.5,395.2z M529.1,354.6l-41.6-64.3c-1.5-2.2-2-4.9-1.4-7.4
		c0.6-2.6,2.1-4.8,4.4-6.3c0.2-0.1,0.4-0.3,0.6-0.4l14.3-9.2c2.2-1.5,4.9-2,7.5-1.4c2.6,0.6,4.8,2.1,6.3,4.4l41.6,64.1L529.1,354.6z
		"/>
</g>
</svg>
