<?xml version="1.0" encoding="utf-8"?>
<!-- Generator: Adobe Illustrator 23.0.1, SVG Export Plug-In . SVG Version: 6.00 Build 0)  -->
<svg version="1.1" id="Layer_1" xmlns="http://www.w3.org/2000/svg" xmlns:xlink="http://www.w3.org/1999/xlink" x="0px" y="0px"
	 viewBox="0 0 700 700" style="enable-background:new 0 0 700 700;" xml:space="preserve">
<g>
	<path d="M320.6,26.2c-17.6,0-31.9,14.1-31.9,31.4v226.1c0,17.6,14.5,31.4,31.9,31.4h242.5c17.4,0,31.8-13.9,31.8-31.4l0-226.1
		c0-17.3-14.2-31.4-31.8-31.4L320.6,26.2z M320.6,43.7h81.9v70c0,6.5,6.9,10.7,12.7,7.8l31.1-15.5l31.1,15.5
		c5.8,2.9,12.6-1.3,12.6-7.8v-70h73.2c7.9,0,14.3,6.1,14.3,13.9v226.1c0,7.4-6.1,13.9-14.3,13.9H320.6c-8,0-14.3-6.2-14.3-13.9V57.6
		C306.3,49.9,312.6,43.7,320.6,43.7L320.6,43.7z M420,43.7h52.4v55.9l-22.3-11.2c-2.5-1.3-5.4-1.3-7.9,0L420,99.6L420,43.7z
		 M236.2,87.5c-11.6,0-11.7,17.5,0,17.5h26.3c11.7,0,11.7-17.5,0-17.5H236.2z M105,122.6c-11.7,0-11.7,17.4,0,17.4h95.8
		c11.7,0,12-17.4,0-17.4H105z M148.3,175c-11.4,0-11.4,17.5,0,17.5H227c11.4,0,11.4-17.5,0-17.5H148.3z M446.3,236.3v26.2
		c0,11.7,17.5,11.7,17.5,0l0-26.2C463.8,224.6,446.3,224.6,446.3,236.3L446.3,236.3z M481.3,236.3v26.2c0,11.7,17.5,11.7,17.5,0
		v-26.2C498.8,224.6,481.3,224.6,481.3,236.3z M516.3,236.3v26.2c0,11.9,17.5,11.9,17.5,0v-26.2
		C533.8,224.6,516.3,224.6,516.3,236.3z M113.3,227.5c-11.7,0-11.7,17.5,0,17.5h87.5c11.7,0,11.7-17.5,0-17.5H113.3z M279.5,323.8
		c-13.6,0-37.8,9.2-57,18.3c-10,4.8-18.3,9.1-24.6,12.4c-4.5-7.9-13.1-13.3-22.8-13.3h-52.5c-14.7,0-26.3,11.9-26.3,26.3V490
		c0,14.4,11.7,26.3,26.3,26.3h52.5c14.4,0,26.2-11.6,26.2-26.3v-1.5c17.1-2.8,33.4-6.5,52.5-7.2c10.8,0,31,15.3,44.2,24.6
		c18.7,13.2,38.9,27.8,60.8,27.8c6.6,0,13.2-2.2,21.9-5.4c47.9-17.9,148.7-75.3,207.7-109.4c14.7-8.5,19.8-27.3,11.4-41.9
		c-8.1-14-24.5-17.4-40.4-11.9l-122.5,42.4c-2.1-9.1-7.8-17.4-16.6-22.2c-34.1-18.6-69.7-37.2-104.7-51.5
		C303.6,329.3,290.8,323.8,279.5,323.8L279.5,323.8z M278.9,341.3c8.5,0.1,21.5,5.3,30.2,8.8c35.9,15.2,68.8,31.9,102.4,50.4
		c9.6,5.3,10.4,17,6.5,23.9c-4.7,8.1-15.4,11.3-24,6.4l-53-30.6c-10.9-6.3-19.6,8.9-8.7,15.1l53,30.6c16.7,9.6,38.2,3.9,47.8-12.8
		c1.3-2.2,2.3-4.5,3.1-6.8L565,381.7c22.5-7.8,26.4,15.3,14.8,22c-68.6,39.1-157.5,90.1-205.3,108.3c-8,3-14.4,4.4-15.8,4.4
		c-13.1,0-32.2-11.6-50.7-24.7c-12.5-8.4-35.1-27.5-54.2-27.8c-14.2,0-37.2,4.1-52.5,6.9v-98c0,0,14.6-8.1,28.7-14.8
		C248.1,349.4,267.4,342,278.9,341.3L278.9,341.3z M122.5,358.8h52.5c5,0,8.7,4.1,8.7,8.8V490c0,4.8-3.9,8.8-8.7,8.8h-52.5
		c-4.7,0-8.8-3.8-8.8-8.8V367.6C113.8,362.7,117.6,358.8,122.5,358.8L122.5,358.8z M140,463.8c-4.8,0-8.8,3.9-8.8,8.8
		s3.9,8.8,8.8,8.8s8.8-3.9,8.8-8.8S144.9,463.8,140,463.8z"/>
</g>
</svg>
