<?xml version="1.0" encoding="utf-8"?>
<!-- Generator: Adobe Illustrator 23.0.1, SVG Export Plug-In . SVG Version: 6.00 Build 0)  -->
<svg version="1.1" id="Layer_1" xmlns="http://www.w3.org/2000/svg" xmlns:xlink="http://www.w3.org/1999/xlink" x="0px" y="0px"
	 viewBox="0 0 700 700" style="enable-background:new 0 0 700 700;" xml:space="preserve">
<style type="text/css">
	.st0{fill:none;stroke:#000000;stroke-width:8;stroke-linecap:round;stroke-linejoin:round;stroke-miterlimit:10;}
	.st1{fill:none;stroke:#000000;stroke-width:8;stroke-linecap:round;stroke-miterlimit:10;}
</style>
<g>
	<path class="st0" d="M577.9,351.1c-6.2-15.7-1.7-37.5,10.1-49.8c11.8-11.8,11.8-31.4,0-43.1c-11.8-11.8-16.2-34.2-10.1-49.8
		s-1.1-33-16.2-39.8c-15.7-6.2-28-25.2-28-42s-13.4-30.2-30.2-30.2c-16.8,0-35.8-12.9-42-28c-6.2-15.7-24.1-23-39.8-16.2
		c-15.7,6.2-37.5,1.7-49.8-10.1c-11.8-11.8-31.4-11.8-43.1,0c-11.8,11.8-34.2,16.2-49.8,10.1s-33,1.1-39.8,16.2
		c-6.2,15.7-25.2,28-42,28s-30.2,13.4-30.2,30.2c0,16.8-12.9,35.8-28,42c-15.7,6.2-23,24.1-16.2,39.8c6.2,15.7,1.7,37.5-10.1,49.8
		c-11.8,11.8-11.8,31.4,0,43.1c11.8,11.8,16.2,34.2,10.1,49.8c-6.2,15.7,1.1,33,16.2,39.8c15.7,6.2,28,25.2,28,42
		c0,16.8,13.4,30.2,30.2,30.2c16.8,0,35.8,12.9,42,28c6.2,15.7,24.1,23,39.8,16.2c15.7-6.2,37.5-1.7,49.8,10.1
		c11.8,11.8,31.4,11.8,43.1,0c11.8-11.8,34.2-16.2,49.8-10.1s33-1.1,39.8-16.2c6.2-15.7,25.2-28,42-28s30.2-13.4,30.2-30.2
		c0-16.8,12.9-35.8,28-42C576.8,384.2,584.1,366.2,577.9,351.1L577.9,351.1z"/>
	<path class="st1" d="M425.6,179.2L280,369.6"/>
	<path class="st1" d="M338.8,204.4c0,20.1-16.3,36.4-36.4,36.4c-20.1,0-36.4-16.3-36.4-36.4c0-20.1,16.3-36.4,36.4-36.4
		C322.5,168,338.8,184.3,338.8,204.4"/>
	<path class="st1" d="M434,350c0,20.1-16.3,36.4-36.4,36.4c-20.1,0-36.4-16.3-36.4-36.4c0-20.1,16.3-36.4,36.4-36.4
		C417.7,313.6,434,329.9,434,350"/>
</g>
</svg>
