<?xml version="1.0" encoding="utf-8"?>
<!-- Generator: Adobe Illustrator 23.0.1, SVG Export Plug-In . SVG Version: 6.00 Build 0)  -->
<svg version="1.1" id="Layer_1" xmlns="http://www.w3.org/2000/svg" xmlns:xlink="http://www.w3.org/1999/xlink" x="0px" y="0px"
	 viewBox="0 0 700 700" style="enable-background:new 0 0 700 700;" xml:space="preserve">
<g>
	<path d="M369.9,528.6l66.7-90c3.4-4.5,1.6-8.1-4-8.1h-27.7c-1.7,0-3-1.4-3-3l0-59.6c0-5.6-4.6-10.2-10.2-10.2h-55.8
		c-5.6,0-10.2,4.6-10.2,10.2v59.6c0,1.7-1.4,3-3,3h-27.7c-5.6,0-7.5,3.6-4.1,8.1l66.7,90C361,533.1,366.5,533.1,369.9,528.6
		L369.9,528.6z"/>
	<path d="M454.6,30.9c-1.6-1.6-4.6-2.9-6.9-2.9H207.3c-4.5,0-8.2,3.7-8.1,8.2v150c0,2.3,1.8,4.1,4.1,4.1H216c2.3,0,4.1-1.8,4.1-4.1
		V51.5c0-1.7,1.4-3,3-3h207.7c1.7,0,3,1.3,3,3l0,61.8c-0.1,4.5,3.6,8.2,8.1,8.2h62.4c1.7,0,3,1.4,3,3v333.2c0,1.7-1.4,3-3,3
		l-66.1-0.1c-1.7,0-3.8,1.1-4.8,2.4L422,478.6c-1,1.4-0.4,2.5,1.2,2.5l96.3,0.2c4.5,0,8.2-3.6,8.2-8.2l0.2-365c0-2.2-1.3-5.4-2.9-7
		L454.6,30.9z"/>
	<path d="M216,357.1h-12.8c-2.3,0-4.1,1.8-4.1,4.1l0,111.9c0,4.5,3.6,8.2,8.1,8.2l96.4-0.2c1.7,0,2.2-1.1,1.2-2.5l-11.4-15.5
		c-1-1.4-3.2-2.4-4.8-2.4l-65.6,0.1c-1.7,0-3-1.4-3-3v-96.5C220.1,358.9,218.3,357.1,216,357.1L216,357.1z"/>
	<path d="M180.3,339.8h263.3c4.5,0,8.2-3.6,8.2-8.2v-116c0-4.6-3.7-8.2-8.2-8.2l-263.4,0c-4.5,0-8.2,3.6-8.1,8.2l0,116
		C172.1,336.2,175.8,339.8,180.3,339.8L180.3,339.8z M373.5,232l8.9,35.5c0.7,2.8,1.5,5.8,2.2,8.9c0.7-2.8,1.4-5.7,2.2-8.6l9.4-35.8
		h24.7l-25,84.6h-25.3L346.8,232L373.5,232L373.5,232z M303.5,283.6c-13.9-5.4-20.9-14.2-20.9-26c0-15.8,12.1-26.8,29.4-26.8
		c7.9,0,16.8,2.4,21.5,4.8l3,1.5l-5.7,20.4l-4.5-2.4c-2.2-1.2-7.8-3.1-13.6-3.1c-4.8,0-5.1,3.2-5.1,4.2c0,1.6,0,2.8,9.4,6.9
		c13.5,5.6,19.9,14,19.9,26.2c0,12.7-8.1,27.4-31.1,27.4c-8.5,0-19.3-3-23.7-5.7l-2.3-1.4l3.5-21.1l5.1,2.9c3.4,2,11.3,4.1,17.3,4.1
		c4.1,0,6.5-1.9,6.5-5.1C312.1,289,312.1,287.1,303.5,283.6L303.5,283.6z M244.8,230.7c9,0,15.7,2,19,3.9l2.7,1.5l-5,21.3l-4.5-2
		c-3.5-1.6-7.4-2.4-11.5-2.4c-11.5,0-18,7.6-18,20.9c0,13.1,6.6,20.6,18.1,20.6c4.3,0,9-1.1,11.4-2.1l4.7-2l3.8,21.2l-2.6,1.4
		c-3.3,1.8-10.2,3.7-19.7,3.7c-24.5,0-40.3-16.4-40.3-41.7C203,248.5,219.8,230.8,244.8,230.7L244.8,230.7z"/>
</g>
</svg>
