<?xml version="1.0" encoding="UTF-8"?>
<svg width="700pt" height="700pt" version="1.1" viewBox="0 0 700 700" xmlns="http://www.w3.org/2000/svg">
 <g>
  <path d="m482.82 516.25h-264.07l-35-402.5h334.25zm-247.98-17.5h231.7l31.324-367.5h-295.75z"/>
  <path d="m542.5 131.25h-385c-4.832 0-8.75-3.918-8.75-8.75s3.918-8.75 8.75-8.75h385c4.832 0 8.75 3.918 8.75 8.75s-3.918 8.75-8.75 8.75z"/>
  <path d="m426.65 131.25h-153.65v-25.023c0-11.605 4.6094-22.734 12.812-30.938 8.207-8.2031 19.336-12.812 30.938-12.812h66.148c11.605 0 22.734 4.6094 30.938 12.812 8.2031 8.2031 12.812 19.332 12.812 30.938zm-136.15-17.5h118.65v-7.5234c-0.042969-6.9492-2.8242-13.598-7.7383-18.512-4.9141-4.9141-11.562-7.6953-18.512-7.7383h-66.148c-6.9609 0-13.641 2.7656-18.562 7.6875-4.9219 4.9219-7.6875 11.598-7.6875 18.562z"/>
  <path d="m349.82 184.27c4.832 0 8.75 4.832 8.75 8.75v244.48c0 4.832-3.918 8.75-8.75 8.75s-8.75-4.832-8.75-8.75v-244.48c0-4.832 3.918-8.75 8.75-8.75z"/>
  <path d="m281.75 184.27c4.832 0 8.75 4.832 8.75 8.75v244.48c0 4.832-3.918 8.75-8.75 8.75s-8.75-4.832-8.75-8.75v-244.48c0-4.832 3.918-8.75 8.75-8.75z"/>
  <path d="m417.9 184.27c4.832 0 8.75 4.832 8.75 8.75v244.48c0 4.832-3.918 8.75-8.75 8.75-4.832 0-8.75-4.832-8.75-8.75v-244.48c0-4.832 3.918-8.75 8.75-8.75z"/>
 </g>
</svg>
