<?xml version="1.0" encoding="utf-8"?>
<!-- Generator: Adobe Illustrator 23.0.1, SVG Export Plug-In . SVG Version: 6.00 Build 0)  -->
<svg version="1.1" id="Layer_1" xmlns="http://www.w3.org/2000/svg" xmlns:xlink="http://www.w3.org/1999/xlink" x="0px" y="0px"
	 viewBox="0 0 700 700" style="enable-background:new 0 0 700 700;" xml:space="preserve">
<g>
	<path d="M403,42c-48.3,0-94.7,19.2-128.9,53.4c-34.2,34.2-53.4,80.5-53.4,128.9c0,48.3,19.2,94.7,53.4,128.9
		c34.2,34.2,80.5,53.4,128.9,53.4l0,0h0c16.6,0,33.2-2.3,49.2-6.9l70.5,60.3c4.5,3.9,11,4.4,16.1,1.5c5.1-3,7.8-8.9,6.8-14.7
		l-17-90.5c36-34.3,56.6-81.9,56.7-131.9l0,0v0c0-48.3-19.2-94.7-53.4-128.9C497.7,61.2,451.3,42,403,42L403,42z M403,70L403,70
		c40.9,0,80.1,16.2,109.1,45.2c28.9,28.9,45.2,68.1,45.2,109.1c0,44.6-19.4,87-53.1,116.3c-3.7,3.3-5.5,8.3-4.5,13.1l11.1,59.2
		l-46.1-39.4c-3.7-3.2-8.8-4.2-13.5-2.6c-15.5,5.1-31.8,7.8-48.1,7.8c-40.9,0-80.1-16.3-109-45.2c-28.9-28.9-45.2-68.2-45.2-109.1
		c0-40.9,16.2-80.1,45.2-109.1C322.9,86.2,362.1,70,403,70L403,70z M321.8,151.8c-3.7,0-7.3,1.5-9.9,4.1c-2.6,2.6-4.1,6.2-4.1,9.9
		c0,3.7,1.5,7.3,4.1,9.9c2.6,2.6,6.2,4.1,9.9,4.1h162.5c3.7,0,7.3-1.5,9.9-4.1s4.1-6.2,4.1-9.9c0-3.7-1.5-7.3-4.1-9.9
		s-6.2-4.1-9.9-4.1H321.8z M192.5,181c-2.5,0.1-4.8,0.9-6.9,2.3c-44.2,28.8-70.9,78-70.9,130.8l0,0v0c0,42.4,17.3,82.8,47.6,112.1
		l-14.1,75.3c-1.1,5.8,1.6,11.7,6.8,14.7c5.1,3,11.6,2.4,16.1-1.5l58.5-50.1c13.3,3.7,27,5.6,40.9,5.6h0c32.4,0,64-10.1,90.4-29
		c6.3-4.5,7.7-13.2,3.2-19.5c-4.5-6.3-13.2-7.7-19.5-3.2c-21.6,15.5-47.6,23.8-74.1,23.8c-13.5,0-27-2.2-39.8-6.5h0
		c-4.7-1.5-9.8-0.5-13.5,2.6L183,467.5l8.2-43.8v0c0.9-4.9-0.8-9.9-4.6-13.1c-27.9-24.3-43.9-59.5-43.9-96.5
		c0-43.4,21.9-83.8,58.2-107.4l0,0c6.5-4.2,8.3-12.9,4.1-19.4C202.2,183.2,197.5,180.7,192.5,181L192.5,181z M321.8,208.5
		c-3.7,0-7.3,1.5-9.9,4.1c-2.6,2.6-4.1,6.2-4.1,9.9c0,7.7,6.3,14,14,14h162.5c7.7,0,14-6.3,14-14c0-3.7-1.5-7.3-4.1-9.9
		s-6.2-4.1-9.9-4.1H321.8z M321.8,265.3c-3.7,0-7.3,1.5-9.9,4.1c-2.6,2.6-4.1,6.2-4.1,9.9c0,7.7,6.3,14,14,14h162.5
		c7.7,0,14-6.3,14-14c0-3.7-1.5-7.3-4.1-9.9s-6.2-4.1-9.9-4.1H321.8z"/>
</g>
</svg>
