<?xml version="1.0" encoding="utf-8"?>
<!-- Generator: Adobe Illustrator 23.0.1, SVG Export Plug-In . SVG Version: 6.00 Build 0)  -->
<svg version="1.1" id="Layer_1" xmlns="http://www.w3.org/2000/svg" xmlns:xlink="http://www.w3.org/1999/xlink" x="0px" y="0px"
	 viewBox="0 0 700 700" style="enable-background:new 0 0 700 700;" xml:space="preserve">
<g>
	<path d="M249.2,39.2c-24.7,0-44.8,20.1-44.8,44.8v392c0,24.7,20.1,44.8,44.8,44.8h201.6c24.7,0,44.8-20.1,44.8-44.8V84
		c0-24.7-20.1-44.8-44.8-44.8H249.2z M249.2,50.4h201.6c18.7,0,33.6,14.9,33.6,33.6v11.2H215.6V84C215.6,65.3,230.5,50.4,249.2,50.4
		L249.2,50.4z M316.4,67.2c-3.1,0-5.6,2.5-5.6,5.6s2.5,5.6,5.6,5.6h67.2c3.1,0,5.6-2.5,5.6-5.6s-2.5-5.6-5.6-5.6H316.4z
		 M215.6,106.4h268.8v324.8H215.6L215.6,106.4z M238,123.2L238,123.2c-3.1,0-5.6,2.5-5.6,5.6v56c0,3.1,2.5,5.6,5.6,5.6h56
		c3.1,0,5.6-2.5,5.6-5.6v-56c0-3.1-2.5-5.6-5.6-5.6L238,123.2z M322,123.2L322,123.2c-3.1,0-5.6,2.5-5.6,5.6v56
		c0,3.1,2.5,5.6,5.6,5.6h56c3.1,0,5.6-2.5,5.6-5.6v-56c0-3.1-2.5-5.6-5.6-5.6L322,123.2z M406,123.2L406,123.2
		c-3.1,0-5.6,2.5-5.6,5.6v56c0,3.1,2.5,5.6,5.6,5.6h56c3.1,0,5.6-2.5,5.6-5.6v-56c0-3.1-2.5-5.6-5.6-5.6L406,123.2z M243.6,134.4
		h44.8v44.8h-44.8V134.4z M327.6,134.4h44.8v44.8h-44.8V134.4z M411.6,134.4h44.8v44.8h-44.8V134.4z M238,207.2L238,207.2
		c-3.1,0-5.6,2.5-5.6,5.6v56c0,3.1,2.5,5.6,5.6,5.6h56c3.1,0,5.6-2.5,5.6-5.6v-56c0-3.1-2.5-5.6-5.6-5.6L238,207.2z M322,207.2
		L322,207.2c-3.1,0-5.6,2.5-5.6,5.6v56c0,3.1,2.5,5.6,5.6,5.6h56c3.1,0,5.6-2.5,5.6-5.6v-56c0-3.1-2.5-5.6-5.6-5.6L322,207.2z
		 M406,207.2L406,207.2c-3.1,0-5.6,2.5-5.6,5.6v56c0,3.1,2.5,5.6,5.6,5.6h56c3.1,0,5.6-2.5,5.6-5.6v-56c0-3.1-2.5-5.6-5.6-5.6
		L406,207.2z M243.6,218.4h44.8v44.8h-44.8V218.4z M327.6,218.4h44.8v44.8h-44.8V218.4z M411.6,218.4h44.8v44.8h-44.8V218.4z
		 M238,291.2L238,291.2c-3.1,0-5.6,2.5-5.6,5.6v56c0,3.1,2.5,5.6,5.6,5.6h56c3.1,0,5.6-2.5,5.6-5.6v-56c0-3.1-2.5-5.6-5.6-5.6H238z
		 M322,291.2L322,291.2c-3.1,0-5.6,2.5-5.6,5.6v56c0,3.1,2.5,5.6,5.6,5.6h56c3.1,0,5.6-2.5,5.6-5.6v-56c0-3.1-2.5-5.6-5.6-5.6H322z
		 M406,291.2L406,291.2c-3.1,0-5.6,2.5-5.6,5.6v56c0,3.1,2.5,5.6,5.6,5.6h56c3.1,0,5.6-2.5,5.6-5.6v-56c0-3.1-2.5-5.6-5.6-5.6H406z
		 M243.6,302.4h44.8v44.8h-44.8V302.4z M327.6,302.4h44.8v44.8h-44.8V302.4z M411.6,302.4h44.8v44.8h-44.8V302.4z M215.6,442.4
		h268.8V476c0,18.7-14.9,33.6-33.6,33.6H249.2c-18.7,0-33.6-14.9-33.6-33.6L215.6,442.4L215.6,442.4z M350,459.2
		c-9.3,0-16.8,7.5-16.8,16.8s7.5,16.8,16.8,16.8s16.8-7.5,16.8-16.8C366.8,466.7,359.3,459.2,350,459.2z"/>
</g>
</svg>
