<?xml version="1.0" encoding="utf-8"?>
<!-- Generator: Adobe Illustrator 23.0.1, SVG Export Plug-In . SVG Version: 6.00 Build 0)  -->
<svg version="1.1" id="Layer_1" xmlns="http://www.w3.org/2000/svg" xmlns:xlink="http://www.w3.org/1999/xlink" x="0px" y="0px"
	 viewBox="0 0 700 700" style="enable-background:new 0 0 700 700;" xml:space="preserve">
<path d="M531,53.9c0-5.4-2.1-10.5-5.9-14.4c-3.8-3.8-9-6-14.3-6H331.5v134.1c0,8.7-3.5,17-9.6,23.1c-6.1,6.1-14.4,9.6-23.1,9.6
	H175.6v58h355.6L531,53.9z"/>
<path d="M175.4,506.1c0,5.4,2.2,10.5,6,14.3c3.8,3.8,9,5.9,14.4,5.9h315c5.4,0,10.5-2.2,14.3-6c3.8-3.8,5.9-8.9,6-14.3v-12.6H175.4
	L175.4,506.1z"/>
<path d="M320.3,167.7V42.2l-137.5,147h116c5.7,0,11.2-2.3,15.2-6.3C318,178.8,320.3,173.4,320.3,167.7L320.3,167.7z"/>
<path d="M555.8,269.5H144.2c-4.1,0-8,1.6-10.9,4.5c-2.9,2.9-4.5,6.8-4.5,10.9v182c0,4.1,1.6,8,4.5,10.9c2.9,2.9,6.8,4.5,10.9,4.5
	h411.6c4.1,0,8-1.6,10.9-4.5c2.9-2.9,4.5-6.8,4.5-10.9v-182c0-4.1-1.6-8-4.5-10.9C563.8,271.2,559.9,269.5,555.8,269.5z
	 M276.8,431.2l-35.1-52.4l-34.9,52.4h-10.5L236,372l-38.1-57.2h10.5l33.3,49.7l33.9-49.7h10.5l-39.2,56.6l40.5,59.9L276.8,431.2z
	 M385,431.2h-69.8V314.8h9v108.1h62.5L385,431.2z M449.1,432.5c-29.1,0-39.8-16.8-41.9-32.6h9.3c3.5,15.5,13.8,24.6,32.9,24.6
	c21.3,0,29.4-10.6,29.4-23.3s-5.6-21.3-31.4-27.6c-24.6-6.2-35.2-14.1-35.2-30.9c0-15.3,11.2-29.6,36.1-29.6s36.4,15.7,37.9,29.8
	h-9.3c-2.7-12.5-10.8-21.4-29.1-21.4c-16.8,0-25.9,7.8-25.9,20.8s7.7,17.8,29.1,23.1c32.8,8.1,37.6,21.3,37.6,35.2
	C488.5,417.8,476,432.5,449.1,432.5L449.1,432.5z"/>
</svg>
