<?xml version="1.0" encoding="utf-8"?>
<!-- Generator: Adobe Illustrator 23.0.1, SVG Export Plug-In . SVG Version: 6.00 Build 0)  -->
<svg version="1.1" id="Layer_1" xmlns="http://www.w3.org/2000/svg" xmlns:xlink="http://www.w3.org/1999/xlink" x="0px" y="0px"
	 viewBox="0 0 700 700" style="enable-background:new 0 0 700 700;" xml:space="preserve">
<g>
	<path d="M391,112c0,22.6-18.4,41-41,41s-41-18.4-41-41s18.4-41,41-41S391,89.4,391,112"/>
	<path d="M391,448c0,22.6-18.4,41-41,41s-41-18.4-41-41s18.4-41,41-41S391,425.4,391,448"/>
	<path d="M272.2,161.2c0,22.6-18.4,41-41,41s-41-18.4-41-41s18.4-41,41-41S272.2,138.6,272.2,161.2"/>
	<path d="M509.8,398.8c0,22.6-18.4,41-41,41s-41-18.4-41-41s18.4-41,41-41S509.8,376.1,509.8,398.8"/>
	<path d="M223,280c0,22.6-18.4,41-41,41s-41-18.4-41-41s18.4-41,41-41S223,257.4,223,280"/>
	<path d="M559,280c0,22.6-18.4,41-41,41s-41-18.4-41-41s18.4-41,41-41S559,257.4,559,280"/>
	<path d="M272.2,398.8c0,22.6-18.4,41-41,41s-41-18.4-41-41s18.4-41,41-41S272.2,376.1,272.2,398.8"/>
	<path d="M509.8,161.2c0,22.6-18.4,41-41,41s-41-18.4-41-41s18.4-41,41-41S509.8,138.6,509.8,161.2"/>
</g>
</svg>
