<?xml version="1.0" encoding="utf-8"?>
<!-- Generator: Adobe Illustrator 23.0.1, SVG Export Plug-In . SVG Version: 6.00 Build 0)  -->
<svg version="1.1" id="Layer_1" xmlns="http://www.w3.org/2000/svg" xmlns:xlink="http://www.w3.org/1999/xlink" x="0px" y="0px"
	 viewBox="0 0 700 700" style="enable-background:new 0 0 700 700;" xml:space="preserve">
<path d="M343.3,369.6c-1.1-4.5-3.4-9-6.2-12.3l-45.4-61.6L266,315.3l-0.6,70l7.8,10.6l33,120.4c5,17.9,21.8,31.4,40.3,29.1
	c23.5-2.2,38.1-25.2,32.5-47L343.3,369.6z"/>
<path d="M567.8,230.2H445.8c-7.8,0-14,5.6-15.1,12.9l35.3,25.2c24.6,17.4,29.7,52.1,12.3,76.2c-10.1,14-26.9,23-44.2,23h-3.9v0.6
	c0,8.4,7.3,15.7,15.7,15.7h122.1c8.4,0,15.7-7.3,15.7-15.7V245.8C583.5,237.4,576.8,230.2,567.8,230.2L567.8,230.2z"/>
<path d="M459.2,331.5c10.1-14,6.7-33.6-7.3-43.7l-46.5-33.6c1.1-56.6-1.7-66.6-2.8-70c-1.7-6.2-9-28-22.4-46.5l-15.1-20.2
	C357.3,107,345,99.7,331.5,98c-13.4-1.7-26.9,2.8-37,11.8L182,206.1c-8.4,7.3-13.4,17.4-13.4,28l-1.7,142.8l-47.6,117.6
	c-7.8,19,1.1,40.9,20.2,48.7c19,7.8,40.9-1.7,48.7-20.7l50.4-124.3c1.7-4.5,2.8-9,2.8-13.4l1.1-81.8l101.4-77.3
	c0,12.9,0,28.6-0.6,42.6c-0.6,10.1,4.5,20.2,12.9,26.3l59.9,43.1c2.2,1.7,4.5,2.8,6.7,3.4C435.1,347.2,450.8,343.3,459.2,331.5
	L459.2,331.5z"/>
<path d="M461.7,15.6c36.1,8.4,58.6,44.5,50.2,80.7c-8.4,36.1-44.5,58.6-80.7,50.2S372.6,102,381,65.8S425.5,7.2,461.7,15.6"/>
<path d="M515.8,409.9c-3.9-5.6-13.4-5.6-17.4,0l-26.9,36.4c-2.2,3.4-2.8,7.8-1.1,11.2c1.7,3.4,5.6,6.2,9.5,6.2h15.7v71.1
	c0,6.2,5,10.6,10.6,10.6c6.2,0,10.6-5,10.6-10.6l0-71.7h16.2c3.9,0,7.8-2.2,9.5-6.2c1.7-3.9,1.7-7.8-1.1-11.2L515.8,409.9z"/>
</svg>
