<?xml version="1.0" encoding="utf-8"?>
<!-- Generator: Adobe Illustrator 23.0.1, SVG Export Plug-In . SVG Version: 6.00 Build 0)  -->
<svg version="1.1" id="Layer_1" xmlns="http://www.w3.org/2000/svg" xmlns:xlink="http://www.w3.org/1999/xlink" x="0px" y="0px"
	 viewBox="0 0 700 700" style="enable-background:new 0 0 700 700;" xml:space="preserve">
<g>
	<path d="M287.8,178c-9.8-9.8-9.8-26,0-35.8c9.8-9.8,26-9.8,35.8,0l120.3,119.5c9.8,10.6,9.8,26,0,36.6L323.6,417.8
		c-9.8,10.6-26,10.6-35.8,0c-9.8-9.8-9.8-26,0-35.8l102.4-101.6L287.8,178L287.8,178z M350.4,0c77.2,0,147.1,31.7,197.5,82.1
		c51.2,50.4,82.1,120.3,82.1,198.3c0,77.2-30.9,147.1-82.1,197.5C497.5,529.1,427.6,560,350.4,560c-78,0-147.9-30.9-198.3-82.1
		C101.7,427.5,70,357.6,70,280.4c0-78,31.7-147.9,82.1-198.3S272.4,0,350.4,0L350.4,0z M512.1,117.8C470.7,76.4,413,51.2,350.4,51.2
		c-63.4,0-121.1,25.2-162.6,66.6c-41.5,41.5-66.6,99.2-66.6,162.6c0,62.6,25.2,120.3,66.6,161.7c41.5,41.5,99.2,67.5,162.6,67.5
		c62.6,0,120.3-26,161.7-67.5c41.5-41.5,67.5-99.2,67.5-161.7C579.6,217,553.6,159.3,512.1,117.8L512.1,117.8z"/>
</g>
</svg>
