<?xml version="1.0" encoding="utf-8"?>
<!-- Generator: Adobe Illustrator 23.0.1, SVG Export Plug-In . SVG Version: 6.00 Build 0)  -->
<svg version="1.1" id="Layer_1" xmlns="http://www.w3.org/2000/svg" xmlns:xlink="http://www.w3.org/1999/xlink" x="0px" y="0px"
	 viewBox="0 0 700 700" style="enable-background:new 0 0 700 700;" xml:space="preserve">
<style type="text/css">
	.st0{fill-rule:evenodd;clip-rule:evenodd;}
</style>
<g>
	<path d="M216.2,364.3c-0.3,1-0.1,2,0.3,2.8c0.5,0.8,1.3,1.5,2.3,1.8l39.1,10.5c0.9,0.2,1.9,0,2.7-0.4c0.8-0.4,1.4-1.1,1.7-2
		l6.4-22.9c0.4-1.3,1.1-2.3,2.1-3l0.5-0.4c1.1-0.8,2.4-1.2,3.7-1.1c6.1,0.2,12.2,0,18.3-0.8c6.2-0.8,12.6-2.2,19.4-4.4
		c2.6-0.8,5.3,0.3,6.6,2.5l11.7,20.4c0.7,1.1,1.3,1.9,1.9,2.1c0.5,0.2,32.6-18.5,35.8-20.4c1.1-0.6,1.9-1.6,2.2-2.6
		c0.3-0.8,0.3-1.7-0.1-2.4L359.3,324l-0.5-1.1c-0.7-2.2-0.1-4.5,1.6-6c5.3-4.6,9.4-9.1,12.9-13.8c3.5-4.7,6.6-9.8,9.7-15.4
		c1.3-2.4,4.1-3.5,6.7-2.6l21.8,6.1c1,0.3,2,0.1,2.8-0.3c0.8-0.5,1.5-1.3,1.7-2.3c3.6-13,7.1-26.1,10.5-39.1c0.2-1,0.1-2-0.4-2.8
		c-0.4-0.8-1.1-1.4-2-1.7l-22.8-6.3c-1.1-0.3-2.1-0.9-2.8-1.8l-0.3-0.3c-1-1.1-1.4-2.5-1.4-3.9c0.2-6.1,0.1-12.2-0.7-18.4
		c-0.7-6.2-2.1-12.5-4.2-19.2c-0.8-2.6,0.3-5.3,2.6-6.5l20.1-11.5c1.4-0.8,2.6-2,3.1-3.2l0.1-0.3c0.1-0.4,0.1-0.8,0-1.1l-20.1-34.9
		c-0.4-0.6-1.1-1-2-1.2c-1.3-0.3-2.9,0-4,0.7l-20.1,11.5c-2.3,1.4-5.3,1-7-1c-4.2-4.4-9.2-8.9-14.5-13c-4.7-3.7-9.8-7.1-15.1-10
		c-2.3-1.3-3.4-4-2.7-6.5l6-22.4c0.3-1,0.1-2-0.4-2.8l-0.1-0.3c-0.5-0.7-1.2-1.2-2.1-1.5c-12.9-3.6-26-7.1-39-10.6
		c-1-0.2-2-0.1-2.8,0.4c-0.8,0.5-1.5,1.3-1.7,2.2c-0.3,4-4.7,17.6-6,22.4c-0.7,2.7-3.2,4.4-5.9,4.1c-6.1-0.2-11.9-0.1-17.8,0.5
		c-5.9,0.6-12,1.9-18.7,4c-2.6,0.8-5.3-0.3-6.6-2.5l-11.6-20.2c-0.6-0.8-1.5-1.4-2.5-1.7c-1-0.3-2.2-0.2-3.1,0.3
		c-11.1,5.8-24.5,13.6-35.2,20.2c-0.2,0.2-0.3,0.4-0.3,0.6c-0.1,1,0.4,2.3,1.2,3.6l11.6,20.2c1.4,2.4,0.8,5.5-1.4,7.2
		c-5.2,4.6-9.5,9.2-13.3,14c-3.8,4.9-7.1,10-10.2,15.6c-1.2,2.3-3.8,3.3-6.2,2.8l-23.5-5.6c-1-0.2-1.9-0.1-2.7,0.4
		c-0.8,0.5-1.5,1.3-1.8,2.3L128,210.6c-0.2,1-0.1,2,0.4,2.7c0.5,0.8,1.3,1.5,2.3,1.7l22.4,6.1c0.9,0.3,1.8,0.7,2.4,1.4
		c1.3,1.2,2,2.9,1.9,4.6c-0.2,6.1-0.1,12,0.6,18c0.7,6.1,2,12.2,4.1,18.9c0.8,2.6-0.4,5.4-2.7,6.6l-19.9,11.5
		c-0.7,0.4-1.1,0.9-1.2,1.3l-0.1,0.2c-0.1,0.6,0.2,1.5,0.8,2.5l20.3,35.3c0.4,0.7,0.9,1.1,1.3,1.2c0.4,0.1,1-0.1,1.9-0.6
		c6.9-3.7,13.7-8.2,20.6-11.8c2.4-1.2,5.3-0.5,6.9,1.6c4.6,5.2,9.1,9.4,13.9,13.1c4.8,3.7,9.9,6.9,15.6,10c2.3,1.3,3.3,3.8,2.7,6.3
		L216.2,364.3L216.2,364.3z M206.9,372.7c-1.9-3.3-2.6-7.4-1.5-11.3l4.7-18.7c-4.6-2.7-9-5.6-13.2-8.8c-4.3-3.3-8.5-7-12.6-11.4
		l-16.3,9.4c-3.6,2.1-7.2,2.6-10.5,1.6c-3.1-0.9-5.8-3-7.9-6.4l-20.4-35.4c-1.9-3.3-2.6-6.8-2-10.1l0.1-0.5c0.8-3.5,2.9-6.5,6.6-8.6
		l16.2-9.3c-1.6-5.9-2.7-11.4-3.3-16.8c-0.6-5.2-0.8-10.3-0.7-15.5l-18.4-5c-4-1.1-7.1-3.7-9-7c-1.9-3.3-2.6-7.4-1.5-11.3l10.5-39
		c1.1-4,3.7-7.1,7-9c3.2-1.9,7.1-2.5,11-1.6l19.3,4.6c2.7-4.6,5.7-9.1,9.1-13.4c3.4-4.3,7.2-8.5,11.6-12.7l-9.4-16.3
		c-1.8-3.1-2.8-6.6-2.6-9.9c0.2-3.7,1.9-7.1,5.6-9.4c10-7.1,24.7-13.6,35.5-20.5c3.6-2,7.8-2.4,11.6-1.3c3.7,1,7,3.4,9.1,6.7
		l9.5,16.6c5.8-1.6,11.3-2.6,16.6-3.2c5.1-0.6,10.1-0.7,15.2-0.6l4.8-18.2c1.1-4,3.7-7.1,7-9c3.3-1.9,7.3-2.5,11.2-1.5
		c13,3.5,26.1,7.3,39.1,10.6c3.7,1,6.7,3.4,8.7,6.5l0.3,0.5c1.9,3.3,2.5,7.3,1.5,11.3l-4.9,18.4c4.4,2.7,8.7,5.7,12.7,8.8
		c4.6,3.6,8.8,7.3,12.6,11l16.5-9.5c3.4-2,7.8-2.7,11.7-1.9c3.9,0.7,7.6,2.9,9.7,6.6l20,34.9c2.1,3.6,2.1,7.3,0.7,10.8l-0.2,0.6
		c-1.5,3.5-4.5,6.5-7.8,8.5l-16.3,9.3c1.7,5.9,2.7,11.5,3.4,16.9c0.6,5.3,0.9,10.6,0.8,15.9l18.6,5.1c4,1.1,7.1,3.7,9.1,7
		c1.9,3.3,2.5,7.3,1.5,11.2l-10.5,39.1c-1.1,4-3.7,7.2-7,9.1c-3.3,1.9-7.4,2.6-11.3,1.5l-18-5c-2.6,4.5-5.3,8.7-8.4,12.8
		c-3.2,4.2-6.7,8.3-11.1,12.4l9.4,16.3c2.1,3.8,2.3,7.9,1,11.6c-1.2,3.5-3.8,6.6-7.2,8.6c-11.5,6.6-23.7,13.2-35,20.1
		c-3.7,2.1-7.2,2.3-10.5,1l-0.6-0.2c-2.9-1.3-5.2-3.7-7-6.9l-9.4-16.4c-5.8,1.7-11.5,2.8-17,3.5c-5.5,0.7-10.9,1-16.3,1l-5.2,18.7
		c-1.1,4-3.7,7.2-7,9.1c-3.3,1.9-7.3,2.6-11.2,1.5L216,379.7C212,378.6,208.8,376,206.9,372.7L206.9,372.7z"/>
	<path d="M413.5,356.3c-1.8,3.7-3.2,7.3-4.2,10.8c-1,3.6-1.7,7.3-2.1,11.2c-0.3,2.7-2.5,4.7-5.1,5c-1.7,0.3-14.6,1.8-14.8,2.6
		l3.1,25.1l0.1,0.1l0.2,0l14.4-1.8c1.1-0.1,2.2,0.1,3.2,0.6c1.4,0.6,2.4,1.8,2.9,3.1c1.3,3.6,2.8,6.9,4.5,10.1
		c1.8,3.2,3.9,6.4,6.7,9.7c1.7,2,1.7,5,0.1,7l-8.6,11.1l19.5,15.2l8.6-11.1c1.7-2.1,4.6-2.8,6.9-1.6c3.9,1.9,7.5,3.3,11,4.2
		c3.5,1,7.2,1.6,11.1,2c2.6,0.3,4.6,2.4,4.9,4.9c0.3,2.1,1.7,13.7,2.2,14.7c0.6,0.2,23.1-2.7,25.4-3.2l0.2-0.1
		c0.2-0.7-1.4-13.1-1.7-14.8c-0.2-1.4,0.2-2.7,0.9-3.7l0.2-0.3c0.7-1,1.6-1.8,2.7-2.2c3.6-1.4,7-2.9,10.3-4.7
		c3.3-1.9,6.6-4.2,9.9-6.9c2-1.7,5-1.7,7-0.1l11.4,8.9l14.9-19.2l0.1-0.4l-11.5-8.9c-2-1.6-2.7-4.5-1.5-6.8c1.9-3.9,3.2-7.3,4-10.7
		c0.9-3.4,1.4-7,1.9-11c0.3-2.6,2.4-4.6,4.9-4.9c22.1-2.6,15,2.5,11.3-27.1l-0.1-0.2c-0.6-0.2-13,1.5-14.8,1.7
		c-1.3,0.2-2.5-0.1-3.6-0.8l-0.2-0.1c-1.2-0.7-2.1-1.9-2.4-3.1c-1.3-3.4-2.8-6.7-4.5-9.9c-1.8-3.3-4-6.5-6.8-9.8
		c-1.8-2.2-1.7-5.3,0.2-7.4l8.7-11.1l0.5-0.9l-19.1-14.8c-0.4,0.1-0.7,0.3-0.9,0.6l-9,11.5c-1.6,2.1-4.5,2.7-6.9,1.6
		c-3.4-1.5-7.2-2.9-11.1-4c-3.5-1-7.2-1.8-10.8-2.2c-2.7-0.3-4.8-2.6-5-5.2l-1.8-14.1c-0.5-0.8-22.7,2.6-25.4,2.9l-0.2,0.1
		c-0.3,1.5,1.5,12.2,1.8,14.6c0.3,2.6-1.2,5.1-3.6,5.9c-3.5,1.3-6.9,2.7-10.1,4.5c-3.1,1.7-6.3,3.8-9.6,6.5
		c-2.2,1.8-5.3,1.7-7.4-0.2l-11.1-8.6c-1.7-0.2-13.6,16.6-15.6,19.2c3.3,2.8,9,7.5,12.5,9.7C414.5,351.4,414.8,354.2,413.5,356.3
		L413.5,356.3z M398.6,364.1c0.8-2.9,1.9-5.9,3.2-8.9l-8.1-6.3c-2.1-1.6-3.8-3.7-4.6-6.1c-0.9-2.8-0.7-5.8,1.2-8.6l15.9-20.5
		c1.8-2.3,4.4-3.7,7.1-4.2l0.7-0.1c2.9-0.4,6.1,0.4,8.6,2.3l8.1,6.3c2.6-2,5.2-3.6,7.9-5c2.4-1.3,4.8-2.4,7.4-3.5l-1.3-10.2
		c-0.4-3.1,0.6-6.1,2.4-8.4c1.8-2.3,4.5-3.9,7.6-4.3l25.1-3.2c3-0.4,5.9,0.5,8.2,2.2l0.2,0.2c2.2,1.7,3.8,4.3,4.3,7.4l1.4,10.5
		c2.8,0.5,5.5,1.1,8.2,1.9c3,0.8,5.9,1.8,8.7,2.9l6.4-8.2c1.9-2.4,4.7-4.1,7.5-4.7c2.8-0.6,5.9-0.2,8.4,1.6l20.4,15.9
		c2.7,2.1,3.8,5.1,3.8,8.1c0,2.8-1.2,5.8-2.9,8l-6.2,8c2,2.7,3.7,5.3,5.2,8c1.4,2.6,2.7,5.2,3.8,7.8l11.1-1.3
		c2.9-0.2,5.6,0.7,7.8,2.4c2.1,1.7,3.7,4.1,4.2,6.9c1.2,8.5,1.8,17.5,3.3,25.9c0.4,3.1-0.5,6.1-2.3,8.4c-1.7,2.1-4.1,3.7-7,4.2
		l-10.6,1.3c-0.4,2.7-0.9,5.4-1.6,8.1c-0.7,2.9-1.7,5.7-2.9,8.7l8.5,6.7c2.3,2,3.5,4.7,3.6,7.5l0,0.1c0.1,2.6-0.6,5.3-2.2,7.5
		c-4,6.2-11.1,14.4-15.9,20.5c-2.1,2.7-4.7,3.8-7.5,3.9c-2.5,0-4.9-0.9-7.1-2.5l-8.4-6.5c-2.7,2-5.3,3.7-8,5.3c-2.7,1.5-5.3,2.8-8,4
		l1.2,10.5c0.4,3.1-0.6,6.1-2.4,8.4c-1.8,2.3-4.5,4-7.6,4.4c-8.3,1.1-17,1.9-25.2,3.2c-3.1,0.4-6.1-0.6-8.4-2.3
		c-2.3-1.8-4-4.5-4.4-7.6l-1.5-10.4c-2.8-0.4-5.6-1-8.5-1.8c-2.9-0.8-5.9-1.8-8.8-3.1l-6.2,8c-2,2.5-4.4,4-7.2,4.3
		c-2.5,0.3-5-0.4-7.4-2.1c-5.8-4.1-15.3-11.2-20.5-15.9c-2.3-1.8-3.8-4.2-4.3-6.8c-0.5-2.8,0.1-5.7,2.1-8.4l6.3-8.1
		c-2-2.7-3.7-5.3-5.1-7.9c-1.4-2.5-2.6-5-3.6-7.6l-10.2,1.3c-3.1,0.4-6.1-0.5-8.4-2.3c-2.2-1.7-3.7-4.1-4.3-6.9
		c-1.3-7.4-2.7-18.4-3.3-25.9c-0.4-3.1,0.6-6.1,2.3-8.3c1.7-2.2,4.2-3.7,7-4.2l11.1-1.7C397.1,369.8,397.8,366.9,398.6,364.1
		L398.6,364.1z"/>
	<path class="st0" d="M293.8,279.6c-3.3,1.1-6.7,1.9-10.2,2.3c-2.1,0.3-4.2,0.3-6.4,0.4c-3.7-0.1-7.7-0.3-11.3-1.2
		c-7.1-1.6-13.9-4.6-19.8-8.9c-5.7-4.2-10.7-9.6-14.4-16.2c-1.8-3.1-3.2-6.3-4.3-9.6c-1.1-3.4-1.9-6.9-2.3-10.4l0-0.1
		c-0.2-1.5-0.3-2.9-0.3-4.3c0-1.4,0-2.8,0.1-4.3c0.2-2.3,0.4-4.3,0.8-6.6c0.6-2.7,1-4.4,1.8-7c2.5-6.9,4.4-10.5,8.8-16.5
		c2-2.5,4.2-4.8,6.7-7c2.5-2.2,5.3-4.1,8.2-5.8c3.7-2.1,7.5-3.8,11.4-4.9c4-1.2,8.1-1.9,12.2-2.1c4.2-0.2,8.4,0.2,12.6,0.9
		c11.9,2.6,18.9,6.7,27.8,15.1c1.4,1.5,2.8,3.1,4,4.7c1.3,1.7,2.5,3.6,3.7,5.6l0.2,0.4c1.9,3.4,3.4,6.9,4.5,10.4
		c1.2,3.8,1.9,7.6,2.1,11.5c0.3,4.3,0,7.7-0.5,12l-0.6,3c-1.7,6.9-3.6,11.6-7.3,17.6c-2.2,3.4-4.8,6.5-7.8,9.4
		c-2.9,2.8-6.3,5.3-10,7.4l-0.4,0.2C300,277.2,297,278.5,293.8,279.6L293.8,279.6z M332.5,198.1c-1.3-2.4-2.8-4.6-4.5-6.7
		c-1.5-2-3.2-4-4.9-5.8c-8.8-9.7-21.1-15.5-33.7-18.3c-5.4-0.9-9.8-1.3-15.2-1.1c-4.9,0.2-9.9,1.1-14.8,2.5
		c-4.7,1.4-9.4,3.4-13.8,5.9c-3.6,2.1-6.9,4.5-9.9,7c-3,2.6-5.7,5.5-8.2,8.5c-4,4.9-6.7,10-9.2,15.7c-0.6,1.4-1.1,2.8-1.5,4.2
		c-0.9,3.1-1.5,5.4-2.1,8.6c-0.2,1.3-0.4,2.8-0.6,4.4l-0.3,3.5c-0.1,1.7-0.1,3.5-0.1,5.3c0.1,1.8,0.2,3.6,0.4,5.2l0,0.2
		c0.5,4.2,1.4,8.4,2.8,12.6c1.3,3.9,3.1,7.9,5.3,11.7c4.6,8,10.6,14.6,17.5,19.6c7.2,5.3,15.4,9,24,10.9c5.1,1,8.4,1.3,13.7,1.5
		c2.8-0.1,5-0.2,7.7-0.5c4.1-0.5,8.3-1.4,12.4-2.8c3.8-1.3,7.5-2.9,11.2-5l0.4-0.2c4.4-2.5,8.5-5.6,12.1-8.9
		c3.6-3.4,6.8-7.3,9.5-11.4c5.1-7.8,7.9-15.7,9.6-25c0.7-5.4,0.8-9.1,0.6-14.5c-0.3-4.7-1.2-9.3-2.6-14c-1.3-4.3-3.1-8.6-5.5-12.7
		L332.5,198.1L332.5,198.1z"/>
	<path class="st0" d="M496.7,348.5c-11-5.1-23.9-4.6-34.8,0.3c-3,1.4-5.8,3.1-8.4,5.2c-2.5,2-4.9,4.4-7,7.1c-1.6,2.1-3,4.2-4.1,6.5
		l-0.2,0.3c-1.2,2.4-2.2,4.9-2.9,7.5c-1.7,6.3-1.9,11.1-1.2,17.6l0.5,2.8l0.7,2.8c1,3.3,2,5.6,3.6,8.7c1.4,2.5,3,4.8,4.8,7
		c1.8,2.1,3.9,4.1,6.2,5.8c4.7,3.6,9.9,6.1,15.3,7.5l0.3,0.1c5.7,1.4,11.6,1.6,17.3,0.6c3.2-0.5,5.9-1.5,8.9-2.5
		c1.5-0.7,3-1.4,4.5-2.2c2.4-1.3,4.7-3,6.9-4.8c2-1.7,3.8-3.6,5.5-5.7l0.3-0.4c2.1-2.7,3.8-5.5,5.1-8.5c1.4-3,2.4-6.2,3-9.4
		c1.5-9.3,0.6-18.1-3.7-26.6c-1.4-2.8-3.1-5.5-5.1-7.9c-1.9-2.3-4.2-4.6-6.7-6.5c-1.4-1.1-2.9-2.1-4.4-3
		C499.7,349.9,498.2,349.2,496.7,348.5L496.7,348.5z M498.6,362.6c1.8,1.4,3.5,3,4.9,4.8c1.5,1.8,2.7,3.7,3.7,5.7
		c3.1,6.5,3.9,12.5,2.7,19.6c-0.4,2.3-1.2,4.7-2.2,6.9c-1,2.1-2.2,4.2-3.8,6.2l-0.2,0.3c-1.2,1.5-2.6,2.9-4,4.1
		c-1.6,1.3-3.2,2.5-5,3.5c-1.1,0.6-2.2,1.1-3.4,1.6c-2.4,0.9-4,1.4-6.6,1.9c-4.2,0.7-8.5,0.6-12.6-0.5l-0.2-0.1
		c-4-1-7.8-2.9-11.3-5.5c-1.7-1.3-3.2-2.7-4.5-4.3c-1.4-1.6-2.6-3.3-3.6-5.1c-1.6-2.7-2.4-5.5-3.1-8.4l-0.4-2.1
		c-0.5-4.7-0.4-8.3,0.9-12.9c0.5-1.8,1.2-3.6,2.1-5.4l0.1-0.3c0.9-1.6,1.9-3.2,3-4.7c1.5-1.9,3.2-3.7,5.1-5.2c1.9-1.5,4-2.8,6.1-3.8
		c8.9-4,16.6-3.8,25.7-0.3c1,0.5,2.1,1,3.2,1.7C496.5,361,497.6,361.8,498.6,362.6L498.6,362.6z"/>
</g>
</svg>
