<?xml version="1.0" encoding="utf-8"?>
<!-- Generator: Adobe Illustrator 23.0.1, SVG Export Plug-In . SVG Version: 6.00 Build 0)  -->
<svg version="1.1" id="Layer_1" xmlns="http://www.w3.org/2000/svg" xmlns:xlink="http://www.w3.org/1999/xlink" x="0px" y="0px"
	 viewBox="0 0 700 700" style="enable-background:new 0 0 700 700;" xml:space="preserve">
<g>
	<path d="M249.2,0H294v22.4h-44.8L249.2,0z"/>
	<path d="M338.8,0h22.4v22.4H406v22.4h-67.2V0z"/>
	<path d="M428.4,0h22.4v246.4h-22.4v-44.8H406V224h-22.4v-22.4h-22.4v-22.4h-22.4V112h-22.4V67.2h-67.2V44.8H294V22.4h22.4v22.4
		h22.4v22.4H406v22.4h-44.8v67.2h22.4v-22.4H406v44.8h22.4V112H406V89.6h22.4V0z"/>
	<path d="M70,0v156.8h156.8V0H70z M204.4,134.4h-112v-112h112V134.4z"/>
	<path d="M473.2,0v156.8H630V0H473.2z M607.6,134.4h-112v-112h112V134.4z"/>
	<path d="M114.8,44.8H182V112h-67.2L114.8,44.8z"/>
	<path d="M518,44.8h67.2V112H518V44.8z"/>
	<path d="M249.2,89.6H294v44.8h-22.4V112h-22.4L249.2,89.6z"/>
	<path d="M249.2,134.4h22.4v22.4H294v-22.4h22.4v44.8h22.4v22.4h22.4V224h-22.4v22.4h-22.4v-44.8H294v-22.4h-44.8L249.2,134.4z"/>
	<path d="M182,179.2h44.8v22.4H182V179.2z"/>
	<path d="M518,179.2h22.4v22.4H518V179.2z"/>
	<path d="M562.8,179.2h22.4V224H630v67.2h-44.8v-44.8h-22.4V179.2z"/>
	<path d="M607.6,179.2H630v22.4h-22.4V179.2z"/>
	<path d="M92.4,201.6h44.8V224H92.4L92.4,201.6z"/>
	<path d="M159.6,201.6H182V224h-22.4V201.6z"/>
	<path d="M70,224h22.4v22.4H70V224z"/>
	<path d="M204.4,224h22.4v22.4h-22.4V224z"/>
	<path d="M114.8,246.4h44.8v44.8h-22.4v22.4h-22.4v-22.4H92.4v-22.4h22.4L114.8,246.4z"/>
	<path d="M182,246.4h22.4v22.4H182V246.4z"/>
	<path d="M406,246.4h22.4v22.4H406V246.4z"/>
	<path d="M204.4,268.8h22.4v22.4h-22.4V268.8z"/>
	<path d="M70,291.2h22.4v89.6H70V291.2z"/>
	<path d="M159.6,291.2H182v22.4h-22.4V291.2z"/>
	<path d="M137.2,313.6h22.4V336h-22.4V313.6z"/>
	<path d="M204.4,313.6h22.4V336h-22.4V313.6z"/>
	<path d="M249.2,313.6h22.4V336H294v44.8h-22.4v22.4h-22.4L249.2,313.6z"/>
	<path d="M495.6,313.6h44.8V336h-44.8V313.6z"/>
	<path d="M585.2,313.6H630V336h-44.8V313.6z"/>
	<path d="M159.6,336H182v22.4h-22.4V336z"/>
	<path d="M114.8,358.4h22.4v22.4h-22.4L114.8,358.4z"/>
	<path d="M182,358.4h44.8v22.4H182V358.4z"/>
	<path d="M294,380.8h22.4v22.4H294V380.8z"/>
	<path d="M630,380.8v-22.4h-44.8V336h-44.8v22.4h-89.6V336h22.4v-22.4h22.4v-22.4h44.8v22.4h22.4v-67.2l-22.4,0V224H518v22.4h-22.4
		V224H518v-22.4h-22.4v-22.4l-22.4,0v67.2h-22.4v67.2l-44.8,0v-44.8h-22.4v44.8h-22.4v-67.2h-22.4v44.8h-22.4v-44.8h-67.2v22.4h22.4
		v44.8H294V336h22.4v-22.4h22.4l0,22.4h-22.4v44.8h22.4v22.4h22.4v-44.8h22.4v44.8H406v-22.4h22.4v22.4H406v22.4h-22.4v67.2h-44.8
		v22.4h44.8l0,22.4h-44.8V560h112v-22.4h-22.4v-22.4H406V448h22.4v22.4h22.4v22.4h22.4v-22.4h67.2v22.4h22.4v-22.4h22.4V448h-22.4
		v-44.8h-22.4v-22.4L630,380.8z M428.4,358.4H406V336h22.4V358.4z M518,448h-67.2v-67.2H518V448z"/>
	<path d="M316.4,403.2h22.4V448h-22.4V403.2z"/>
	<path d="M473.2,403.2h22.4v22.4h-22.4V403.2z"/>
	<path d="M607.6,403.2H630V448h-22.4V403.2z"/>
	<path d="M70,403.2V560h156.8V403.2H70z M204.4,537.6h-112v-112h112V537.6z"/>
	<path d="M249.2,425.6H294v44.8h22.4v22.4H294v22.4h-22.4V448h-22.4L249.2,425.6z"/>
	<path d="M114.8,448H182v67.2h-67.2L114.8,448z"/>
	<path d="M338.8,448h22.4v22.4h-22.4V448z"/>
	<path d="M607.6,470.4H630V560h-22.4V470.4z"/>
	<path d="M428.4,492.8h22.4v22.4h-22.4V492.8z"/>
	<path d="M473.2,492.8H518v22.4h44.8V560h-22.4v-22.4h-44.8V560h-22.4L473.2,492.8z"/>
	<path d="M562.8,492.8h22.4v22.4h-22.4V492.8z"/>
	<path d="M316.4,515.2h22.4v22.4h-22.4V515.2z"/>
	<path d="M271.6,537.6H294V560h-22.4V537.6z"/>
</g>
</svg>
