<?xml version="1.0" encoding="utf-8"?>
<!-- Generator: Adobe Illustrator 23.0.1, SVG Export Plug-In . SVG Version: 6.00 Build 0)  -->
<svg version="1.1" id="Layer_1" xmlns="http://www.w3.org/2000/svg" xmlns:xlink="http://www.w3.org/1999/xlink" x="0px" y="0px"
	 viewBox="0 0 700 700" style="enable-background:new 0 0 700 700;" xml:space="preserve">
<g>
	<path d="M500.1,240.2c0,11.8-1.1,23.5-3.9,35.3c-0.6,3.4-1.7,6.2-2.2,9c-2.2,7.3,2.2,15.1,9.5,17.4c1.1,0.6,2.8,0.6,3.9,0.6
		c6.2,0,11.8-3.9,13.4-10.1c1.1-3.4,2.2-7.3,2.8-10.6c3.4-13.4,5-27.4,5-41.4c0-28.6-6.2-55.4-19-81.2c-3.4-6.7-11.8-10.1-18.5-6.2
		c-6.7,3.4-9.5,11.8-6.2,18.5C495,193.2,500.1,216.2,500.1,240.2L500.1,240.2z"/>
	<path d="M165.2,281.7c1.1,3.9,1.7,7.3,2.8,10.6c1.7,6.2,7.3,10.1,13.4,10.1c1.1,0,2.8,0,3.9-0.6c7.3-2.2,11.8-10.1,9.5-17.4
		c-1.1-2.8-1.7-6.2-2.2-9c-2.8-11.8-3.9-23.5-3.9-35.3c0-24.1,5.6-47,15.7-68.9c3.4-6.7,0.6-15.1-6.2-18.5s-15.1-0.6-18.5,6.2
		c-12.3,25.2-19,52.6-19,81.2C160.7,254.2,162.4,268.2,165.2,281.7L165.2,281.7z"/>
	<path d="M189.3,409.4c2.2,4.5,7.3,7.3,12.3,7.3h285.6c5,0,9.5-2.8,12.3-7.3c2.2-4.5,2.2-9.5,0-14l-27.4-47l0-113.1
		c0-65.5-49.8-119.3-113.1-126.6v-9c0-7.8-6.2-14-14-14s-14,6.2-14,14v9c-64.4,7.3-113.7,61-113.7,126.6v113.1l-27.4,47
		C187,399.8,187,405.4,189.3,409.4L189.3,409.4z M243,359c1.1-2.2,1.7-4.5,1.7-7.3V235.2c0-54.9,44.2-99.1,99.1-99.1
		c54.9,0,99.7,44.2,99.7,99.1v117c0,2.2,0.6,5,1.7,7.3l17.4,29.7H226.2L243,359z"/>
	<path d="M397.6,437.9c0-7.8-6.2-14-14-14s-14,6.2-14,14c0,14-11.2,25.2-25.2,25.2s-25.2-11.2-25.2-25.2c0-7.8-6.2-14-14-14
		s-14,6.2-14,14c0,29.1,24.1,53.2,53.2,53.2C373.5,491.1,397.6,467.6,397.6,437.9z"/>
	<path d="M388.1,168c-6.2-4.5-15.1-2.8-19.6,3.9c-4.5,6.2-2.8,15.1,3.9,19.6c14,9.5,21.8,24.6,21.8,41.4c0,7.8,6.2,14,14,14
		s14-6.2,14-14C422.2,206.6,409.4,182.6,388.1,168L388.1,168z"/>
	<path d="M132.7,328.2c1.7,0,3.4,0,4.5-0.6c7.3-2.8,11.2-10.6,8.4-17.9c-7.8-22.4-11.8-45.4-11.8-69.4c0-38.6,10.6-76.2,30.8-109.2
		c3.9-6.7,1.7-15.1-4.5-19c-6.7-3.9-15.1-1.7-19,4.5c-23,37-34.7,80.1-34.7,123.8c0,26.9,4.5,53.2,13.4,78.4
		C121.5,324.2,127.1,328.2,132.7,328.2L132.7,328.2z"/>
	<path d="M554.4,240.2c0,23.5-3.9,47-11.8,69.4c-2.8,7.3,1.1,15.1,8.4,17.9c1.7,0.6,3.4,0.6,4.5,0.6c5.6,0,11.2-3.4,13.4-9.5
		c9-25.2,13.4-51.5,13.4-78.4c0-42-11.2-83.4-32.5-119.3c-3.9-6.7-12.3-9-19-5s-9,12.3-5,19C544.3,166.9,554.4,203.3,554.4,240.2
		L554.4,240.2z"/>
</g>
</svg>
