<?xml version="1.0" encoding="utf-8"?>
<!-- Generator: Adobe Illustrator 23.0.1, SVG Export Plug-In . SVG Version: 6.00 Build 0)  -->
<svg version="1.1" id="Layer_1" xmlns="http://www.w3.org/2000/svg" xmlns:xlink="http://www.w3.org/1999/xlink" x="0px" y="0px"
	 viewBox="0 0 700 700" style="enable-background:new 0 0 700 700;" xml:space="preserve">
<g>
	<path d="M453,179.5H348.1c-4.8,0-8.8-3.9-8.8-8.8s3.9-8.8,8.8-8.8h104.8c4.8,0,8.8,3.9,8.8,8.8S457.8,179.5,453,179.5L453,179.5z"
		/>
	<path d="M488,214.5H383.1c-4.8,0-8.8-3.9-8.8-8.8s3.9-8.8,8.8-8.8h104.8c4.8,0,8.8,3.9,8.8,8.8S492.8,214.5,488,214.5L488,214.5z"
		/>
	<path d="M488,144.5H383.1c-4.8,0-8.8-3.9-8.8-8.8s3.9-8.8,8.8-8.8h104.8c4.8,0,8.8,3.9,8.8,8.8S492.8,144.5,488,144.5L488,144.5z"
		/>
	<path d="M488,144.5c-4.8,0-8.8-3.9-8.8-8.8v-28.5c0-4.8,3.9-8.8,8.8-8.8s8.8,3.9,8.8,8.8v28.5C496.7,140.6,492.8,144.5,488,144.5z"
		/>
	<path d="M488,243c-4.8,0-8.8-3.9-8.8-8.8v-28.5c0-4.8,3.9-8.8,8.8-8.8s8.8,3.9,8.8,8.8v28.5C496.7,239.1,492.8,243,488,243z"/>
	<path d="M488,243c-2,0-3.9-0.7-5.6-2c-3.7-3.1-4.3-8.6-1.2-12.3l52.5-63.5c3.1-3.7,8.6-4.3,12.3-1.2c3.7,3.1,4.3,8.6,1.2,12.3
		l-52.5,63.5C493,241.9,490.5,243,488,243L488,243z"/>
	<path d="M540.5,179.5c-2.5,0-5-1.1-6.7-3.2l-52.5-63.5c-3.1-3.7-2.6-9.2,1.2-12.3c3.7-3.1,9.3-2.5,12.3,1.2l52.5,63.5
		c3.1,3.7,2.6,9.2-1.2,12.3C544.4,178.8,542.4,179.5,540.5,179.5L540.5,179.5z"/>
	<path d="M269.4,211.8c-1.5,0-3-0.4-4.4-1.2l-55.9-32.3c-4.2-2.4-5.6-7.8-3.2-12c2.4-4.2,7.8-5.6,12-3.2l55.9,32.3
		c4.2,2.4,5.6,7.8,3.2,12C275.3,210.2,272.4,211.8,269.4,211.8L269.4,211.8z"/>
	<path d="M122.5,232c-3,0-6-1.6-7.6-4.4c-2.4-4.2-1-9.5,3.2-12l90.9-52.5c4.2-2.4,9.5-1,12,3.2c2.4,4.2,1,9.5-3.2,12l-90.9,52.5
		C125.5,231.6,124,232,122.5,232L122.5,232z"/>
	<path d="M213.4,179.5c-4.8,0-8.8-3.9-8.8-8.8v-105c0-4.8,3.9-8.8,8.8-8.8s8.8,3.9,8.8,8.8v105C222.2,175.6,218.3,179.5,213.4,179.5
		z"/>
	<path d="M213.4,284.5c-1.5,0-3-0.4-4.4-1.2l-90.9-52.5c-2.7-1.6-4.4-4.5-4.4-7.6v-105c0-3.1,1.7-6,4.4-7.6l90.9-52.5
		c2.7-1.6,6-1.6,8.8,0l90.9,52.5c2.7,1.6,4.4,4.5,4.4,7.6v105c0,3.1-1.7,6-4.4,7.6l-90.9,52.5C216.5,284.1,214.9,284.5,213.4,284.5z
		 M131.3,218.2l82.2,47.5l82.2-47.5v-94.9l-82.2-47.5l-82.2,47.5V218.2z"/>
	<path d="M363.8,415.7H259c-4.8,0-8.8-3.9-8.8-8.8s3.9-8.8,8.8-8.8h104.8c4.8,0,8.8,3.9,8.8,8.8S368.7,415.7,363.8,415.7z"/>
	<path d="M328.8,450.7H224c-4.8,0-8.8-3.9-8.8-8.8s3.9-8.8,8.8-8.8h104.8c4.8,0,8.8,3.9,8.8,8.8S333.7,450.7,328.8,450.7z"/>
	<path d="M328.8,380.7H224c-4.8,0-8.8-3.9-8.8-8.8s3.9-8.8,8.8-8.8h104.8c4.8,0,8.8,3.9,8.8,8.8S333.7,380.7,328.8,380.7z"/>
	<path d="M224,380.7c-4.8,0-8.8-3.9-8.8-8.8v-28.5c0-4.8,3.9-8.8,8.8-8.8s8.8,3.9,8.8,8.8V372C232.8,376.8,228.8,380.7,224,380.7z"
		/>
	<path d="M224,479.3c-4.8,0-8.8-3.9-8.8-8.8V442c0-4.8,3.9-8.8,8.8-8.8s8.8,3.9,8.8,8.8v28.5C232.8,475.3,228.8,479.3,224,479.3z"/>
	<path d="M224,479.3c-2.5,0-5-1.1-6.7-3.2l-52.5-63.5c-3.1-3.7-2.6-9.2,1.2-12.3c3.7-3.1,9.3-2.5,12.3,1.2l52.5,63.5
		c3.1,3.7,2.6,9.2-1.2,12.3C227.9,478.6,226,479.3,224,479.3L224,479.3z"/>
	<path d="M171.5,415.7c-2,0-3.9-0.7-5.6-2c-3.7-3.1-4.3-8.6-1.2-12.3l52.5-63.5c3.1-3.7,8.6-4.3,12.3-1.2c3.7,3.1,4.3,8.6,1.2,12.3
		l-52.5,63.5C176.5,414.6,174,415.7,171.5,415.7L171.5,415.7z"/>
	<path d="M490,468.2c-4.8,0-8.8-3.9-8.8-8.8v-13.1c0-4.8,3.9-8.8,8.8-8.8s8.8,3.9,8.8,8.8v13.1C498.8,464.3,494.8,468.2,490,468.2z"
		/>
	<path d="M490,376.4c-4.8,0-8.8-3.9-8.8-8.8v-13.1c0-4.8,3.9-8.8,8.8-8.8s8.8,3.9,8.8,8.8v13.1C498.8,372.4,494.8,376.4,490,376.4z"
		/>
	<path d="M516.3,389.5c-4.8,0-8.8-3.9-8.8-8.8c0-2.4-2-4.4-4.4-4.4c-4.8,0-8.8-3.9-8.8-8.8s3.9-8.8,8.8-8.8
		c12.1,0,21.9,9.8,21.9,21.9C525,385.6,521.1,389.5,516.3,389.5z"/>
	<path d="M503.1,376.4h-26.3c-4.8,0-8.8-3.9-8.8-8.8s3.9-8.8,8.8-8.8h26.3c4.8,0,8.8,3.9,8.8,8.8S508,376.4,503.1,376.4z"/>
	<path d="M476.9,455.1c-12.1,0-21.9-9.8-21.9-21.9c0-4.8,3.9-8.8,8.8-8.8s8.8,3.9,8.8,8.8c0,2.4,2,4.4,4.4,4.4
		c4.8,0,8.8,3.9,8.8,8.8S481.7,455.1,476.9,455.1z"/>
	<path d="M503.1,455.1h-26.3c-4.8,0-8.8-3.9-8.8-8.8s3.9-8.8,8.8-8.8h26.3c4.8,0,8.8,3.9,8.8,8.8S508,455.1,503.1,455.1z"/>
	<path d="M463.8,389.5c-4.8,0-8.8-3.9-8.8-8.8c0-12.1,9.8-21.9,21.9-21.9c4.8,0,8.8,3.9,8.8,8.8s-3.9,8.8-8.8,8.8
		c-2.4,0-4.4,2-4.4,4.4C472.5,385.6,468.6,389.5,463.8,389.5z"/>
	<path d="M463.8,402.6c-4.8,0-8.8-3.9-8.8-8.8v-13.1c0-4.8,3.9-8.8,8.8-8.8s8.8,3.9,8.8,8.8v13.1
		C472.5,398.7,468.6,402.6,463.8,402.6z"/>
	<path d="M476.9,415.7c-12.1,0-21.9-9.8-21.9-21.9c0-4.8,3.9-8.8,8.8-8.8s8.8,3.9,8.8,8.8c0,2.4,2,4.4,4.4,4.4
		c4.8,0,8.8,3.9,8.8,8.8S481.7,415.7,476.9,415.7z"/>
	<path d="M503.1,415.7h-26.3c-4.8,0-8.8-3.9-8.8-8.8s3.9-8.8,8.8-8.8h26.3c4.8,0,8.8,3.9,8.8,8.8S508,415.7,503.1,415.7z"/>
	<path d="M516.3,428.9c-4.8,0-8.8-3.9-8.8-8.8c0-2.4-2-4.4-4.4-4.4c-4.8,0-8.8-3.9-8.8-8.8s3.9-8.8,8.8-8.8
		c12.1,0,21.9,9.8,21.9,21.9C525,424.9,521.1,428.9,516.3,428.9z"/>
	<path d="M516.3,442c-4.8,0-8.8-3.9-8.8-8.8v-13.1c0-4.8,3.9-8.8,8.8-8.8c4.8,0,8.8,3.9,8.8,8.8v13.1C525,438.1,521.1,442,516.3,442
		z"/>
	<path d="M503.1,455.1c-4.8,0-8.8-3.9-8.8-8.8s3.9-8.8,8.8-8.8c2.4,0,4.4-2,4.4-4.4c0-4.8,3.9-8.8,8.8-8.8c4.8,0,8.8,3.9,8.8,8.8
		C525,445.3,515.2,455.1,503.1,455.1z"/>
	<path d="M490.1,503c-23.6,0-46.2-8.4-63.6-23.7c-33.1-29.1-42.2-78.4-21.7-117.2c16.5-31.2,50.1-51.3,85.6-51.3
		c7.8,0,15.5,0.9,23,2.8c42.2,10.6,72.8,49.8,72.8,93.4c0,31.1-15.2,60.5-40.6,78.6C529.5,497,510.3,503,490.1,503L490.1,503z
		 M490.5,328.3c-29.2,0-56.7,16.5-70.2,42c-16.8,31.8-9.3,72.1,17.7,95.9c14.2,12.5,32.7,19.4,52.1,19.4c16.5,0,32.2-4.9,45.4-14.3
		c20.8-14.8,33.3-38.8,33.3-64.3c0-35.6-25-67.7-59.5-76.4C503.1,329.1,496.8,328.3,490.5,328.3L490.5,328.3z"/>
</g>
</svg>
