<?xml version="1.0" encoding="utf-8"?>
<!-- Generator: Adobe Illustrator 23.0.1, SVG Export Plug-In . SVG Version: 6.00 Build 0)  -->
<svg version="1.1" id="Layer_1" xmlns="http://www.w3.org/2000/svg" xmlns:xlink="http://www.w3.org/1999/xlink" x="0px" y="0px"
	 viewBox="0 0 700 700" style="enable-background:new 0 0 700 700;" xml:space="preserve">
<style type="text/css">
	.st0{fill-rule:evenodd;clip-rule:evenodd;}
</style>
<path class="st0" d="M383.34,226.14c0,17.53,10.04,21.69,22.44,9.3l125.31-125.31c14.46-14.46,37.79-14.43,52.2-0.02
	c14.99,14.99,15.02,38.4,0.6,52.82L458.57,288.23c-12.39,12.39-8.24,22.44,9.3,22.44h177.21c20.44,0,36.92,16.52,36.92,36.9
	c0,21.2-16.53,37.77-36.92,37.77H467.86c-17.53,0-21.69,10.04-9.3,22.44l125.31,125.31c14.46,14.46,14.43,37.79,0.02,52.2
	c-14.99,14.99-38.4,15.02-52.82,0.6L405.77,460.57c-12.39-12.39-22.44-8.24-22.44,9.3v177.21c0,20.44-16.52,36.92-36.9,36.92
	c-21.2,0-37.77-16.53-37.77-36.92V469.86c0-17.53-10.04-21.69-22.44-9.3L160.92,585.87c-14.46,14.46-37.79,14.43-52.2,0.02
	c-14.99-14.99-15.02-38.4-0.6-52.82l125.31-125.31c12.39-12.39,8.24-22.44-9.3-22.44H46.92c-20.44,0-36.92-16.52-36.92-36.9
	c0-21.2,16.53-37.77,36.92-37.77h177.21c17.53,0,21.69-10.04,9.3-22.44L108.12,162.92c-14.46-14.46-14.43-37.79-0.02-52.2
	c14.99-14.99,38.4-15.02,52.82-0.6l125.31,125.31c12.39,12.39,22.44,8.24,22.44-9.3V48.92c0-20.44,16.52-36.92,36.9-36.92
	c21.2,0,37.77,16.53,37.77,36.92L383.34,226.14z"/>
</svg>
