<?xml version="1.0" encoding="utf-8"?>
<!-- Generator: Adobe Illustrator 23.0.1, SVG Export Plug-In . SVG Version: 6.00 Build 0)  -->
<svg version="1.1" id="Layer_1" xmlns="http://www.w3.org/2000/svg" xmlns:xlink="http://www.w3.org/1999/xlink" x="0px" y="0px"
	 viewBox="0 0 700 700" style="enable-background:new 0 0 700 700;" xml:space="preserve">
<style type="text/css">
	.st0{fill-rule:evenodd;clip-rule:evenodd;}
</style>
<g>
	<path class="st0" d="M303.8,326.2c-23.1-23-43.5-48.5-60.9-75.9c-6.3-10-6.3-22.1,0.2-32l24.8-38.3c5.3-8.2,6.3-17.5,2.9-26.6
		L228.1,39.8c-6.7-17.8-27.8-24.8-43.8-14.6c-19.8,12.7-39.6,25.3-59.5,38C97.7,80.5,85.1,111.7,92.6,143
		c23,96.4,73.2,183.2,142.6,251.9c68.6,69.4,155.4,119.6,251.9,142.6c31.3,7.5,62.5-5.1,79.9-32.3c12.7-19.8,25.3-39.7,38-59.5
		c10.2-16,3.2-37.1-14.6-43.8l-113.6-42.6c-9.1-3.4-18.4-2.4-26.6,2.9l-38.3,24.8c-10,6.4-22,6.5-32,0.2
		C352.3,369.7,326.8,349.3,303.8,326.2L303.8,326.2z"/>
</g>
</svg>
