<?xml version="1.0" encoding="utf-8"?>
<!-- Generator: Adobe Illustrator 23.0.1, SVG Export Plug-In . SVG Version: 6.00 Build 0)  -->
<svg version="1.1" id="Layer_1" xmlns="http://www.w3.org/2000/svg" xmlns:xlink="http://www.w3.org/1999/xlink" x="0px" y="0px"
	 viewBox="0 0 700 700" style="enable-background:new 0 0 700 700;" xml:space="preserve">
<g>
	<path d="M478.3,84.6H221.7c-21.7,0-42.4,8.6-57.7,23.9c-15.3,15.3-23.9,36.1-23.9,57.7v163.3c0,21.7,8.6,42.4,23.9,57.7
		c15.3,15.3,36.1,23.9,57.7,23.9h64.5l54.8,65.8h0c2.2,2.7,5.5,4.2,9,4.2c3.5,0,6.7-1.5,9-4.2l54.8-65.8h64.5
		c21.7,0,42.4-8.6,57.7-23.9c15.3-15.3,23.9-36.1,23.9-57.7V166.3c0-21.7-8.6-42.4-23.9-57.7C520.7,93.2,500,84.6,478.3,84.6
		L478.3,84.6z M536.7,329.6L536.7,329.6c0,15.5-6.2,30.3-17.1,41.2c-10.9,10.9-25.8,17.1-41.2,17.1h-70c-3.5,0-6.7,1.5-9,4.2
		L350,451.4l-49.4-59.2c-2.2-2.7-5.5-4.2-9-4.2h-70c-15.5,0-30.3-6.2-41.2-17.1c-10.9-10.9-17.1-25.8-17.1-41.2V166.3
		c0-15.5,6.2-30.3,17.1-41.2c10.9-10.9,25.8-17.1,41.2-17.1h256.7c15.5,0,30.3,6.2,41.2,17.1c10.9,10.9,17.1,25.8,17.1,41.2
		L536.7,329.6z"/>
	<path d="M350,154.6c-12.4,0-24.2,4.9-33,13.7c-8.7,8.8-13.7,20.6-13.7,33c0,6.4,5.2,11.7,11.7,11.7s11.7-5.2,11.7-11.7
		c0-8.3,4.4-16,11.7-20.2s16.1-4.2,23.3,0s11.7,11.9,11.7,20.2c0,12.7-5.6,16.9-14.2,23.3c-8.8,6.6-20.8,15.5-20.8,35.1
		c0,6.4,5.2,11.7,11.7,11.7s11.7-5.2,11.7-11.7c0-7.5,3.3-10.3,11.5-16.3c9.9-7.4,23.5-17.5,23.5-42c0-12.4-4.9-24.2-13.7-33
		C374.2,159.5,362.4,154.6,350,154.6z"/>
	<path d="M350,294.6c-6.2,0-12.1,2.5-16.5,6.8s-6.8,10.3-6.8,16.5c0,6.2,2.5,12.1,6.8,16.5c4.4,4.4,10.3,6.8,16.5,6.8
		s12.1-2.5,16.5-6.8c4.4-4.4,6.8-10.3,6.8-16.5c0-6.2-2.5-12.1-6.8-16.5S356.2,294.6,350,294.6L350,294.6z"/>
</g>
</svg>
