<?xml version="1.0" encoding="utf-8"?>
<!-- Generator: Adobe Illustrator 23.0.1, SVG Export Plug-In . SVG Version: 6.00 Build 0)  -->
<svg version="1.1" id="Layer_1" xmlns="http://www.w3.org/2000/svg" xmlns:xlink="http://www.w3.org/1999/xlink" x="0px" y="0px"
	 viewBox="0 0 700 700" style="enable-background:new 0 0 700 700;" xml:space="preserve">
<g>
	<path d="M437.1,332.5c0.6,4.3,4.4,7.6,8.8,7.5c0.4,0,0.8,0,1.3,0l75.8-10.9v0c2.3-0.3,4.4-1.6,5.8-3.4c1.4-1.9,2-4.2,1.7-6.5
		l-5.3-36c-0.3-2.3-1.5-4.4-3.4-5.7c-1.9-1.4-4.2-2-6.5-1.7l-75.8,10.9c-2.3,0.3-4.4,1.6-5.8,3.4c-1.4,1.9-2,4.2-1.7,6.5
		L437.1,332.5z M508.9,294.3l2.7,18.6l-58.4,8.6l-2.5-18.6L508.9,294.3z"/>
	<path d="M630,428.8l-11.2-78c-0.3-2.3-1.6-4.4-3.4-5.8s-4.2-2-6.5-1.6l-30.3,4.4L536.1,53.3c-0.4-2.3-1.6-4.4-3.4-5.8
		c-1.9-1.4-4.2-2-6.5-1.6L419,61.2h-1.2l-86.6,12.5l-0.8,0.2h-0.9l-97.6,14.2l-10.2-69.3c-0.3-2.3-1.6-4.4-3.4-5.8
		c-1.9-1.4-4.2-2-6.5-1.7L77.5,30.6c-2.4,0.3-4.5,1.5-5.9,3.5c-1.4,1.9-2,4.3-1.6,6.7l5,34.6v0c0.7,4.8,5.1,8.1,9.9,7.4l69.3-10
		l41.6,288.8v0c-26,14.3-44.3,39.5-49.9,68.6c-5.6,29.2,2.1,59.3,21,82.2c18.9,22.9,47,36.2,76.7,36.2c4.8,0,9.7-0.4,14.4-1.1
		c18.5-2.7,35.8-10.5,50.1-22.5c14.3-12,24.9-27.9,30.6-45.6l283.7-40.9c2.3-0.3,4.4-1.6,5.8-3.4C629.6,433.3,630.3,431,630,428.8
		L630,428.8z M411.7,79.9l19.6,135.6l-32.6-19.1c-3.5-2.1-8-1.4-10.8,1.6l-25.9,27.5L342.4,89.9L411.7,79.9z M325.1,92.4l22.2,153.7
		c0.5,3.3,2.8,6.1,6,7.1c0.9,0.3,1.8,0.4,2.7,0.4c2.4,0,4.7-1,6.3-2.8l33.6-35.6l42.3,24.7h0c2.9,1.7,6.5,1.6,9.3-0.2
		c2.8-1.9,4.3-5.2,3.8-8.5L429,77.4l90.9-13.1L561.1,350l-240.9,35c-13.1-15.7-30.7-27-50.4-32.2l-35.6-247.3L325.1,92.4z
		 M170.4,61.8c-0.4-2.3-1.6-4.4-3.4-5.8c-1.9-1.4-4.2-2-6.5-1.6l-69.3,9.8l-2.5-17.5l116.9-16.7l46,319.4c-13.2-1-26.6,0.6-39.1,4.9
		L170.4,61.8z M255.6,530.3c-21.6,3.1-43.5-2.5-61-15.5c-17.5-13.1-29-32.5-32.1-54.1c-3.1-21.6,2.5-43.5,15.5-61
		c13.1-17.5,32.5-29,54.1-32.1c3.9-0.6,7.9-0.9,11.8-0.9c27.9,0.1,53.9,14.4,69,37.9c15.1,23.5,17.2,53.1,5.6,78.5
		C306.9,508.4,283.2,526.2,255.6,530.3L255.6,530.3z M342.8,461.1c1.1-8.8,1-17.7-0.2-26.5c-1.7-11.8-5.6-23.3-11.3-33.7l241.1-34.7
		l30.3-4.4l8.8,60.6L342.8,461.1z"/>
</g>
</svg>
