<?xml version="1.0" encoding="utf-8"?>
<!-- Generator: Adobe Illustrator 23.0.1, SVG Export Plug-In . SVG Version: 6.00 Build 0)  -->
<svg version="1.1" id="Layer_1" xmlns="http://www.w3.org/2000/svg" xmlns:xlink="http://www.w3.org/1999/xlink" x="0px" y="0px"
	 viewBox="0 0 700 700" style="enable-background:new 0 0 700 700;" xml:space="preserve">
<g>
	<path d="M392.1,481.3H213.3c-7.5,0-13.7-6.1-13.7-13.7V103.9H257c8,0,15.6-3.2,21.3-8.8c5.6-5.6,8.8-13.3,8.8-21.3V16.4h232.4
		c7.5,0,13.7,6.1,13.7,13.7v226.4c0,4.5,3.7,8.2,8.2,8.2s8.2-3.7,8.2-8.2V30.1c0-8-3.2-15.6-8.8-21.3C535.1,3.2,527.5,0,519.5,0
		H278.9c-2.2,0-4.3,0.9-5.8,2.4l-87.5,87.5c-1.5,1.5-2.4,3.6-2.4,5.8v371.9c0,8,3.2,15.6,8.8,21.3c5.6,5.6,13.3,8.8,21.3,8.8h178.8
		c4.5,0,8.2-3.7,8.2-8.2S396.6,481.3,392.1,481.3L392.1,481.3z M270.7,28v45.8c0,7.5-6.1,13.7-13.7,13.7h-45.8L270.7,28z"/>
	<path d="M478.5,187.4c2.2,0,4.3-0.9,5.8-2.4c1.5-1.5,2.4-3.6,2.4-5.8v-14.9c8.7-3.2,15.3-10.4,17.9-19.3c2.6-8.9,0.9-18.5-4.7-25.9
		c-5.5-7.4-14.3-11.8-23.5-11.8h-23.2c-7-0.2-12.6-6-12.6-13s5.6-12.8,12.6-13h37.9c4.5,0,8.2-3.7,8.2-8.2c0-4.5-3.7-8.2-8.2-8.2
		h-4.4V52c0-4.5-3.7-8.2-8.2-8.2s-8.2,3.7-8.2,8.2v13h-10.9V52c0-4.5-3.7-8.2-8.2-8.2S443,47.4,443,52v14.9
		c-8.7,3.2-15.3,10.4-17.9,19.3c-2.6,8.9-0.9,18.5,4.7,25.9s14.3,11.8,23.5,11.8h23.2c7,0.2,12.6,6,12.6,13s-5.6,12.8-12.6,13h-37.9
		c-4.5,0-8.2,3.7-8.2,8.2c0,4.5,3.7,8.2,8.2,8.2h4.4v13c0,4.5,3.7,8.2,8.2,8.2s8.2-3.7,8.2-8.2v-13h10.9v13
		C470.3,183.7,474,187.4,478.5,187.4L478.5,187.4z"/>
	<path d="M403,149.8H235.2c-4.5,0-8.2,3.7-8.2,8.2c0,4.5,3.7,8.2,8.2,8.2H403c4.5,0,8.2-3.7,8.2-8.2
		C411.3,153.4,407.6,149.8,403,149.8z"/>
	<path d="M403,116.9h-44.3c-4.5,0-8.2,3.7-8.2,8.2c0,4.5,3.7,8.2,8.2,8.2H403c4.5,0,8.2-3.7,8.2-8.2
		C411.3,120.6,407.6,116.9,403,116.9z"/>
	<path d="M235.2,116.9c-4.5,0-8.2,3.7-8.2,8.2c0,4.5,3.7,8.2,8.2,8.2h87.5c4.5,0,8.2-3.7,8.2-8.2c0-4.5-3.7-8.2-8.2-8.2H235.2z"/>
	<path d="M157.5,140.5V105c0-8.8-4.7-16.9-12.3-21.3c-7.6-4.4-17-4.4-24.6,0c-7.6,4.4-12.3,12.5-12.3,21.3v35.5
		c-4.5,0-8.2,3.7-8.2,8.2v24.6H89.1c-5.1,0-9.9,2-13.5,5.6c-3.6,3.6-5.6,8.5-5.6,13.5v76.6c0,4.5,3.7,8.2,8.2,8.2s8.2-3.7,8.2-8.2
		v-76.6c0-1.5,1.2-2.7,2.7-2.7h10.9v166.8c0,3.5,2.2,6.6,5.5,7.7V481c0,26.3,7,52.2,20.2,74.9c1.5,2.5,4.2,4.1,7.1,4.1
		s5.6-1.6,7.1-4.1c13.3-22.7,20.2-48.6,20.2-74.9V364.3c3.3-1.2,5.5-4.3,5.5-7.7V148.8c0-2.2-0.9-4.3-2.4-5.8
		C161.8,141.4,159.7,140.6,157.5,140.5L157.5,140.5z M124.7,105c0-4.5,3.7-8.2,8.2-8.2s8.2,3.7,8.2,8.2v35.5h-16.4L124.7,105z
		 M143.8,481c0,18.1-3.7,36-10.9,52.7C125.7,517,122,499.1,122,481V364.8h21.9L143.8,481z M149.3,348.4h-32.8V157h32.8V348.4z"/>
	<path d="M399.2,222.5H243.4v-20.8c0-4.5-3.7-8.2-8.2-8.2s-8.2,3.7-8.2,8.2v244c0,4.5,3.7,8.2,8.2,8.2s8.2-3.7,8.2-8.2v-20.8h90.2
		c2.2,0,4.3-0.9,5.8-2.4c1.5-1.5,2.4-3.6,2.4-5.8v-32.8c0-2.2-0.9-4.3-2.4-5.8c-1.5-1.5-3.6-2.4-5.8-2.4h-90.2v-27.3h123
		c2.2,0,4.3-0.9,5.8-2.4c1.5-1.5,2.4-3.6,2.4-5.8v-32.8c0-2.2-0.9-4.3-2.4-5.8c-1.5-1.5-3.6-2.4-5.8-2.4H243.4v-27.3h155.9
		c2.2,0,4.3-0.9,5.8-2.4c1.5-1.5,2.4-3.6,2.4-5.8v-32.8c0-2.2-0.8-4.3-2.4-5.8C403.5,223.4,401.4,222.5,399.2,222.5L399.2,222.5z
		 M325.4,392.1v16.4h-82v-16.4H325.4z M358.2,315.5v16.4H243.4v-16.4H358.2z M391,255.4H243.4v-16.4H391V255.4z"/>
	<path d="M476.9,472.5h38.3v27.3h-38.3V472.5z"/>
	<path d="M531.6,472.5h38.3v27.3h-38.3V472.5z"/>
	<path d="M531.6,428.8h38.3v27.3h-38.3V428.8z"/>
	<path d="M476.9,428.8h38.3v27.3h-38.3V428.8z"/>
	<path d="M476.9,341.3h93v27.3h-93V341.3z"/>
	<path d="M599.9,281.1H446.8c-8,0-15.6,3.2-21.3,8.8c-5.6,5.6-8.8,13.3-8.8,21.3v218.8c0,8,3.2,15.6,8.8,21.3
		c5.6,5.6,13.3,8.8,21.3,8.8h153.1c8,0,15.6-3.2,21.3-8.8c5.6-5.6,8.8-13.3,8.8-21.3V311.2c0-8-3.2-15.6-8.8-21.3
		C615.5,284.3,607.9,281.1,599.9,281.1L599.9,281.1z M586.2,508c0,2.2-0.9,4.3-2.4,5.8c-1.5,1.5-3.6,2.4-5.8,2.4H468.7
		c-4.5,0-8.2-3.7-8.2-8.2v-87.5c0-4.5,3.7-8.2,8.2-8.2H578c2.2,0,4.3,0.9,5.8,2.4c1.5,1.5,2.4,3.6,2.4,5.8V508z M586.2,376.8
		c0,2.2-0.9,4.3-2.4,5.8c-1.5,1.5-3.6,2.4-5.8,2.4H468.7c-4.5,0-8.2-3.7-8.2-8.2V333c0-4.5,3.7-8.2,8.2-8.2H578
		c2.2,0,4.3,0.9,5.8,2.4c1.5,1.5,2.4,3.6,2.4,5.8V376.8z"/>
</g>
</svg>
