<?xml version="1.0" encoding="utf-8"?>
<!-- Generator: Adobe Illustrator 23.0.1, SVG Export Plug-In . SVG Version: 6.00 Build 0)  -->
<svg version="1.1" id="Layer_1" xmlns="http://www.w3.org/2000/svg" xmlns:xlink="http://www.w3.org/1999/xlink" x="0px" y="0px"
	 viewBox="0 0 700 700" style="enable-background:new 0 0 700 700;" xml:space="preserve">
<g>
	<path d="M420.3,404.9L420.3,404.9c-41.9,0-90-23.4-131.9-64.2c-0.1-0.1-0.1-0.1-0.2-0.2c-40.8-41.9-64.2-90-64.2-131.9
		c0-15.4,7.9-31.7,22.3-45.7c9.9-9.7,24.5-19.4,34.8-19.4c15.9,0,20.1,7.5,26.5,18.9c1.6,2.8,3.3,5.9,5.6,9.7c1.3,2.1,3,4.8,4.9,7.6
		c11.7,17.9,19.1,30.4,15.1,40.9c-3.2,8.1-11.5,14.8-19.6,21.3c-3,2.4-7.3,5.8-9.2,7.9c1.5,8.2,12.2,25.5,30.8,44.1
		c18.6,18.6,35.9,29.3,44.1,30.8c2.1-1.9,5.5-6.2,7.8-9.1c6.5-8.1,13.2-16.5,21.4-19.7c1.9-0.7,3.9-1.1,6.1-1.1
		c9.3,0,20.3,6.7,34.7,16.2c2.8,1.8,5.5,3.6,7.6,4.9c3.8,2.3,6.9,4,9.7,5.6c11.4,6.4,18.9,10.6,18.9,26.5c0,10.3-9.8,24.9-19.4,34.8
		C451.9,397,435.7,404.9,420.3,404.9L420.3,404.9z M303.7,325.1C341,361.4,384.5,383,420.2,383c21.6,0,42.1-28,43.3-35.4
		c0-1.5-0.1-2.3-0.2-2.7c-1.1-1-4.5-2.9-7.6-4.6c-2.8-1.6-6.2-3.5-10.3-5.9c-2.5-1.5-5.3-3.4-8.3-5.3c-5.7-3.7-17.1-11.2-21.9-12.4
		c-3,2.1-8.2,8.7-11.2,12.4c-7.5,9.4-14,17.5-23.1,17.6c-22.3,0-52.6-28.6-61.4-37.4c-8.8-8.8-37.4-39.1-37.4-61.3
		c0-9.2,8.2-15.7,17.6-23.2c3.7-2.9,10.2-8.2,12.3-11.1c-1.3-4.9-8.7-16.2-12.4-21.9c-2-3-3.8-5.8-5.3-8.3
		c-2.5-4.1-4.4-7.5-5.9-10.3c-1.7-3-3.6-6.5-4.6-7.6c-0.4-0.1-1.2-0.2-2.7-0.2c-7.3,1.1-35.4,21.7-35.4,43.3
		C245.8,244.3,267.4,287.8,303.7,325.1L303.7,325.1z"/>
	<path d="M138.9,504.8c-2.8,0-5.5-1-7.6-3c-3.2-3-4.2-7.6-2.7-11.7l36.1-97.5c-26.4-41.4-38.8-90.5-34.9-139.1
		c4.1-51.2,26.2-99.3,62.2-135.3c40.6-40.6,95-63,153.1-63c60.2,0,117.1,23.7,160.2,66.8c87.4,87.4,89.2,227.9,3.9,313.2
		c-40.6,40.6-94.9,62.9-153,62.9h0c-42.1,0-83.1-11.8-119-34.1l-94,39.9C141.8,504.5,140.4,504.8,138.9,504.8L138.9,504.8z
		 M238.2,440.8c2.1,0,4.2,0.6,6,1.8c33.4,22,72.1,33.7,111.9,33.7c52.3,0,101.1-20.1,137.6-56.5c76.8-76.8,75-203.4-3.9-282.3
		c-39-39-90.3-60.4-144.7-60.4c-52.3,0-101.1,20.1-137.6,56.6c-66.2,66.2-75.3,171.9-21.6,251.4c2,2.9,2.4,6.6,1.2,9.9L158,473.9
		l75.9-32.2C235.3,441.1,236.7,440.8,238.2,440.8L238.2,440.8z"/>
</g>
</svg>
