<?xml version="1.0" encoding="utf-8"?>
<!-- Generator: Adobe Illustrator 23.0.1, SVG Export Plug-In . SVG Version: 6.00 Build 0)  -->
<svg version="1.1" id="Layer_1" xmlns="http://www.w3.org/2000/svg" xmlns:xlink="http://www.w3.org/1999/xlink" x="0px" y="0px"
	 viewBox="0 0 500 500" style="enable-background:new 0 0 500 500;" xml:space="preserve">
<style type="text/css">
	.st0{fill:none;stroke:#FFFFFF;stroke-width:5;stroke-miterlimit:10;}
</style>
<g>
	<path class="st0" d="M456.59,314.8c-5.6-14.24-1.53-34.08,9.15-45.27c10.68-10.68,10.68-28.49,0-39.17
		c-10.68-10.68-14.75-31.03-9.15-45.27s-1.02-30.01-14.75-36.12c-14.24-5.6-25.43-22.89-25.43-38.15s-12.21-27.47-27.47-27.47
		c-15.26,0-32.56-11.7-38.15-25.43c-5.6-14.24-21.87-20.86-36.12-14.75c-14.24,5.6-34.08,1.53-45.27-9.15
		c-10.68-10.68-28.49-10.68-39.17,0c-10.68,10.68-31.03,14.75-45.27,9.15s-30.01,1.02-36.12,14.75
		c-5.6,14.24-22.89,25.43-38.15,25.43s-27.47,12.21-27.47,27.47c0,15.26-11.7,32.56-25.43,38.15c-14.24,5.6-20.86,21.87-14.75,36.12
		c5.6,14.24,1.53,34.08-9.15,45.27c-10.68,10.68-10.68,28.49,0,39.17s14.75,31.03,9.15,45.27c-5.6,14.24,1.02,30.01,14.75,36.12
		c14.24,5.6,25.43,22.89,25.43,38.15s12.21,27.47,27.47,27.47c15.26,0,32.56,11.7,38.15,25.43c5.6,14.24,21.87,20.86,36.12,14.75
		c14.24-5.6,34.08-1.53,45.27,9.15c10.68,10.68,28.49,10.68,39.17,0s31.03-14.75,45.27-9.15c14.24,5.6,30.01-1.02,36.12-14.75
		c5.6-14.24,22.89-25.43,38.15-25.43s27.47-12.21,27.47-27.47c0-15.26,11.7-32.56,25.43-38.15
		C455.57,344.82,462.18,328.54,456.59,314.8L456.59,314.8z"/>
	<path class="st0" d="M318.23,158.64L185.97,331.59"/>
	<path class="st0" d="M239.38,181.53c0,18.26-14.8,33.07-33.07,33.07c-18.26,0-33.06-14.8-33.06-33.07
		c0-18.26,14.8-33.06,33.06-33.06C224.58,148.47,239.38,163.27,239.38,181.53"/>
	<path class="st0" d="M325.86,313.79c0,18.26-14.8,33.06-33.06,33.06c-18.26,0-33.07-14.8-33.07-33.06
		c0-18.26,14.8-33.06,33.07-33.06C311.06,280.72,325.86,295.53,325.86,313.79"/>
</g>
</svg>
