<?xml version="1.0" encoding="utf-8"?>
<!-- Generator: Adobe Illustrator 23.0.1, SVG Export Plug-In . SVG Version: 6.00 Build 0)  -->
<svg version="1.1" id="Layer_1" xmlns="http://www.w3.org/2000/svg" xmlns:xlink="http://www.w3.org/1999/xlink" x="0px" y="0px"
	 viewBox="0 0 500 500" style="enable-background:new 0 0 500 500;" xml:space="preserve">
<style type="text/css">
	.st0{fill:none;stroke:#000000;stroke-width:2;stroke-miterlimit:10;}
</style>
<g>
	<path class="st0" d="M379.71,290.47c-3.52-8.95-0.96-21.42,5.75-28.45c6.71-6.71,6.71-17.9,0-24.61
		c-6.71-6.71-9.27-19.5-5.75-28.45c3.52-8.95-0.64-18.86-9.27-22.7c-8.95-3.52-15.98-14.38-15.98-23.97
		c0-9.59-7.67-17.26-17.26-17.26c-9.59,0-20.46-7.35-23.97-15.98c-3.52-8.95-13.74-13.11-22.7-9.27
		c-8.95,3.52-21.42,0.96-28.45-5.75c-6.71-6.71-17.9-6.71-24.61,0c-6.71,6.71-19.5,9.27-28.45,5.75c-8.95-3.52-18.86,0.64-22.7,9.27
		c-3.52,8.95-14.38,15.98-23.97,15.98c-9.59,0-17.26,7.67-17.26,17.26c0,9.59-7.35,20.46-15.98,23.97
		c-8.95,3.52-13.11,13.74-9.27,22.7c3.52,8.95,0.96,21.42-5.75,28.45c-6.71,6.71-6.71,17.9,0,24.61c6.71,6.71,9.27,19.5,5.75,28.45
		c-3.52,8.95,0.64,18.86,9.27,22.7c8.95,3.52,15.98,14.38,15.98,23.97c0,9.59,7.67,17.26,17.26,17.26c9.59,0,20.46,7.35,23.97,15.98
		c3.52,8.95,13.74,13.11,22.7,9.27c8.95-3.52,21.42-0.96,28.45,5.75c6.71,6.71,17.9,6.71,24.61,0c6.71-6.71,19.5-9.27,28.45-5.75
		c8.95,3.52,18.86-0.64,22.7-9.27c3.52-8.95,14.38-15.98,23.97-15.98c9.59,0,17.26-7.67,17.26-17.26c0-9.59,7.35-20.46,15.98-23.97
		C379.07,309.33,383.23,299.1,379.71,290.47L379.71,290.47z"/>
	<path class="st0" d="M292.77,192.34l-83.11,108.68"/>
	<path class="st0" d="M243.23,206.73c0,11.48-9.3,20.78-20.78,20.78c-11.47,0-20.78-9.3-20.78-20.78c0-11.47,9.3-20.78,20.78-20.78
		C233.92,185.95,243.23,195.26,243.23,206.73"/>
	<path class="st0" d="M297.56,289.83c0,11.47-9.3,20.78-20.78,20.78c-11.48,0-20.78-9.3-20.78-20.78s9.3-20.78,20.78-20.78
		C288.26,269.06,297.56,278.36,297.56,289.83"/>
</g>
</svg>
