<?xml version="1.0" encoding="utf-8"?>
<!-- Generator: Adobe Illustrator 21.0.0, SVG Export Plug-In . SVG Version: 6.00 Build 0)  -->
<svg version="1.1" id="Capa_1" xmlns="http://www.w3.org/2000/svg" xmlns:xlink="http://www.w3.org/1999/xlink" x="0px" y="0px"
	 viewBox="0 0 480.1 480.1" style="enable-background:new 0 0 480.1 480.1;" xml:space="preserve">
<style type="text/css">
	.st0{fill:#FF0033;}
</style>
<g>
	<g>
		<g>
			<path d="M361.2,317.7c-8.9-15.5-25.1-18.5-28.3-18.9c-0.2,0-0.4,0-0.6,0h-44.4l-1.8-1.8c2.3-0.8,4.4-1.8,6.4-3.1
				c2.1-1.3,3.8-2.7,5.4-4.2l16.5,4.7l2.3-8.1l-13.2-3.8c1.7-3,2.8-5.8,3.4-7.8c0.1-0.4,0.2-0.8,0.2-1.2V265l10.1-4.3l-3.3-7.7
				l-6.7,2.9v-3.2c0-0.8-0.2-1.5-0.6-2.2l-12.6-21c-0.7-1.1-1.8-1.8-3.1-2c-1.3-0.1-2.6,0.3-3.5,1.2L276.1,240h-2.5v-52.8l5.9-5.9
				h5.4l11.5,7.7c1.9,1.3,4.5,0.8,5.8-1.2l8.4-12.6c0.9-1.4,0.9-3.2,0-4.7l-16.8-25.2c-0.8-1.2-2.1-1.9-3.5-1.9h-12.6
				c-1.6,0-3,0.9-3.8,2.3l-7.2,14.5h-45.2l-7.2-14.5c-0.7-1.4-2.2-2.3-3.8-2.3h-16.8c-1.4,0-2.6,0.7-3.4,1.8l-21,29.4
				c-1.2,1.7-1,4,0.4,5.4l8.4,8.4c1.4,1.4,3.6,1.6,5.3,0.5l11.5-7.7h9.6l1.7,1.7v45.6c-11.1,4-41.3,17.8-54.3,51.9
				c-7.6,20.1-5.9,38.9-3.1,51.1l-9.7-5.8v-14.4c0-4.8-2.7-9.1-7-11.3c-4.3-2.1-9.4-1.7-13.2,1.2c-3.2,2.4-5,6.1-5,10.1v29.4
				c0,1.4,0.7,2.8,2,3.6l33.6,21c0.7,0.4,1.4,0.6,2.2,0.6h84h16.8h88.2c0.7,0,1.3-0.2,1.9-0.4l16.8-8.4c0.8-0.4,1.4-1,1.8-1.7
				C361.7,354.7,371.7,336.1,361.2,317.7z M248.4,324l-24.9-0.1l0,8.4l24.9,0.1v25.2H240c0-9.3-7.5-16.8-16.8-16.8h-8.4
				c0-20.8-17-37.8-37.8-37.8h-4.2v8.4h4.2c16.2,0,29.4,13.2,29.4,29.4v4.2c0,2.3,1.9,4.2,4.2,4.2h12.6c4.6,0,8.4,3.8,8.4,8.4h-78.6
				l-30.6-19.1v-27.1c0-1.3,0.6-2.6,1.7-3.4c1.3-1,2.9-1.1,4.4-0.4c1.5,0.7,2.3,2.1,2.3,3.8v16.8c0,1.5,0.8,2.8,2,3.6l21,12.6
				c1.5,0.9,3.5,0.8,4.8-0.4c1.4-1.1,1.9-3,1.3-4.7c-3.1-8.5-9.4-31.1,0-55.8c0.6-1.6,1.3-3.2,2-4.7l0,0
				c14.1-30.7,44-41.4,49.9-43.2c1.8-0.5,3-2.2,3-4v-50.4c0-1.1-0.4-2.2-1.2-3l-4.2-4.2c-0.8-0.8-1.9-1.2-3-1.2h-12.6
				c-0.8,0-1.6,0.2-2.3,0.7l-9.7,6.5l-3.4-3.4l17.7-24.7h12l7.2,14.5c0.7,1.4,2.2,2.3,3.8,2.3h50.4c1.6,0,3-0.9,3.8-2.3l7.2-14.5
				h7.8l14,21l-4.5,6.8l-9.1-6.1c-0.7-0.5-1.5-0.7-2.3-0.7h-8.4c-1.1,0-2.2,0.4-3,1.2l-8.4,8.4c-0.8,0.8-1.2,1.9-1.2,3V240h-10.9
				L243,228.7c-0.9-0.9-2.2-1.4-3.5-1.2c-1.3,0.2-2.4,0.9-3.1,2l-12.6,21c-0.4,0.7-0.6,1.4-0.6,2.2v3.2l-6.7-2.9l-3.3,7.7l10,4.3
				v6.6v2c0,0.4,0.1,0.8,0.2,1.2c0.8,2.6,2.3,6.4,5,10.2l-15.1,5.6l3,7.9l18.3-6.9c1,0.8,2.1,1.6,3.2,2.3c3.2,2,6.8,3.4,10.6,4.2
				L248.4,324L248.4,324z M354.4,350.3l-14.6,7.3h-38l-3-9.1v-10.6l5.4-8.1c0.7-1,1.8-1.6,3-1.6c1.8,0,2.7,1.2,3.1,1.7
				c0.3,0.5,1,1.9,0.2,3.5l-2.8,5.5c-0.8,1.6-0.5,3.6,0.8,4.8l4.2,4.2c0.8,0.8,1.9,1.2,3,1.2h21v-8.4h-19.3l-0.8-0.8l1.4-2.8
				c1.9-3.7,1.7-8.1-0.5-11.7s-6-5.7-10.2-5.7c-4,0-7.8,2-10,5.3l-6.1,9.1c-0.5,0.7-0.7,1.5-0.7,2.3v12.6c0,0.4,0.1,0.9,0.2,1.3
				l2.4,7.1h-15.2v-29.4h-8.4v29.4h-12.6v-29.4v-33.6c0-2.2-1.7-4-3.8-4.2c-3.1-0.3-6-1.1-8.6-2.4l5.5-2.1l-3-7.9l-10.3,3.9
				c-2.7-3.2-4.2-6.6-5-9v-1.4v-3l10.9,4.7l3.3-7.7l-14.2-6.1v-5.7l9.2-15.4l8.8,8.8c0.8,0.8,1.9,1.2,3,1.2h16.8h8.4
				c1.1,0,2.2-0.4,3-1.2l8.8-8.8l9.2,15.4v5.7l-14.3,6.1l3.3,7.7l10.9-4.7v4.4c-0.6,1.9-1.8,4.6-3.6,7.2l-7.8-2.2l-2.3,8.1l3,0.9
				c-3.2,2-6.8,3.2-10.6,3.5c-1.6,0.2-3,1.2-3.6,2.8c-0.6,1.5-0.2,3.2,1,4.4l8.4,8.4c0.8,0.8,1.9,1.2,3,1.2h45.9
				c2.4,0.4,15.1,2.8,21.8,14.7C360.8,334,356.1,346.6,354.4,350.3z"/>
		</g>
	</g>
	<g>
		<g>
			<path d="M362.1,169.5c-7.6-21-32.1-53.1-68.8-55.2c-24.9-1.5-43.9,17.9-53,27.2c-0.2,0.2-0.4,0.4-0.5,0.5
				c-0.2-0.2-0.5-0.5-0.7-0.8c-8.9-9.3-27.7-28.6-52.4-27.1c-36.7,2.1-61.2,34.2-68.8,55.2c-10.1,28.1-0.3,64,26.8,98.5l6.6-5.2
				c-25.3-32.2-34.6-65.1-25.5-90.4c6.8-18.9,28.8-47.8,61.3-49.7c21-1.2,37.8,16.2,45.9,24.6c1.5,1.6,2.8,2.9,3.7,3.7
				c0.5,0.5,1.1,0.8,1.8,0.9l0.4,0.1c1.3,0.3,2.8,0,3.8-0.9c0.9-0.8,2.1-2,3.6-3.6c8.2-8.4,25.3-25.9,46.4-24.7
				c32.6,1.9,54.5,30.8,61.3,49.7c10.3,28.8-3.1,67.1-36,102.7l6.2,5.7C359.4,242.8,373.5,201.2,362.1,169.5z"/>
		</g>
	</g>
	<g>
		<g>
			<rect x="223.2" y="185.4" width="8.4" height="8.4"/>
		</g>
	</g>
	<g>
		<g>
			<rect x="248.4" y="185.4" width="8.4" height="8.4"/>
		</g>
	</g>
	<g>
		<g>
			<rect x="231.6" y="202.2" width="16.8" height="8.4"/>
		</g>
	</g>
	<g>
		<g>
			<rect x="248.4" y="256.8" width="8.4" height="8.4"/>
		</g>
	</g>
	<g>
		<g>
			<rect x="273.6" y="256.8" width="8.4" height="8.4"/>
		</g>
	</g>
	<g>
		<g>
			<rect x="261" y="269.4" width="8.4" height="8.4"/>
		</g>
	</g>
</g>
<path class="st0" d="M232.6,421.1c99.8,0,181-81.2,181-181c0-48.4-18.8-93.9-53-128c-34.2-34.2-79.6-53-128-53
	c-99.8,0-181,81.2-181,181c0,48.4,18.8,93.9,53,128C138.8,402.2,184.2,421.1,232.6,421.1z M232.6,390.9c-35.3,0-68.6-12-95.5-34
	l212.3-212.3c22,26.9,34,60.3,34,95.5C383.5,323.2,315.8,390.9,232.6,390.9z M232.6,89.2c35.2,0,68.6,12,95.5,34L115.8,335.5
	c-22-26.9-34-60.3-34-95.5C81.8,156.8,149.4,89.2,232.6,89.2z"/>
</svg>
