<?xml version="1.0" encoding="iso-8859-1"?>
<!-- Generator: Adobe Illustrator 19.0.0, SVG Export Plug-In . SVG Version: 6.00 Build 0)  -->
<svg version="1.1" id="Capa_1" xmlns="http://www.w3.org/2000/svg" xmlns:xlink="http://www.w3.org/1999/xlink" x="0px" y="0px"
	 viewBox="0 0 512.001 512.001" style="enable-background:new 0 0 512.001 512.001;" xml:space="preserve">
<g>
	<g>
		<path d="M254.217,109.802c-11.092-11.093-29.141-11.093-40.236,0l-10.991,10.991c-3.003,3.003-3.003,7.872,0,10.874
			c3.003,3.003,7.872,3.003,10.874,0l10.991-10.991c5.097-5.097,13.39-5.096,18.486,0c2.469,2.469,3.828,5.752,3.828,9.243
			s-1.36,6.774-3.828,9.243L139.165,243.341c-2.469,2.469-5.751,3.828-9.243,3.828c-3.492,0-6.774-1.36-9.243-3.828
			s-3.828-5.752-3.828-9.243c0-3.491,1.36-6.774,3.828-9.243l78.32-78.32c3.003-3.003,3.003-7.872,0-10.874
			c-3.003-3.003-7.872-3.003-10.874,0l-78.321,78.32c-11.093,11.093-11.093,29.143,0,40.236c5.374,5.374,12.518,8.333,20.119,8.333
			c7.6,0,14.744-2.959,20.117-8.333l104.178-104.178c5.374-5.374,8.333-12.519,8.333-20.119S259.591,115.176,254.217,109.802z"/>
	</g>
</g>
<g>
	<g>
		<path d="M208.09,90.319l-32.736-32.735c-9.651-9.652-22.484-14.967-36.134-14.967c-13.65,0-26.483,5.316-36.135,14.967
			l-1.546,1.546L67.828,25.417c-1.442-1.443-3.398-2.253-5.437-2.253c-2.039,0-3.996,0.81-5.437,2.253L46.623,35.748L13.127,2.252
			c-3.003-3.003-7.872-3.003-10.874,0c-3.003,3.003-3.003,7.872,0,10.874l33.496,33.496l-10.33,10.331
			c-3.003,3.003-3.003,7.872,0,10.874l33.71,33.71l-1.546,1.546c-19.925,19.925-19.925,52.345,0,72.269l32.735,32.735
			c1.501,1.501,3.47,2.253,5.437,2.253c1.968,0,3.936-0.751,5.437-2.253c3.004-3.002,3.004-7.871,0.001-10.873l-32.735-32.735
			c-13.928-13.928-13.928-36.591,0-50.519l45.503-45.502c6.747-6.748,15.718-10.463,25.259-10.463
			c9.541,0,18.512,3.716,25.259,10.463l32.736,32.735c3.003,3.003,7.872,3.003,10.874,0C211.093,98.19,211.093,93.321,208.09,90.319
			z M80.334,80.333l-10.33,10.33L41.73,62.391L62.391,41.73l28.274,28.274L80.334,80.333z"/>
	</g>
</g>
<g>
	<g>
		<path d="M397.569,210.038c-5.374-5.374-12.518-8.333-20.119-8.333c-7.6,0-14.744,2.959-20.117,8.333L210.039,357.332
			c-5.374,5.374-8.333,12.518-8.333,20.117s2.959,14.744,8.333,20.119s12.518,8.333,20.119,8.333c7.6,0,14.744-2.959,20.117-8.333
			l147.294-147.293c5.374-5.375,8.333-12.519,8.333-20.119S402.943,215.412,397.569,210.038z M386.694,239.399L239.4,386.692
			c-5.097,5.096-13.389,5.097-18.486,0c-5.097-5.097-5.097-13.389,0-18.486l147.294-147.293c2.469-2.469,5.751-3.828,9.243-3.828
			s6.774,1.36,9.243,3.828s3.828,5.751,3.828,9.243S389.163,236.93,386.694,239.399z"/>
	</g>
</g>
<g>
	<g>
		<path d="M473.301,336.268c-2.395-12.374-8.39-23.644-17.335-32.587l-43.212-43.212c-3.003-3.003-7.872-3.003-10.874,0
			c-3.005,3.002-3.005,7.871-0.001,10.874l43.212,43.212c6.767,6.767,11.3,15.285,13.111,24.636c0.712,3.676,3.931,6.23,7.541,6.23
			c0.485,0,0.977-0.046,1.47-0.142C471.382,344.472,474.108,340.438,473.301,336.268z"/>
	</g>
</g>
<g>
	<g>
		<path d="M292.93,199.409l-31.353-31.353c-3.002-3.003-7.872-3.003-10.874,0c-3.003,3.003-3.003,7.872,0,10.874l31.353,31.353
			c3.897,3.897,3.897,10.239,0,14.137c-3.898,3.898-10.239,3.897-14.137,0l-31.353-31.353c-3.003-3.003-7.872-3.003-10.874,0
			c-3.003,3.003-3.003,7.872,0,10.874l31.353,31.353c4.947,4.947,11.445,7.42,17.943,7.42c6.497,0,12.996-2.474,17.943-7.42
			C302.824,225.402,302.824,209.302,292.93,199.409z"/>
	</g>
</g>
<g>
	<g>
		<path d="M235.295,257.044l-31.353-31.353c-3.002-3.003-7.871-3.003-10.874,0s-3.003,7.872,0,10.874l31.353,31.354
			c1.888,1.888,2.927,4.398,2.927,7.067c0,2.67-1.04,5.18-2.927,7.068c-3.898,3.898-10.239,3.897-14.137,0l-31.353-31.353
			c-3.003-3.003-7.872-3.003-10.874,0c-3.003,3.003-3.003,7.872,0,10.874l31.353,31.353c4.947,4.948,11.444,7.421,17.943,7.42
			c6.497,0,12.997-2.474,17.943-7.42c4.793-4.792,7.432-11.166,7.432-17.943C242.728,268.209,240.089,261.836,235.295,257.044z"/>
	</g>
</g>
<g>
	<g>
		<path d="M509.748,498.873l-40.703-40.703l10.331-10.331c3.003-3.003,3.003-7.872,0-10.874l-33.711-33.71l10.3-10.3
			c7.43-7.43,12.925-16.653,15.89-26.671c1.205-4.073-1.12-8.351-5.191-9.556c-4.074-1.205-8.351,1.12-9.556,5.191
			c-2.239,7.567-6.395,14.539-12.018,20.162l-63.01,63.011c-9.019,9.018-21.008,13.985-33.762,13.985
			c-12.754,0-24.745-4.967-33.762-13.985l-43.212-43.212c-3.003-3.003-7.872-3.003-10.874,0c-3.003,3.003-3.003,7.872,0,10.874
			l43.212,43.212c11.922,11.923,27.775,18.489,44.638,18.489c16.861,0,32.714-6.566,44.638-18.489l10.3-10.3l33.711,33.711
			c1.442,1.443,3.398,2.253,5.437,2.253c2.039,0,3.996-0.81,5.437-2.253l10.33-10.331l40.703,40.703
			c1.501,1.501,3.47,2.253,5.437,2.253c1.968,0,3.936-0.75,5.437-2.253C512.751,506.744,512.751,501.875,509.748,498.873z
			 M452.736,452.729c-0.001,0.001-0.002,0.001-0.003,0.002c-0.001,0.001-0.002,0.002-0.002,0.002l-10.328,10.33l-28.274-28.274
			l10.331-10.33l10.331-10.331l28.273,28.273L452.736,452.729z"/>
	</g>
</g>
<g>
</g>
<g>
</g>
<g>
</g>
<g>
</g>
<g>
</g>
<g>
</g>
<g>
</g>
<g>
</g>
<g>
</g>
<g>
</g>
<g>
</g>
<g>
</g>
<g>
</g>
<g>
</g>
<g>
</g>
</svg>
