<?xml version="1.0" encoding="utf-8"?>
<!-- Generator: Adobe Illustrator 21.0.0, SVG Export Plug-In . SVG Version: 6.00 Build 0)  -->
<svg version="1.1" id="Capa_1" xmlns="http://www.w3.org/2000/svg" xmlns:xlink="http://www.w3.org/1999/xlink" x="0px" y="0px"
	 viewBox="0 0 422.1 422.1" style="enable-background:new 0 0 422.1 422.1;" xml:space="preserve">
<style type="text/css">
	.st0{fill:#FF0033;}
</style>
<g>
	<g>
		<path class="st0" d="M363.6,174.5h-1v-25.6C362.6,66.7,295.9,0,213.7,0S64.8,66.7,64.8,148.9v25.6h-6.3c-23,0-40.8,20.4-40.8,43.9
			v65.3C17.2,306.5,35.2,325.4,58,326c0.2,0,0.4,0,0.5,0h38.7c5.5-0.3,9.7-4.9,9.4-10.4c0-0.2,0-0.4,0-0.6V187
			c0-6.3-3.7-12.5-9.4-12.5H85.7v-25.6c0-70.7,57.3-128,128-128s128,57.3,128,128v25.6h-11.5c-5.7,0-9.4,6.3-9.4,12.5v128
			c-0.6,5.5,3.4,10.3,8.8,10.9c0.2,0,0.4,0,0.6,0h12l-1,1.6c-15.7,20.8-40.3,33-66.4,32.9c-5.7-28-33-46.1-61-40.3
			c-23.9,4.9-41.2,25.8-41.4,50.3c0.3,28.6,23.6,51.7,52.2,51.7c14.2-0.2,27.7-6,37.6-16.2c6.7-6.9,11.1-15.6,12.5-25.1
			c32.7,0.1,63.4-15.2,83.1-41.3l9.9-14.6c22.5-1.6,36.6-15.7,36.6-36v-65.3C404.4,201.1,387.7,174.5,363.6,174.5z M85.7,305.1H58.5
			c-11.3-0.3-20.1-9.6-19.9-20.9c0-0.2,0-0.4,0-0.6v-65.3c0-12,8.4-23,19.9-23h27.2V305.1z M247.1,391.3c-5.8,6.3-13.9,9.9-22.5,9.9
			c-17-0.3-30.8-13.8-31.3-30.8c0-17,13.8-30.8,30.8-30.8c17,0,30.8,13.8,30.8,30.8c0,0,0,0,0,0
			C255.4,378.2,252.6,385.8,247.1,391.3z M383.5,288.9c0,14.1-13.6,16.2-19.9,16.2h-21.9V195.4h21.9c11.5,0,19.9,16.2,19.9,28.2
			V288.9z"/>
	</g>
</g>
</svg>
