<?xml version="1.0" encoding="utf-8"?>
<!-- Generator: Adobe Illustrator 21.0.0, SVG Export Plug-In . SVG Version: 6.00 Build 0)  -->
<svg version="1.1" id="Layer_1" xmlns="http://www.w3.org/2000/svg" xmlns:xlink="http://www.w3.org/1999/xlink" x="0px" y="0px"
	 viewBox="0 0 384 384" style="enable-background:new 0 0 384 384;" xml:space="preserve">
<style type="text/css">
	.st0{fill:#FF0033;}
</style>
<path class="st0" d="M192,384c105.9,0,192-86.1,192-192c0-51.3-20-99.6-56.2-135.8C291.5,20,243.3,0,192,0C86.1,0,0,86.1,0,192
	c0,51.3,20,99.6,56.2,135.8C92.4,364,140.7,384,192,384z M192,352c-37.4,0-72.8-12.7-101.3-36.1L315.9,90.7
	C339.3,119.2,352,154.6,352,192C352,280.2,280.2,352,192,352z M192,32c37.4,0,72.8,12.7,101.3,36.1L68.1,293.3
	C44.7,264.8,32,229.4,32,192C32,103.8,103.8,32,192,32z"/>
</svg>
