<?xml version="1.0" encoding="utf-8"?>
<!-- Generator: Adobe Illustrator 21.0.0, SVG Export Plug-In . SVG Version: 6.00 Build 0)  -->
<svg version="1.1" id="Capa_1" xmlns="http://www.w3.org/2000/svg" xmlns:xlink="http://www.w3.org/1999/xlink" x="0px" y="0px"
	 viewBox="0 0 512 512" style="enable-background:new 0 0 512 512;" xml:space="preserve">
<g>
	<g>
		<g>
			<path d="M456.4,334.4c-0.5-0.8-1-1.6-1.5-2.3c-5.2-7.2-12.9-12-21.6-13.4c-8.7-1.4-17.6,0.6-24.8,5.8L313,392.5h-99.7
				c-4.7,0-8.5-3.8-8.5-8.5s3.8-8.5,8.5-8.5h55.5c16.5,0,29.9-13.4,29.9-29.9c0-0.1,0-0.9,0-1c-0.5-16.5-14.4-29.3-30.5-28.9h-111
				c-9.8,0.1-19.4,3.6-27,9.9l-41.7,34.7c-1.9,1.6-3.1,4-3.1,6.6v102.4c0,4.7,3.8,8.5,8.5,8.5h211.7c13.9,0,27.4-4.9,38-13.7
				l103.4-85.5C461.1,368.6,465.2,349.2,456.4,334.4z M436.7,365.1L332.7,451c-7.6,6.3-17.3,9.8-27.2,9.8H102.4v-89.9l38.7-32.2
				c4.5-3.8,10.3-5.9,16.1-5.9l111.2,0c7.1,0,13,5.3,13.2,12.8c0,7.1-5.7,12.8-12.8,12.8h-55.5c-14.1,0-25.6,11.5-25.6,25.6
				s11.5,25.6,25.6,25.6h102.4c1.8,0,3.5-0.6,5-1.6l97.6-69.7c3.5-2.5,7.8-3.5,12.1-2.8c4.3,0.7,8,3,10.6,6.6
				c0.3,0.4,0.5,0.7,0.7,1.1C446,350.4,444,359.9,436.7,365.1z"/>
		</g>
	</g>
	<g>
		<g>
			<path d="M93.6,349.9H0v17.1h85.1v128H0V512h93.6c4.7,0,8.5-3.8,8.5-8.5V358.4C102.1,353.7,98.3,349.9,93.6,349.9z"/>
		</g>
	</g>
	<g>
		<g>
			<path d="M42.7,426.7c-14.1,0-25.6,11.5-25.6,25.6s11.5,25.6,25.6,25.6s25.6-11.5,25.6-25.6C68.3,438.2,56.8,426.7,42.7,426.7z
				 M42.7,460.8c-4.7,0-8.5-3.8-8.5-8.5s3.8-8.5,8.5-8.5s8.5,3.8,8.5,8.5S47.4,460.8,42.7,460.8z"/>
		</g>
	</g>
	<g>
		<g>
			<path d="M503.5,264.5H8.5c-4.7,0-8.5,3.8-8.5,8.5c0,32.9,26.8,59.7,59.7,59.7h392.5c32.9,0,59.7-26.8,59.7-59.7
				C512,268.3,508.2,264.5,503.5,264.5z M452.3,315.7H59.7c-20.6,0-37.8-14.7-41.8-34.1h476.1C490.1,301,472.9,315.7,452.3,315.7z"
				/>
		</g>
	</g>
	<g>
		<g>
			<path d="M256,42.7c-122.3,0-221.9,99.5-221.9,221.9v8.5c0,4.7,3.8,8.5,8.5,8.5h426.7c4.7,0,8.5-3.8,8.5-8.5v-8.5
				C477.9,142.2,378.3,42.7,256,42.7z M51.2,264.5c0-112.9,91.9-204.8,204.8-204.8s204.8,91.9,204.8,204.8H51.2z"/>
		</g>
	</g>
	<g>
		<g>
			<path d="M115.6,140c-6,6.7-11.5,13.9-16.4,21.3l14.2,9.4c4.5-6.8,9.5-13.3,15-19.4L115.6,140z"/>
		</g>
	</g>
	<g>
		<g>
			<path d="M256,76.8c-47.9,0-93.6,18.1-128.5,51l11.7,12.4C171,110.3,212.4,93.9,256,93.9L256,76.8z"/>
		</g>
	</g>
	<g>
		<g>
			<rect x="230.4" width="51.2" height="17.1"/>
		</g>
	</g>
	<g>
		<g>
			<rect x="247.5" y="8.5" width="17.1" height="42.7"/>
		</g>
	</g>
</g>
</svg>
