<?xml version="1.0" encoding="utf-8"?>
<!-- Generator: Adobe Illustrator 23.0.1, SVG Export Plug-In . SVG Version: 6.00 Build 0)  -->
<svg version="1.1" id="Layer_1" xmlns="http://www.w3.org/2000/svg" xmlns:xlink="http://www.w3.org/1999/xlink" x="0px" y="0px"
	 viewBox="0 0 700 700" style="enable-background:new 0 0 700 700;" xml:space="preserve">
<g>
	<path d="M552,362.5c-4.4-2.1-9.6-0.2-11.6,4.1c-3.1,6.6-6.6,13-10.4,19.3c-23.9,39.3-59.9,69.8-102.7,86.7
		c-42.8,16.9-89.9,19.4-134.2,7c-44.3-12.4-83.3-38.9-111.1-75.6c-27.8-36.6-42.8-81.4-42.8-127.4c0-5.4,0-10.9,0.6-16.4l0.3,0
		c0-4.4,0.8-8.8,1.4-13c0.7-4.8-2.7-9.2-7.4-9.9c-2.4-0.4-4.8,0.2-6.7,1.7c-1.9,1.5-3.2,3.6-3.4,6c-0.6,4.7-1.1,9.4-1.5,14.2h0.2
		c-0.4,5.9-0.7,11.8-0.7,17.5c0.1,49.8,16.4,98.1,46.5,137.8c30.1,39.6,72.3,68.3,120.3,81.7c47.9,13.4,98.9,10.8,145.2-7.5
		c46.3-18.3,85.3-51.2,111.2-93.7c4.1-6.7,7.9-13.7,11.3-20.8v0C558.3,369.8,556.4,364.6,552,362.5L552,362.5z"/>
	<path d="M562,333.5c-4.3-0.9-8.6,1.7-10,5.9c-1.4,4.2,0.6,8.8,4.7,10.6c0.9,0.1,1.8,0.1,2.7,0c3.9,0.2,7.5-2.3,8.8-6v-0.4
		C569,339.1,566.3,334.7,562,333.5L562,333.5z"/>
	<path d="M350,48.4c-45.5-0.1-90,13.4-127.8,38.8s-67,61.6-84,103.8c-1.5,4.4,0.7,9.2,5,10.9c4.3,1.7,9.2-0.2,11.2-4.3
		c18.3-45.3,51.8-82.9,94.8-106.3c43-23.4,92.7-31,140.7-21.7c48,9.3,91.3,35,122.4,72.7c31.1,37.7,48.2,85.1,48.2,134
		c0,11.6-0.9,23.1-2.8,34.5c-0.4,2.3,0.2,4.7,1.5,6.5c1.4,1.9,3.4,3.2,5.7,3.5h1.4c4.3,0.1,8.1-3.1,8.8-7.4
		c7.2-43.7,1.5-88.5-16.4-129c-17.8-40.5-47.1-74.9-84.1-99.1S394.3,48.4,350,48.4L350,48.4z"/>
	<path d="M136.1,227.5c0.7,0.1,1.3,0.1,2,0c4.2,0.1,7.9-2.8,8.8-6.9c1-4.6-1.9-9.1-6.5-10.3c-4.6-1.1-9.2,1.5-10.5,6.1v0.4
		C128.6,221.5,131.4,226.3,136.1,227.5L136.1,227.5z"/>
	<path d="M301.5,365.9c0.3,0.3,0.6,0.5,1,0.6c1.2,0.6,2.5,0.9,3.8,1c1.1,0,2.2-0.3,3.2-0.7c0.3-0.1,0.7-0.3,1-0.5
		c0.5-0.2,1-0.5,1.4-0.8l151.9-125c3.4-3.2,3.7-8.4,0.8-12c-2.9-3.6-8.1-4.2-11.9-1.5L306.2,347l-59-52.5c-3.6-3.2-9.1-2.9-12.4,0.7
		c-3.2,3.6-2.9,9.1,0.7,12.4l64.6,57.9C300.6,365.7,301,365.8,301.5,365.9L301.5,365.9z"/>
</g>
</svg>
