<?xml version="1.0" encoding="utf-8"?>
<!-- Generator: Adobe Illustrator 21.0.0, SVG Export Plug-In . SVG Version: 6.00 Build 0)  -->
<svg version="1.1" id="_x31_" xmlns="http://www.w3.org/2000/svg" xmlns:xlink="http://www.w3.org/1999/xlink" x="0px" y="0px"
	 viewBox="0 0 512 512" style="enable-background:new 0 0 512 512;" xml:space="preserve">
<g>
	<path d="M373.3,512c-76.5,0-138.7-62.2-138.7-138.7s62.2-138.7,138.7-138.7S512,296.9,512,373.3S449.8,512,373.3,512z M373.3,256
		C308.6,256,256,308.7,256,373.3s52.6,117.3,117.3,117.3S490.7,438,490.7,373.3S438,256,373.3,256z"/>
	<path d="M352,426.7c-2.8,0-5.5-1.1-7.6-3.1l-42.7-42.7c-4.2-4.2-4.2-10.9,0-15.1s10.9-4.2,15.1,0l34.6,34.6l67.2-76.8
		c3.9-4.5,10.6-4.9,15.1-1c4.4,3.9,4.9,10.6,1,15L360,423c-1.9,2.2-4.7,3.5-7.7,3.6C352.2,426.7,352.1,426.7,352,426.7L352,426.7z"
		/>
	<path d="M202.7,448H53.3C23.9,448,0,424.1,0,394.7V117.3C0,87.9,23.9,64,53.3,64H96c5.9,0,10.7,4.8,10.7,10.7S101.9,85.3,96,85.3
		H53.3c-17.6,0-32,14.4-32,32v277.3c0,17.6,14.4,32,32,32h149.3c5.9,0,10.7,4.8,10.7,10.7S208.6,448,202.7,448z"/>
	<path d="M352,192c-5.9,0-10.7-4.8-10.7-10.7v-64c0-17.6-14.4-32-32-32h-42.7c-5.9,0-10.7-4.8-10.7-10.7S260.8,64,266.7,64h42.7
		c29.4,0,53.3,23.9,53.3,53.3v64C362.7,187.2,357.9,192,352,192z"/>
	<path d="M245.3,128h-128c-17.6,0-32-14.4-32-32V53.3c0-5.9,4.8-10.7,10.7-10.7h33.1C134,18.3,155.6,0,181.3,0s47.3,18.3,52.3,42.7
		h33.1c5.9,0,10.7,4.8,10.7,10.7V96C277.3,113.6,263,128,245.3,128z M106.7,64v32c0,5.9,4.8,10.7,10.7,10.7h128
		c5.9,0,10.7-4.8,10.7-10.7V64h-32c-5.9,0-10.7-4.8-10.7-10.7c0-17.6-14.4-32-32-32s-32,14.4-32,32c0,5.9-4.8,10.7-10.7,10.7H106.7z
		"/>
	<path d="M288,192H74.7c-5.9,0-10.7-4.8-10.7-10.7s4.8-10.7,10.7-10.7H288c5.9,0,10.7,4.8,10.7,10.7S293.9,192,288,192z"/>
	<path d="M224,256H74.7c-5.9,0-10.7-4.8-10.7-10.7s4.8-10.7,10.7-10.7H224c5.9,0,10.7,4.8,10.7,10.7S229.9,256,224,256z"/>
	<path d="M181.3,320H74.7c-5.9,0-10.7-4.8-10.7-10.7s4.8-10.7,10.7-10.7h106.7c5.9,0,10.7,4.8,10.7,10.7S187.2,320,181.3,320z"/>
</g>
</svg>
