<?xml version="1.0" encoding="utf-8"?>
<!-- Generator: Adobe Illustrator 23.0.1, SVG Export Plug-In . SVG Version: 6.00 Build 0)  -->
<svg version="1.1" id="Layer_1" xmlns="http://www.w3.org/2000/svg" xmlns:xlink="http://www.w3.org/1999/xlink" x="0px" y="0px"
	 viewBox="0 0 500 500" style="enable-background:new 0 0 500 500;" xml:space="preserve">
<style type="text/css">
	.st0{fill:#FED201;}
</style>
<g>
	<path class="st0" d="M286.36,355l-0.02,0l-0.02,0c-5.19-0.28-9.19-4.69-8.96-9.88c0-3.28-2.66-5.93-5.94-5.93
		c-3.28,0-5.93,2.66-5.93,5.93c-0.05,4.61,1.37,9.11,4.05,12.86c2.68,3.75,6.49,6.54,10.87,7.98v2.72c0,3.28,2.66,5.93,5.93,5.93
		s5.93-2.66,5.93-5.93v-2.72c4.38-1.44,8.19-4.23,10.87-7.98c2.68-3.75,4.1-8.25,4.05-12.86c0.11-5.65-2.02-11.11-5.93-15.19
		c-3.91-4.08-9.28-6.44-14.92-6.57c-4.09,0.39-7.99-1.77-9.83-5.44c-1.84-3.67-1.23-8.09,1.53-11.13c2.76-3.04,7.1-4.06,10.93-2.58
		c3.83,1.48,6.35,5.16,6.35,9.27c0,3.28,2.66,5.93,5.94,5.93c3.28,0,5.93-2.66,5.93-5.93c0.05-4.61-1.37-9.12-4.05-12.87
		c-2.68-3.75-6.49-6.55-10.87-7.99v-2.71c0-3.28-2.66-5.93-5.94-5.93c-3.28,0-5.93,2.66-5.93,5.93v2.71
		c-4.38,1.44-8.19,4.24-10.87,7.99c-2.68,3.75-4.1,8.26-4.05,12.87c-0.11,5.65,2.02,11.11,5.93,15.19
		c3.91,4.08,9.27,6.44,14.92,6.57c5.09,0.49,8.98,4.76,8.99,9.88C295.33,350.22,291.45,354.5,286.36,355L286.36,355z"/>
	<g>
		<path class="st0" d="M286.58,387.2c15.32,0.09,30.04-5.92,40.92-16.7c10.88-10.78,17.03-25.44,17.09-40.76
			c0.06-15.32-5.98-30.03-16.78-40.89c-10.8-10.86-25.47-16.98-40.79-17.01c-15.32-0.03-30.02,6.03-40.86,16.85
			c-10.84,10.82-16.93,25.51-16.93,40.83c-0.02,15.25,6,29.88,16.75,40.7C256.72,381.04,271.33,387.14,286.58,387.2z M286.58,283.72
			c12.17-0.09,23.87,4.67,32.52,13.22c8.66,8.55,13.55,20.2,13.61,32.37c0.06,12.17-4.73,23.86-13.3,32.49
			c-8.57,8.63-20.23,13.5-32.4,13.53c-12.17,0.03-23.85-4.79-32.46-13.38c-8.61-8.6-13.46-20.26-13.46-32.43
			c-0.03-12.1,4.74-23.72,13.27-32.31C262.89,288.63,274.47,283.78,286.58,283.72L286.58,283.72z"/>
		<path class="st0" d="M395.06,225.04h-16.54l-40.71-53.88c-5-6.62-12.87-10.43-21.17-10.25V91.96c0.01-6.87-2.71-13.46-7.55-18.32
			c-4.84-4.87-11.42-7.62-18.29-7.64H91.84c-6.87,0.02-13.44,2.77-18.29,7.64C68.71,78.5,65.99,85.09,66,91.96v200.25
			c-0.01,6.86,2.7,13.45,7.55,18.32c4.84,4.87,11.42,7.62,18.29,7.64h47.31v76.68c-0.02,10.35,4.07,20.29,11.38,27.63
			c7.3,7.34,17.22,11.49,27.57,11.52h216.97c10.35-0.04,20.27-4.18,27.57-11.52c7.3-7.34,11.39-17.28,11.38-27.63V264.2
			c0.02-10.35-4.07-20.29-11.38-27.63C415.33,229.23,405.42,225.08,395.06,225.04L395.06,225.04z M328.33,178.32l35.3,46.73
			l-149.71,0l96.65-50.73c2.95-1.56,6.36-2.01,9.62-1.28C323.45,173.77,326.33,175.64,328.33,178.32L328.33,178.32z M226.78,77.87
			v58.29l-31.14-15.07l0,0c-2.72-1.33-5.9-1.33-8.62,0l-31.14,15.07V77.87L226.78,77.87z M91.84,306.3
			c-3.72-0.02-7.28-1.52-9.9-4.16c-2.62-2.64-4.08-6.21-4.07-9.93V91.96c-0.01-3.72,1.45-7.29,4.07-9.93
			c2.62-2.64,6.17-4.14,9.9-4.16h52.17v61.39c-0.01,3.41,1.74,6.59,4.63,8.41c2.89,1.82,6.51,2.02,9.59,0.54l33.1-16.01l33.1,16.01
			h0c3.08,1.48,6.7,1.28,9.59-0.54c2.89-1.82,4.64-5,4.63-8.41V77.87h52.16c3.72,0.02,7.28,1.52,9.89,4.16
			c2.62,2.64,4.08,6.21,4.07,9.93v72l-116.39,61.09h-10.3c-10.35,0.04-20.27,4.18-27.57,11.53c-7.3,7.34-11.39,17.28-11.38,27.63
			v42.09L91.84,306.3z M172.69,366.44h17.8c9.58-0.01,18.72-4.02,25.23-11.04c6.66-7.11,10.34-16.51,10.27-26.25
			c0.22-9.65-3.39-18.99-10.05-25.98c-6.65-6.99-15.81-11.06-25.45-11.31h-17.8V277.3c-0.01-3.76,1.47-7.38,4.12-10.05
			c2.65-2.67,6.25-4.19,10.01-4.21h199.52c3.76,0.02,7.36,1.53,10.01,4.21c2.65,2.67,4.13,6.28,4.12,10.05v104.45
			c0.01,3.76-1.47,7.38-4.12,10.05c-2.65,2.67-6.25,4.18-10.01,4.21H186.82c-3.76-0.02-7.36-1.53-10.01-4.21
			c-2.65-2.67-4.13-6.29-4.12-10.05V366.44z M190.48,303.73L190.48,303.73c6.5,0.25,12.63,3.07,17.06,7.83
			c4.43,4.76,6.79,11.09,6.57,17.59c0.06,6.71-2.46,13.19-7.04,18.1c-4.27,4.64-10.28,7.3-16.59,7.32h-39.47v-42.32l0-0.02l0-0.02
			v-8.48L190.48,303.73z M422.14,394.85c0.02,7.21-2.82,14.13-7.9,19.24c-5.08,5.11-11.97,8.01-19.18,8.05H178.09
			c-7.21-0.04-14.1-2.93-19.18-8.05c-5.08-5.11-7.92-12.03-7.9-19.24v-28.4h9.8v15.31c-0.01,6.91,2.72,13.54,7.6,18.44
			c4.87,4.9,11.49,7.67,18.4,7.69h199.52c6.91-0.02,13.53-2.79,18.4-7.69c4.87-4.9,7.61-11.53,7.6-18.44V277.31
			c0.01-6.91-2.72-13.54-7.6-18.44c-4.87-4.9-11.49-7.66-18.4-7.69H186.82c-6.91,0.02-13.53,2.79-18.4,7.69
			c-4.87,4.9-7.61,11.53-7.6,18.44v14.56l-9.8,0v-27.66c-0.02-7.21,2.82-14.13,7.89-19.24c5.08-5.12,11.97-8.01,19.18-8.05h216.97
			c7.21,0.04,14.1,2.93,19.18,8.05c5.08,5.11,7.92,12.03,7.9,19.24V394.85z"/>
	</g>
</g>
</svg>
