<svg height="512pt" viewBox="0 0 512 511" width="512pt" xmlns="http://www.w3.org/2000/svg"><path d="m237.09375 40.488281h-39.988281v-39.988281h39.988281zm234.917969-39.988281h-38.984375v39.988281h38.984375v38.984375h39.988281v-38.984375c0-22.085937-17.902344-39.988281-39.988281-39.988281zm-156.945313 0h-39.988281v39.988281h39.988281zm77.972656 0h-39.984374v39.988281h39.984374zm78.972657 157.945312h39.988281v-39.984374h-39.988281zm-431.851563-39.984374h-39.988281v39.984374h39.988281zm118.960938-117.960938h-39.988282v39.988281h39.988282zm-118.960938 39.988281h37.988282v-39.988281h-37.988282c-22.085937 0-39.988281 17.902344-39.988281 39.988281v38.984375h39.988281zm194.933594 197.929688h-39.988281v39.988281h39.988281zm236.917969 0h-38.984375v39.988281h38.984375c22.085937 0 39.988281-17.902344 39.988281-39.988281v-39.984375h-39.988281zm-158.945313 0h-39.984375v39.988281h39.984375zm79.972656 0h-39.984374v39.988281h39.984374zm-235.917968 0h-39.988282v39.988281h39.988282zm-116.960938 39.988281h37.988282v-39.988281h-37.988282v-39.984375h-39.988281v39.984375c0 22.085937 17.902344 39.988281 39.988281 39.988281zm352.644532 79.8125 42.460937 43.042969h-359.359375l42.464844-43.042969-28.464844-28.082031-89.90625 91.132812 89.984375 90.183594 28.308594-28.242187-41.871094-41.960938h358.328125l-41.867188 41.960938 28.304688 28.242187 89.984375-90.183594-89.902344-91.132812zm0 0"/></svg>